<svg xmlns="http://www.w3.org/2000/svg" viewBox="0 0 66.85 66.85"><defs><style>.cls-1{fill:#5771b6;}.cls-2{fill:#fff;}</style></defs><g id="レイヤー_2" data-name="レイヤー 2"><g id="text"><circle class="cls-1" cx="33.42" cy="33.42" r="33.42"/><path class="cls-2" d="M21.88,46.58l3-4a10.09,10.09,0,0,0,7.09,3.27c3.22,0,5.42-1.55,5.42-4.22,0-3-1.85-4.85-8.77-4.85V32.22c5.84,0,7.73-1.93,7.73-4.6,0-2.41-1.54-3.82-4.25-3.82-2.28,0-4.13,1.07-6,2.83l-3.22-3.87a14.18,14.18,0,0,1,9.54-4c6.15,0,10.32,3,10.32,8.34,0,3.35-2,5.67-5.29,7v.22c3.57,1,6.32,3.57,6.32,7.65,0,5.67-5.12,9-11.18,9C27.51,51,24.12,49.11,21.88,46.58Z"/></g></g></svg>