<svg xmlns="http://www.w3.org/2000/svg" viewBox="0 0 66.85 66.85"><defs><style>.cls-1{fill:#5771b6;}.cls-2{fill:#fff;}</style></defs><g id="レイヤー_2" data-name="レイヤー 2"><g id="text"><circle class="cls-1" cx="33.42" cy="33.42" r="33.42"/><path class="cls-2" d="M21.88,46.66l2.93-4a9.89,9.89,0,0,0,7,3.23c3.31,0,5.63-1.94,5.63-5.42s-2.15-5.37-5.37-5.37a7.63,7.63,0,0,0-4.77,1.67l-2.88-1.85.86-15.47h17V24.7H30.74l-.6,6.75A8.83,8.83,0,0,1,34,30.59c5.33,0,9.8,3,9.8,9.62C43.76,47.05,38.52,51,32.63,51A14.49,14.49,0,0,1,21.88,46.66Z"/></g></g></svg>