<svg xmlns="http://www.w3.org/2000/svg" viewBox="0 0 66.85 66.85"><defs><style>.cls-1{fill:#f8c28c;}.cls-2{fill:#fff;}</style></defs><g id="レイヤー_2" data-name="レイヤー 2"><g id="text"><circle class="cls-1" cx="33.42" cy="33.42" r="33.42"/><path class="cls-2" d="M42.37,25.82a8.35,8.35,0,0,0-6.19-2.71c-3.57,0-7.48,2.28-7.91,10.44a10.48,10.48,0,0,1,7.6-3.31c5.16,0,10.28,3,10.28,9.93C46.15,46.83,41.5,51,35,51c-6.83,0-12.64-4.68-12.64-15.6C22.33,23.41,28.74,18,36,18a13.36,13.36,0,0,1,9.76,4ZM40.26,40.3a5.1,5.1,0,0,0-5.42-5.37,7.76,7.76,0,0,0-6.36,3.78c.86,5.33,3.61,7.39,6.62,7.39S40.26,44,40.26,40.3Z"/></g></g></svg>