<svg xmlns="http://www.w3.org/2000/svg" viewBox="0 0 304.07 70.68"><defs><style>.cls-1{fill:#fff;}.cls-2{fill:#5771b6;}.cls-3{fill:#f8c28c;}.cls-4{fill:none;stroke:#fff;stroke-miterlimit:10;}</style></defs><g id="レイヤー_2" data-name="レイヤー 2"><g id="text"><path class="cls-1" d="M2.51,26.32q0,1.08-1,1.08a.94.94,0,0,1-1-1.08V1.52C.51.77.86.4,1.55.4s1,.37,1,1.12V11.88L15,.64A1,1,0,0,1,15.63.4a.94.94,0,0,1,.72.36,1.09,1.09,0,0,1,.32.76,1.1,1.1,0,0,1-.4.72L3.35,13.6l13,11.92a1,1,0,0,1,.44.84,1,1,0,0,1-.34.72,1,1,0,0,1-.7.32.93.93,0,0,1-.68-.28L2.51,15.4Z"/><path class="cls-1" d="M19.67,13.12c0-.67.35-1,1-1s1,.33,1,1v8.12a5.25,5.25,0,0,0,.92,3.32,3.63,3.63,0,0,0,3,1.16,3.83,3.83,0,0,0,3.08-1.3,4.7,4.7,0,0,0,1.12-3.18V13.12c0-.67.35-1,1-1s1,.33,1,1V26.4c0,.67-.32,1-1,1s-1-.33-1-1v-1a4.44,4.44,0,0,1-1.86,1.82,5.77,5.77,0,0,1-2.58.54,5.26,5.26,0,0,1-4.28-1.68,7.47,7.47,0,0,1-1.4-4.88Z"/><path class="cls-1" d="M47.43,1.52c0-.75.32-1.12,1-1.12s1,.37,1,1.12v24.8c0,.72-.34,1.08-1,1.08s-1-.36-1-1.08V25.4a5.34,5.34,0,0,1-4.56,2.4,5.63,5.63,0,0,1-2.58-.6,6.65,6.65,0,0,1-2.08-1.68A8.11,8.11,0,0,1,36.81,23a10.55,10.55,0,0,1,0-6.42A8,8,0,0,1,38.21,14a6.65,6.65,0,0,1,2.08-1.68,5.63,5.63,0,0,1,2.58-.6,5.25,5.25,0,0,1,2.6.64,5.7,5.7,0,0,1,2,1.8ZM38.31,19.76a6.62,6.62,0,0,0,1.32,4.4,4.14,4.14,0,0,0,6.48,0,6.62,6.62,0,0,0,1.32-4.4v-.28a6.49,6.49,0,0,0-1.36-4.18,4,4,0,0,0-3.2-1.5,4.09,4.09,0,0,0-3.24,1.56A6.62,6.62,0,0,0,38.31,19.76Z"/><path class="cls-1" d="M54,19.76a10,10,0,0,1,.5-3.2A8,8,0,0,1,55.85,14a6.65,6.65,0,0,1,2.08-1.68,5.8,5.8,0,0,1,5.14,0A6.5,6.5,0,0,1,65.17,14a7.81,7.81,0,0,1,1.4,2.56,9.76,9.76,0,0,1,.5,3.2,9.71,9.71,0,0,1-.5,3.22,7.91,7.91,0,0,1-1.4,2.54,6.5,6.5,0,0,1-2.1,1.68,5.8,5.8,0,0,1-5.14,0,6.65,6.65,0,0,1-2.08-1.68A8.11,8.11,0,0,1,54.45,23,10,10,0,0,1,54,19.76Zm11.12,0a6.62,6.62,0,0,0-1.32-4.4,4.14,4.14,0,0,0-6.48,0A6.62,6.62,0,0,0,56,19.76a6.62,6.62,0,0,0,1.32,4.4,4.14,4.14,0,0,0,6.48,0A6.62,6.62,0,0,0,65.07,19.76Z"/><path class="cls-1" d="M101.15,13.92a14.32,14.32,0,0,1-1,5.28,13.74,13.74,0,0,1-2.64,4.28,11.87,11.87,0,0,1-4,2.88,12.19,12.19,0,0,1-5,1H82.27a.89.89,0,0,1-1-1V1.4a.89.89,0,0,1,1-1h6.12a12.47,12.47,0,0,1,5.1,1,12,12,0,0,1,4,2.88,13.41,13.41,0,0,1,2.66,4.3A14.46,14.46,0,0,1,101.15,13.92ZM99.27,14a11.73,11.73,0,0,0-.82-4.36,11.38,11.38,0,0,0-5.74-6.2,9.83,9.83,0,0,0-4.32-1H83.27V25.32h5.24a9.77,9.77,0,0,0,4.2-.92,11,11,0,0,0,3.42-2.48,11.64,11.64,0,0,0,2.3-3.62A11.28,11.28,0,0,0,99.27,14Z"/><path class="cls-1" d="M111.51,11.72A5.71,5.71,0,0,1,115.15,13a7.25,7.25,0,0,1,2.36,3.42c.08.21.18.5.28.86a3.59,3.59,0,0,1,.16,1.06,1.35,1.35,0,0,1-.2.76.82.82,0,0,1-.76.32H107v.36a6.62,6.62,0,0,0,1.32,4.4,4.09,4.09,0,0,0,3.24,1.56,3.62,3.62,0,0,0,3.64-2.08,1.59,1.59,0,0,1,.46-.62,1,1,0,0,1,.54-.18.9.9,0,0,1,.68.28,1,1,0,0,1,.28.72,1.88,1.88,0,0,1-.5,1.18,11.67,11.67,0,0,1-.94,1.06,6.56,6.56,0,0,1-1.9,1.26,5.54,5.54,0,0,1-2.26.46,5.63,5.63,0,0,1-2.58-.6,6.65,6.65,0,0,1-2.08-1.68,8.11,8.11,0,0,1-1.4-2.54,10,10,0,0,1-.5-3.22,9.77,9.77,0,0,1,.42-2.78,8.8,8.8,0,0,1,1.24-2.58,7.19,7.19,0,0,1,2-1.92A5.29,5.29,0,0,1,111.51,11.72Zm0,2.08a3.73,3.73,0,0,0-2.72,1,5.79,5.79,0,0,0-1.48,2.5h8.4a5.19,5.19,0,0,0-1.64-2.6A3.93,3.93,0,0,0,111.51,13.8Z"/><path class="cls-1" d="M132.15,23a4.83,4.83,0,0,1-.36,1.84,4.6,4.6,0,0,1-1,1.54,4.67,4.67,0,0,1-1.6,1,5.71,5.71,0,0,1-2.14.38,7.39,7.39,0,0,1-2.12-.3,5,5,0,0,1-1.8-1,5.25,5.25,0,0,1-1.42-1.76,4.29,4.29,0,0,1-.42-1.8c0-.67.32-1,1-1a1,1,0,0,1,1.12,1,3.38,3.38,0,0,0,1.12,2,3.91,3.91,0,0,0,2.56.74,3.31,3.31,0,0,0,2.4-.72,2.59,2.59,0,0,0,.72-1.92,1.92,1.92,0,0,0-.44-1.34,3.12,3.12,0,0,0-1.24-.82c-.56-.21-1.22-.43-2-.66a16.56,16.56,0,0,1-2-.7,3.77,3.77,0,0,1-2.36-3.76,3.77,3.77,0,0,1,1.28-2.94,5.51,5.51,0,0,1,3.76-1.14,5.15,5.15,0,0,1,2.46.52,4.69,4.69,0,0,1,1.42,1,2.22,2.22,0,0,1,.44.66,1.67,1.67,0,0,1,.12.62,1,1,0,0,1-.3.72,1,1,0,0,1-.7.28,1.25,1.25,0,0,1-1-.56,2.33,2.33,0,0,0-1-.92,4.13,4.13,0,0,0-1.74-.28c-1.81,0-2.72.67-2.72,2a2.72,2.72,0,0,0,.28,1.3,2.11,2.11,0,0,0,1.16.82c.62.21,1.29.42,2,.62a13.11,13.11,0,0,1,1.82.62A4,4,0,0,1,132.15,23Z"/><path class="cls-1" d="M136.55,6.76A1.82,1.82,0,0,1,137,5.48a1.55,1.55,0,0,1,2.32,0,1.82,1.82,0,0,1,.48,1.28A1.82,1.82,0,0,1,139.35,8,1.55,1.55,0,0,1,137,8,1.82,1.82,0,0,1,136.55,6.76Zm2.64,19.56c0,.72-.33,1.08-1,1.08s-1-.36-1-1.08V13.16c0-.69.33-1,1-1s1,.35,1,1Z"/><path class="cls-1" d="M155.47,25.36a5.8,5.8,0,0,1-2,1.8,5.25,5.25,0,0,1-2.6.64,5.63,5.63,0,0,1-2.58-.6,6.54,6.54,0,0,1-2.08-1.68,7.91,7.91,0,0,1-1.4-2.54,10.55,10.55,0,0,1,0-6.42,7.81,7.81,0,0,1,1.4-2.56,6.54,6.54,0,0,1,2.08-1.68,5.63,5.63,0,0,1,2.58-.6,5.46,5.46,0,0,1,2.6.62,5.54,5.54,0,0,1,2,1.78V13.2q0-1.08,1-1.08a.94.94,0,0,1,1,1.08V31.48a10,10,0,0,1-.5,3.22,7.91,7.91,0,0,1-1.4,2.54,6.5,6.5,0,0,1-2.1,1.68,5.64,5.64,0,0,1-2.56.6,5.57,5.57,0,0,1-2.26-.46,6.56,6.56,0,0,1-1.9-1.26,13.42,13.42,0,0,1-.94-1.06,1.94,1.94,0,0,1-.5-1.18,1,1,0,0,1,.28-.72.94.94,0,0,1,1.22-.1,1.5,1.5,0,0,1,.46.62,3.62,3.62,0,0,0,3.64,2.08,4.09,4.09,0,0,0,3.24-1.56,6.62,6.62,0,0,0,1.32-4.4Zm-9.12-5.6a6.62,6.62,0,0,0,1.32,4.4,4.09,4.09,0,0,0,3.24,1.56,4,4,0,0,0,3.2-1.5A6.55,6.55,0,0,0,155.47,20v-.28a6.62,6.62,0,0,0-1.32-4.4,4.14,4.14,0,0,0-6.48,0A6.62,6.62,0,0,0,146.35,19.76Z"/><path class="cls-1" d="M175,26.4c0,.67-.35,1-1,1s-1-.33-1-1V18.28a5.25,5.25,0,0,0-.92-3.32,3.6,3.6,0,0,0-3-1.16A3.84,3.84,0,0,0,166,15.1a4.7,4.7,0,0,0-1.12,3.18V26.4c0,.67-.35,1-1,1s-1-.33-1-1V13.12c0-.67.32-1,1-1s1,.33,1,1v1a4.56,4.56,0,0,1,1.86-1.82,5.77,5.77,0,0,1,2.58-.54,5.25,5.25,0,0,1,4.28,1.68,7.47,7.47,0,0,1,1.4,4.88Z"/><path class="cls-1" d="M194.79,27.8a9.64,9.64,0,0,1-6.37-2.4,5.36,5.36,0,0,1-1-1.08c-.28-.4-.54-.79-.76-1.16a2.4,2.4,0,0,1-.33-1.24.88.88,0,0,1,.36-.72,1.19,1.19,0,0,1,.78-.28,1,1,0,0,1,1.05.68,9.57,9.57,0,0,0,.8,1.4,5.65,5.65,0,0,0,1,1,6.38,6.38,0,0,0,2,1.18,6.73,6.73,0,0,0,2.19.38,8.16,8.16,0,0,0,2.71-.42,6.1,6.1,0,0,0,2-1.1,4.53,4.53,0,0,0,1.19-1.6,4.81,4.81,0,0,0,.4-2,5.92,5.92,0,0,0-.42-2.16,5.45,5.45,0,0,0-1.24-1.88,12.21,12.21,0,0,0-1.43-1.08c-.6-.4-1.25-.81-1.95-1.24s-1.38-.84-2-1.24-1.24-.76-1.71-1.08A12.33,12.33,0,0,1,188.8,9a5.15,5.15,0,0,1-1-3,5.14,5.14,0,0,1,.52-2.28,6,6,0,0,1,1.47-1.9A7.17,7.17,0,0,1,192.06.46,8,8,0,0,1,194.84,0a7.77,7.77,0,0,1,3.63.82,6.27,6.27,0,0,1,2.41,2,4.13,4.13,0,0,1,.42.72,1.74,1.74,0,0,1,.19.76.8.8,0,0,1-.33.68,1.19,1.19,0,0,1-.71.24,1.12,1.12,0,0,1-.57-.16,1.28,1.28,0,0,1-.48-.52l-.47-.7a3,3,0,0,0-.53-.58,5.26,5.26,0,0,0-3.51-1.2,4.79,4.79,0,0,0-3.4,1.12,3.5,3.5,0,0,0-1.22,2.64A3.73,3.73,0,0,0,191,8.1a9,9,0,0,0,2.29,2c.44.29,1,.65,1.71,1.06l2.16,1.3c.75.45,1.45.91,2.12,1.36a9.84,9.84,0,0,1,1.57,1.28,7.37,7.37,0,0,1,2.23,5.48,6.76,6.76,0,0,1-.57,2.74,6.9,6.9,0,0,1-1.66,2.3,8.07,8.07,0,0,1-2.64,1.58A9.68,9.68,0,0,1,194.79,27.8Z"/><path class="cls-1" d="M207.27,13.12c0-.67.35-1,1-1s1,.33,1,1v8.12a5.25,5.25,0,0,0,.92,3.32,3.6,3.6,0,0,0,3,1.16,3.84,3.84,0,0,0,3.08-1.3,4.7,4.7,0,0,0,1.12-3.18V13.12c0-.67.35-1,1-1s1,.33,1,1V26.4c0,.67-.32,1-1,1s-1-.33-1-1v-1a4.56,4.56,0,0,1-1.86,1.82,5.77,5.77,0,0,1-2.58.54,5.25,5.25,0,0,1-4.28-1.68,7.47,7.47,0,0,1-1.4-4.88Z"/><path class="cls-1" d="M226.83,38c0,.75-.32,1.12-1,1.12s-1-.37-1-1.12V13.2a.94.94,0,0,1,1-1.08q1,0,1,1.08v.92a5.54,5.54,0,0,1,2-1.78,5.46,5.46,0,0,1,2.6-.62,5.64,5.64,0,0,1,2.56.6,6.5,6.5,0,0,1,2.1,1.68,7.81,7.81,0,0,1,1.4,2.56,10.55,10.55,0,0,1,0,6.42,7.91,7.91,0,0,1-1.4,2.54A6.5,6.5,0,0,1,234,27.2a5.64,5.64,0,0,1-2.56.6,5.25,5.25,0,0,1-2.6-.64,5.8,5.8,0,0,1-2-1.8ZM236,19.76a6.62,6.62,0,0,0-1.32-4.4,4.14,4.14,0,0,0-6.48,0,6.62,6.62,0,0,0-1.32,4.4V20a6.55,6.55,0,0,0,1.36,4.18,4,4,0,0,0,3.2,1.5,4.09,4.09,0,0,0,3.24-1.56A6.62,6.62,0,0,0,236,19.76Z"/><path class="cls-1" d="M244.47,38c0,.75-.32,1.12-1,1.12s-1-.37-1-1.12V13.2a.94.94,0,0,1,1-1.08q1,0,1,1.08v.92a5.54,5.54,0,0,1,2-1.78,5.46,5.46,0,0,1,2.6-.62,5.64,5.64,0,0,1,2.56.6,6.5,6.5,0,0,1,2.1,1.68,7.81,7.81,0,0,1,1.4,2.56,10.55,10.55,0,0,1,0,6.42,7.91,7.91,0,0,1-1.4,2.54,6.5,6.5,0,0,1-2.1,1.68,5.64,5.64,0,0,1-2.56.6,5.25,5.25,0,0,1-2.6-.64,5.8,5.8,0,0,1-2-1.8Zm9.12-18.24a6.62,6.62,0,0,0-1.32-4.4,4.14,4.14,0,0,0-6.48,0,6.62,6.62,0,0,0-1.32,4.4V20a6.55,6.55,0,0,0,1.36,4.18,4,4,0,0,0,3.2,1.5,4.09,4.09,0,0,0,3.24-1.56A6.62,6.62,0,0,0,253.59,19.76Z"/><path class="cls-1" d="M288.74,15.76a3.87,3.87,0,0,0-1.06-1.52,3.07,3.07,0,0,0-1.82-.44,2.83,2.83,0,0,0-1.5.38,3.36,3.36,0,0,0-1,1,6,6,0,0,0-.7,1.36,14.81,14.81,0,0,0-.48,1.52V26.2c0,.8-.33,1.2-1,1.2s-.95-.39-1-1.16V13.08c0-.72.33-1.08,1-1.08s1,.36,1,1.08V14.4a5.12,5.12,0,0,1,1.54-2,4.07,4.07,0,0,1,2.5-.7,4.32,4.32,0,0,1,3.32,1.44,4.8,4.8,0,0,1,.74,1.08,2.6,2.6,0,0,1,.3,1.16,1,1,0,0,1-.26.74.87.87,0,0,1-.62.26A.94.94,0,0,1,288.74,15.76Z"/><path class="cls-1" d="M304.07,13.16a.88.88,0,0,1-1,1h-3.51V26.28c0,.75-.35,1.12-1,1.12s-1-.37-1-1.12V14.16h-3.29a.89.89,0,0,1-1-1,.91.91,0,0,1,1-1h3.29V7.68c0-.67.32-1,1-1s1,.33,1,1v4.44h3.51C303.74,12.12,304.07,12.47,304.07,13.16Z"/><circle class="cls-2" cx="61.66" cy="19.56" r="9.04"/><circle class="cls-3" cx="267.87" cy="19.56" r="9.04"/><path class="cls-1" d="M7.75,57.9a.61.61,0,0,1,.63.59.69.69,0,0,1-.13.37,36.32,36.32,0,0,1-3.39,4.25,1.13,1.13,0,0,0-.41.85,1.5,1.5,0,0,0,.53,1c1.09,1.22,2.59,2.94,3.73,4.47a.83.83,0,0,1,.18.53.62.62,0,0,1-.63.64.78.78,0,0,1-.63-.39,49.38,49.38,0,0,0-3.57-4.54A2.61,2.61,0,0,1,3.27,64,2.19,2.19,0,0,1,4,62.43,24.73,24.73,0,0,0,7.24,58.2.6.6,0,0,1,7.75,57.9Z"/><path class="cls-1" d="M16.11,58.64a.55.55,0,0,1,.58-.57.61.61,0,0,1,.62.63,26.6,26.6,0,0,0,.4,4.65A17.15,17.15,0,0,1,20.83,62a.61.61,0,0,1,.23,0,.56.56,0,0,1,.57.55.6.6,0,0,1-.47.56,17.64,17.64,0,0,0-3.91,1.78c-1.38.87-1.91,1.82-1.91,2.61,0,1.17.81,1.7,3.35,1.7a16.36,16.36,0,0,0,3.06-.29.57.57,0,0,1,.72.59.57.57,0,0,1-.45.57,15.92,15.92,0,0,1-3.35.3c-3.33,0-4.53-1-4.53-2.78,0-1.18.77-2.5,2.52-3.64A27.18,27.18,0,0,1,16.11,58.64Zm4.3.69a.44.44,0,0,1,.45-.42.54.54,0,0,1,.3.1,8.43,8.43,0,0,1,1.4,1.4.61.61,0,0,1,.13.36.46.46,0,0,1-.45.46.48.48,0,0,1-.36-.19,10.79,10.79,0,0,0-1.3-1.37A.43.43,0,0,1,20.41,59.33Zm1.29-1.16a.46.46,0,0,1,.45-.45.6.6,0,0,1,.32.12,9,9,0,0,1,1.36,1.34.61.61,0,0,1,.14.36.46.46,0,0,1-.44.46.48.48,0,0,1-.33-.18,11.93,11.93,0,0,0-1.33-1.33A.4.4,0,0,1,21.7,58.17Z"/><path class="cls-1" d="M27.21,63.57a.58.58,0,0,1-.57-.57.63.63,0,0,1,.42-.58,10.71,10.71,0,0,1,4.16-1c2.05,0,3.12,1,3.12,2.82a7.94,7.94,0,0,1-3.17,6.1.72.72,0,0,1-.43.15.55.55,0,0,1-.57-.54.69.69,0,0,1,.31-.54,6.46,6.46,0,0,0,2.66-5.17c0-1.19-.47-1.7-1.89-1.7a9.52,9.52,0,0,0-3.74,1A.87.87,0,0,1,27.21,63.57Zm6-4.74a.68.68,0,0,1,.45.6.54.54,0,0,1-.54.56.7.7,0,0,1-.27-.06A17.81,17.81,0,0,0,29.7,59a.55.55,0,0,1-.49-.54.58.58,0,0,1,.73-.55A15.33,15.33,0,0,1,33.23,58.83Z"/><path class="cls-1" d="M45.15,64a8.06,8.06,0,0,1-3.76,6.61.7.7,0,0,1-.39.12.53.53,0,0,1-.54-.54.68.68,0,0,1,.39-.6A6.6,6.6,0,0,0,43.94,64h-4.8a.57.57,0,0,1,0-1.14H49.65a.57.57,0,0,1,0,1.14Zm2.18-4.55a.57.57,0,0,1,0,1.14H41a.57.57,0,0,1,0-1.14Zm.6-.93a.44.44,0,0,1,.45-.42.48.48,0,0,1,.34.15,8.62,8.62,0,0,1,1.17,1.61.59.59,0,0,1,.08.3.47.47,0,0,1-.45.48.44.44,0,0,1-.39-.26,11.42,11.42,0,0,0-1.08-1.56A.45.45,0,0,1,47.93,58.47Zm1.48-.93a.45.45,0,0,1,.45-.42.47.47,0,0,1,.36.17,8.31,8.31,0,0,1,1.14,1.54.58.58,0,0,1,.08.29.46.46,0,0,1-.44.48.4.4,0,0,1-.36-.23,11.35,11.35,0,0,0-1.11-1.53A.4.4,0,0,1,49.41,57.54Z"/><path class="cls-1" d="M57,65.7a.6.6,0,0,1-1.2,0v-3H53.26a.54.54,0,0,1,0-1.08h2.56V59.07a.6.6,0,0,1,1.2,0v2.58H61V58.83a.58.58,0,0,1,.62-.57.56.56,0,0,1,.58.57v2.82h2.91a.54.54,0,0,1,0,1.08H62.15v.74c0,3.63-1.65,6-4.38,7.11a.74.74,0,0,1-.28.06.57.57,0,0,1-.57-.56.66.66,0,0,1,.46-.6c2.28-1,3.57-2.7,3.57-6.13v-.62H57ZM63,58.65a.44.44,0,0,1,.45-.42.48.48,0,0,1,.39.23,8.32,8.32,0,0,1,.92,1.72.75.75,0,0,1,0,.24.45.45,0,0,1-.87.17A9.75,9.75,0,0,0,63,58.91.52.52,0,0,1,63,58.65Zm1.55-.73a.46.46,0,0,1,.84-.21,9.31,9.31,0,0,1,1,1.65.51.51,0,0,1,.06.25.46.46,0,0,1-.45.48.4.4,0,0,1-.37-.27,12.08,12.08,0,0,0-1-1.65A.43.43,0,0,1,64.51,57.92Z"/><path class="cls-1" d="M72.75,63.26a1.06,1.06,0,0,1,0-.2,21.85,21.85,0,0,1-4.35,2.82A.75.75,0,0,1,68,66a.55.55,0,0,1-.57-.53.69.69,0,0,1,.45-.6,19.78,19.78,0,0,0,7.5-6.37.63.63,0,0,1,1.16.3.6.6,0,0,1-.14.39,21,21,0,0,1-3.19,3.48.59.59,0,0,1,.7.6v6.82a.6.6,0,0,1-1.2,0Z"/><path class="cls-1" d="M84.14,61.49a.77.77,0,0,1,.24.52.63.63,0,0,1-.62.63.67.67,0,0,1-.49-.24,17.09,17.09,0,0,0-2.16-1.9.57.57,0,0,1,.33-1,.76.76,0,0,1,.43.13A13.46,13.46,0,0,1,84.14,61.49ZM91,61a.6.6,0,0,1,.61.58.7.7,0,0,1-.1.36,17.44,17.44,0,0,1-9.2,7.8,1,1,0,0,1-.28,0,.6.6,0,0,1-.62-.59.67.67,0,0,1,.48-.6,16,16,0,0,0,8.55-7.26A.63.63,0,0,1,91,61Z"/><path class="cls-1" d="M98.67,65.63a.6.6,0,0,1-1.2,0v-3H94.91a.54.54,0,0,1,0-1.08h2.56V59a.6.6,0,0,1,1.2,0v2.58h3.93V58.76a.57.57,0,0,1,.62-.57.56.56,0,0,1,.58.57v2.82h2.91a.54.54,0,0,1,0,1.08H103.8v.73c0,3.63-1.65,6-4.38,7.11a.59.59,0,0,1-.28.06.57.57,0,0,1-.57-.55.64.64,0,0,1,.46-.6c2.28-1,3.57-2.7,3.57-6.14v-.61H98.67Z"/><path class="cls-1" d="M112.28,64.11a.58.58,0,0,1,.59.59.74.74,0,0,1-.06.28,11.61,11.61,0,0,1-2.1,3.24.76.76,0,0,1-.54.27.56.56,0,0,1-.56-.55.73.73,0,0,1,.24-.53,9.86,9.86,0,0,0,1.88-2.91A.59.59,0,0,1,112.28,64.11Zm4,4.71a1.61,1.61,0,0,1-1.77,1.79,5.61,5.61,0,0,1-1-.09.63.63,0,0,1-.56-.62.57.57,0,0,1,.72-.57,4.32,4.32,0,0,0,.81.08c.41,0,.62-.17.62-.75V62.28H110.5a.57.57,0,0,1,0-1.14h4.59V58.67a.57.57,0,0,1,.61-.54.53.53,0,0,1,.59.51v2.5h4.53a.57.57,0,0,1,0,1.14h-4.53Zm5.1-1.53a.77.77,0,0,1,.21.5.63.63,0,0,1-.63.61.7.7,0,0,1-.57-.31,15.45,15.45,0,0,1-1.89-3.17.59.59,0,0,1-.06-.28.54.54,0,0,1,.55-.54.65.65,0,0,1,.59.4A13.83,13.83,0,0,0,121.39,67.29Zm-2.21-8.38a1.65,1.65,0,1,1,1.65,1.65A1.62,1.62,0,0,1,119.18,58.91Zm.68,0a1,1,0,0,0,2,0,1,1,0,1,0-2,0Z"/><path class="cls-1" d="M135.18,63.75a.59.59,0,0,1,0,1.17h-10.9a.59.59,0,0,1,0-1.17Z"/><path class="cls-1" d="M142,62.69a.54.54,0,0,1,.49-.3.66.66,0,0,1,.29.06,20.12,20.12,0,0,1,3.69,2.19.69.69,0,0,1,.3.54.61.61,0,0,1-.6.61.68.68,0,0,1-.42-.15,21.27,21.27,0,0,0-3.44-2.16.72.72,0,0,1-.31-.28V70a.6.6,0,0,1-1.2,0V58.55a.6.6,0,0,1,1.2,0Z"/><line class="cls-4" y1="46.83" x2="299.03" y2="46.83"/></g></g></svg>