<svg xmlns="http://www.w3.org/2000/svg" viewBox="0 0 278.09 19.61"><defs><style>.cls-1{fill:#fff;}.cls-2{fill:#5771b6;}.cls-3{fill:#f8c28c;}</style></defs><g id="レイヤー_2" data-name="レイヤー 2"><g id="text"><path class="cls-1" d="M3.53,9c0-.84.07-1.67.14-2.51-.76,0-1.46.08-2.08.08a.5.5,0,0,1-.5-.53.51.51,0,0,1,.54-.52c.62,0,1.37,0,2.15-.08.06-.61.15-1.26.24-1.92a.54.54,0,1,1,1.08.14q-.13.9-.24,1.71C6,5.3,7.12,5.16,8.12,5a.52.52,0,1,1,.16,1c-1,.17-2.31.32-3.54.41-.07.73-.12,1.47-.16,2.2A9,9,0,0,1,7,8.3c.06-.24.13-.5.2-.75a.53.53,0,0,1,.52-.44.55.55,0,0,1,.56.54,1.13,1.13,0,0,1,0,.18,5.52,5.52,0,0,1-.16.54A3.83,3.83,0,0,1,11.56,12c0,2-1.47,3.58-3.73,4.12l-.21,0A.58.58,0,0,1,7,15.6.6.6,0,0,1,7.54,15c1.87-.45,2.85-1.56,2.85-3a2.85,2.85,0,0,0-2.6-2.79,11.33,11.33,0,0,1-2.88,4.53c0,.26.1.51.16.75a2.11,2.11,0,0,1,0,.21.58.58,0,0,1-.52.63.55.55,0,0,1-.5-.46c0-.18-.09-.38-.13-.57a3.7,3.7,0,0,1-2.16.72A1.68,1.68,0,0,1,0,13.19C0,11.93,1,10.16,3.53,9ZM1.84,14a3.26,3.26,0,0,0,1.91-.75A21.71,21.71,0,0,1,3.51,10c-1.81,1-2.4,2.23-2.4,3.07C1.12,13.58,1.32,14,1.84,14ZM6.66,9.2a8.18,8.18,0,0,0-2.12.4V10a22.44,22.44,0,0,0,.18,2.59A9.76,9.76,0,0,0,6.66,9.2Z"/><path class="cls-1" d="M18,3.86a.52.52,0,0,1,.54-.45.55.55,0,0,1,.55.69c-.15.66-.32,1.33-.53,2,.56-.07,1.12-.16,1.62-.27s.71.18.71.47a.61.61,0,0,1-.54.57c-.69.13-1.41.25-2.14.36a26.53,26.53,0,0,1-2.37,5.14.68.68,0,0,1-.59.36.53.53,0,0,1-.54-.52,1,1,0,0,1,.13-.42A22.5,22.5,0,0,0,17,7.38c-.65.06-1.29.11-1.88.14A.56.56,0,0,1,14.5,7a.54.54,0,0,1,.56-.54c.69,0,1.48-.07,2.31-.16C17.61,5.46,17.82,4.67,18,3.86Zm3.31,6.51A6,6,0,0,1,21.43,9,.54.54,0,0,1,22,8.52a.5.5,0,0,1,.52.57,6.56,6.56,0,0,0-.11,1.26,12,12,0,0,0,.26,2.25,10.54,10.54,0,0,1,2.69,1.26.64.64,0,0,1,.33.54.55.55,0,0,1-.53.56.56.56,0,0,1-.34-.12,12.33,12.33,0,0,0-2-1.1v.15a2.09,2.09,0,0,1-2.34,2.19c-1.78,0-2.65-.79-2.65-1.95,0-1,.87-1.86,2.79-1.86a6,6,0,0,1,.92.08A12.29,12.29,0,0,1,21.3,10.37Zm.39,3.43c0-.15,0-.28,0-.42a4.43,4.43,0,0,0-1.05-.13c-1.26,0-1.69.39-1.69.88s.37.95,1.53.95A1.13,1.13,0,0,0,21.69,13.8ZM25.9,7.17a.74.74,0,0,1,.38.6.54.54,0,0,1-.53.54.7.7,0,0,1-.39-.12,11.8,11.8,0,0,0-2.19-1,.49.49,0,0,1-.37-.49.54.54,0,0,1,.55-.54.91.91,0,0,1,.23,0A9.87,9.87,0,0,1,25.9,7.17Z"/><path class="cls-1" d="M29.76,7.73a.52.52,0,0,1-.55-.54.56.56,0,0,1,.57-.57c.61,0,1.39-.12,2.26-.26.15-.85.21-1.48.31-2.43A.58.58,0,0,1,33,3.38a.5.5,0,0,1,.52.61c-.1.87-.18,1.49-.28,2.18l1.51-.36.19,0a.48.48,0,0,1,.5.51.58.58,0,0,1-.44.55c-.67.18-1.33.35-2,.47a44.75,44.75,0,0,1-2.17,8,.72.72,0,0,1-.66.51.54.54,0,0,1-.56-.56,1.15,1.15,0,0,1,.07-.33,37.63,37.63,0,0,0,2.15-7.39C31.06,7.62,30.36,7.7,29.76,7.73Zm5.49,4.59a.47.47,0,0,1,.48.43c.15,1.05.78,1.49,2.73,1.49a10.89,10.89,0,0,0,1.92-.2.53.53,0,0,1,.63.56.57.57,0,0,1-.47.58,10.18,10.18,0,0,1-2.1.2c-2.53,0-3.58-.81-3.77-2.4A.58.58,0,0,1,35.25,12.32Zm4.6-4.44a.54.54,0,0,1,.57.55.53.53,0,0,1-.55.56,15.54,15.54,0,0,0-3.63.39l-.18,0a.5.5,0,0,1-.51-.51.64.64,0,0,1,.53-.63A15.86,15.86,0,0,1,39.85,7.88Z"/><path class="cls-1" d="M43.4,11c0-3.17,2.65-6,6.66-6,3.43,0,5.5,2.15,5.5,5a5.45,5.45,0,0,1-4,5.33.82.82,0,0,1-.26,0,.59.59,0,0,1-.61-.61.67.67,0,0,1,.52-.65A4,4,0,0,0,54.35,10c0-2.2-1.47-3.91-4.2-4a14.18,14.18,0,0,1-1.83,6.57c-.83,1.31-1.58,1.67-2.43,1.67C44.61,14.24,43.4,13.11,43.4,11Zm3.82-4.32A5.18,5.18,0,0,0,45.59,8.1a5.25,5.25,0,0,0-.69,1.22A5.32,5.32,0,0,0,44.58,11c0,1.24.62,2,1.31,2,.48,0,.91-.2,1.41-1a13.23,13.23,0,0,0,1.65-6A5.45,5.45,0,0,0,47.22,6.68Z"/><path class="cls-1" d="M64.14,5.3h-5.5a.42.42,0,0,1-.41-.45.41.41,0,0,1,.41-.45h5.5V3.29a.46.46,0,0,1,.49-.44.45.45,0,0,1,.5.44V4.4h5.62a.41.41,0,0,1,.41.45.42.42,0,0,1-.41.45H65.13v.81h2.64c1,0,1.36.36,1.36,1.09v.66c0,.74-.37,1.1-1.36,1.1H65.13v.82h3.08c1.09,0,1.54.44,1.54,1.25v.61h1.37a.42.42,0,0,1,.4.45.41.41,0,0,1-.4.45H69.75v.68c0,.81-.45,1.21-1.54,1.21H65.13v1c0,1-.39,1.46-1.41,1.46a4.89,4.89,0,0,1-1-.11.47.47,0,0,1-.41-.48.49.49,0,0,1,.57-.51,4,4,0,0,0,.73.09c.38,0,.56-.15.56-.6v-.87H59.62a.44.44,0,0,1,0-.87h4.52v-1H58.28a.41.41,0,0,1-.41-.45.42.42,0,0,1,.41-.45h5.86v-1H59.58a.44.44,0,0,1,0-.87h4.56V9H61.65c-1,0-1.36-.36-1.36-1.1V7.2c0-.73.37-1.09,1.36-1.09h2.49ZM61.82,7c-.47,0-.57.12-.57.42V7.7c0,.3.1.42.57.42h2.32V7Zm5.79,1.17c.32,0,.56,0,.56-.42V7.37c0-.3-.1-.42-.56-.42H65.13V8.12Zm1.12,3c0-.36-.16-.48-.8-.48h-2.8v1h3.6Zm-.8,2.43c.64,0,.8-.12.8-.45v-.57h-3.6v1Z"/><path class="cls-1" d="M74.72,9.06a.44.44,0,0,1,0-.87h3.49A.57.57,0,0,1,78,8a8.7,8.7,0,0,0-.57-.81.44.44,0,0,1-.11-.29.45.45,0,0,1,.48-.43.57.57,0,0,1,.45.22,8.12,8.12,0,0,1,.62.8.54.54,0,0,1,.1.31.44.44,0,0,1-.24.39H81a7.42,7.42,0,0,0,.81-1.39.54.54,0,0,1,.5-.33.49.49,0,0,1,.52.45.43.43,0,0,1-.07.25c-.24.42-.44.72-.65,1h3.72a.44.44,0,1,1,0,.87h-5.2v1h3.93a.41.41,0,0,1,.43.43.43.43,0,0,1-.43.44H80.63v1h5.44a.41.41,0,0,1,.44.43.42.42,0,0,1-.44.44H81.23a17,17,0,0,0,5.32,2.44.57.57,0,0,1,.48.56.48.48,0,0,1-.51.49.83.83,0,0,1-.22,0,15.55,15.55,0,0,1-5.72-3l0,1.65V16.4a.48.48,0,0,1-.51.46.48.48,0,0,1-.53-.46V15l0-1.59a16.73,16.73,0,0,1-5.66,3l-.18,0a.47.47,0,0,1-.49-.46.5.5,0,0,1,.4-.48,16.13,16.13,0,0,0,5.18-2.67H74.21a.41.41,0,0,1-.42-.44.4.4,0,0,1,.42-.43h5.38v-1H75.75a.42.42,0,0,1-.42-.44.41.41,0,0,1,.42-.43h3.84v-1ZM86.33,5.45a.41.41,0,0,1,.43.43.43.43,0,0,1-.43.44H74a.43.43,0,0,1-.42-.44A.41.41,0,0,1,74,5.45h4.29V3.3a.46.46,0,0,1,.51-.46.47.47,0,0,1,.51.46V5.45h1.56V3.3a.46.46,0,0,1,.51-.46.47.47,0,0,1,.51.46V5.45Zm-9.09-.93a.63.63,0,0,1,.1.33.51.51,0,0,1-.51.49.53.53,0,0,1-.45-.28,7.71,7.71,0,0,0-.67-1,.51.51,0,0,1-.15-.35.47.47,0,0,1,.49-.43.56.56,0,0,1,.44.21A9.28,9.28,0,0,1,77.24,4.52Zm7-1.34a.5.5,0,0,1,.5.48.49.49,0,0,1-.08.27,7.73,7.73,0,0,1-.82,1.2.58.58,0,0,1-.47.23A.43.43,0,0,1,82.89,5,.51.51,0,0,1,83,4.65a7.14,7.14,0,0,0,.72-1.14A.56.56,0,0,1,84.21,3.18Z"/><path class="cls-1" d="M92.07,8.9a3.41,3.41,0,0,1,1.55-.42,1.83,1.83,0,0,1,2,1.45,40.41,40.41,0,0,1,4.11-1.48.56.56,0,0,1,.22,0,.51.51,0,0,1,.54.52.55.55,0,0,1-.45.54,37.53,37.53,0,0,0-4.18,1.46,16.66,16.66,0,0,1,.22,2.34.55.55,0,0,1-.55.61.48.48,0,0,1-.51-.52q0-1.21-.15-2c-1.82.88-2.36,1.8-2.36,2.49S93.14,15,95,15a13.86,13.86,0,0,0,2.79-.26.58.58,0,0,1,.77.53.6.6,0,0,1-.56.57,17.44,17.44,0,0,1-3,.24c-2.52,0-3.66-.84-3.66-2.16,0-1.08.69-2.3,3.29-3.57a1.15,1.15,0,0,0-1.29-1,5.45,5.45,0,0,0-3.08,1.47.71.71,0,0,1-.42.16.51.51,0,0,1-.52-.51.63.63,0,0,1,.25-.48,11.8,11.8,0,0,0,2.81-3.36c-.74.06-1.44.09-2,.11a.55.55,0,0,1-.62-.53.57.57,0,0,1,.63-.55c.75,0,1.64-.05,2.55-.12.26-.6.48-1.2.68-1.8a.58.58,0,0,1,.55-.44.53.53,0,0,1,.56.51.49.49,0,0,1,0,.21,11.25,11.25,0,0,1-.54,1.4c.82-.09,1.65-.21,2.35-.33a.54.54,0,0,1,.71.49.52.52,0,0,1-.48.51c-.95.18-2,.33-3.12.44A14.48,14.48,0,0,1,92,8.85Z"/><circle class="cls-2" cx="114.29" cy="9.81" r="9.81"/><circle class="cls-3" cx="133.77" cy="9.81" r="9.81"/><circle class="cls-2" cx="153.26" cy="9.81" r="9.81"/><circle class="cls-3" cx="172.75" cy="9.81" r="9.81"/><path class="cls-1" d="M114.52,10.09a8.32,8.32,0,0,1-3.91,6.69,1,1,0,0,1-.48.14.92.92,0,0,1-.88-.91.86.86,0,0,1,.46-.76,6.35,6.35,0,0,0,3-5.16H108c-.44,0-.66-.41-.66-.82s.22-.82.66-.82h11a.74.74,0,0,1,.68.82.74.74,0,0,1-.68.82Zm1.94-5.28a.75.75,0,0,1,.68.83c0,.42-.23.84-.68.84h-6.58c-.44,0-.66-.42-.66-.84s.22-.83.66-.83Zm.67-.76a.6.6,0,0,1,.63-.54.61.61,0,0,1,.49.24,9.69,9.69,0,0,1,1,1.51.83.83,0,0,1,.09.35.6.6,0,0,1-.6.61.63.63,0,0,1-.57-.37,13.18,13.18,0,0,0-1-1.47A.6.6,0,0,1,117.13,4.05Zm1.68-1a.58.58,0,0,1,.62-.52.67.67,0,0,1,.52.23,8.88,8.88,0,0,1,1,1.43.87.87,0,0,1,.1.39.6.6,0,0,1-.61.6.67.67,0,0,1-.59-.37,12.2,12.2,0,0,0-1-1.42A.54.54,0,0,1,118.81,3.08Z"/><path class="cls-1" d="M130.81,11.5a.79.79,0,0,1-.89.75.8.8,0,0,1-.9-.75V8.81h-2.37a.73.73,0,0,1-.72-.77.72.72,0,0,1,.72-.77H129V4.73a.81.81,0,0,1,.9-.77.8.8,0,0,1,.89.77V7.27h3.49V4.52a.91.91,0,0,1,1.8,0V7.27h2.7a.71.71,0,0,1,.71.77.71.71,0,0,1-.71.77h-2.7v.48c0,3.75-1.72,6.22-4.53,7.49a1.06,1.06,0,0,1-.42.09.86.86,0,0,1-.86-.86.88.88,0,0,1,.57-.82c2.29-1.1,3.44-2.81,3.44-6V8.81h-3.49Zm5.8-7.28A.63.63,0,0,1,137.76,4a9.32,9.32,0,0,1,.84,1.59.84.84,0,0,1,.06.3.61.61,0,0,1-.62.6.62.62,0,0,1-.58-.42,13,13,0,0,0-.78-1.53A.47.47,0,0,1,136.61,4.22Zm1.71-.85a.58.58,0,0,1,.62-.52.68.68,0,0,1,.55.29,8.17,8.17,0,0,1,.87,1.5,1.09,1.09,0,0,1,.07.34.6.6,0,0,1-.61.6.63.63,0,0,1-.59-.41,12.73,12.73,0,0,0-.82-1.5A.61.61,0,0,1,138.32,3.37Z"/><path class="cls-1" d="M152.45,9.35a26.16,26.16,0,0,1-3.91,2.59,1,1,0,0,1-.54.14.86.86,0,0,1-.85-.86,1,1,0,0,1,.59-.87A23.66,23.66,0,0,0,155.25,4a1,1,0,0,1,.77-.4.92.92,0,0,1,.94.87.92.92,0,0,1-.22.57,23.89,23.89,0,0,1-3.27,3.44.8.8,0,0,1,.8.8v6.78a.83.83,0,0,1-.91.81.84.84,0,0,1-.91-.81Z"/><path class="cls-1" d="M171.31,7a1,1,0,0,1,.28.67,1.05,1.05,0,0,1-1,1,1,1,0,0,1-.69-.31,24.62,24.62,0,0,0-2.1-1.87.85.85,0,0,1-.38-.69,1,1,0,0,1,1-.95,1.22,1.22,0,0,1,.62.2A14.23,14.23,0,0,1,171.31,7Zm6.8-.44a.9.9,0,0,1,.94.85.91.91,0,0,1-.16.49,18.5,18.5,0,0,1-9.54,8.12,1.11,1.11,0,0,1-.42.08.94.94,0,0,1-.92-.94.83.83,0,0,1,.6-.82,17.28,17.28,0,0,0,8.71-7.3A.87.87,0,0,1,178.11,6.59Z"/><path class="cls-1" d="M193.91,6.18c-1.95.26-4.55.6-7.13,1a.6.6,0,0,1-.76-.57.61.61,0,0,1,.61-.59c3.09-.4,6.87-.82,10-1.11a.61.61,0,0,1,.74.56.61.61,0,0,1-.54.58,5.16,5.16,0,0,0-1.7.59C192.62,8,192,9.92,192,11.21c0,1.74,1.35,3,3.45,3.16.44.05.65.32.65.6a.64.64,0,0,1-.74.62c-2.67-.18-4.53-2-4.53-4.26a6.21,6.21,0,0,1,3-5.12Zm1.39,2.61a.45.45,0,0,1,.45-.42.48.48,0,0,1,.3.11,8,8,0,0,1,1.4,1.39.64.64,0,0,1,.13.36.44.44,0,0,1-.81.27,10,10,0,0,0-1.3-1.36A.47.47,0,0,1,195.3,8.79Zm1.29-1.15a.46.46,0,0,1,.45-.45.53.53,0,0,1,.32.12,8.94,8.94,0,0,1,1.36,1.33.61.61,0,0,1,.14.36.46.46,0,0,1-.44.47.48.48,0,0,1-.33-.18A11.24,11.24,0,0,0,196.76,8,.4.4,0,0,1,196.59,7.64Z"/><path class="cls-1" d="M213.18,4.91a.45.45,0,0,1,.45.48.45.45,0,0,1-.45.48h-9.57c-.73,0-.9.22-.9.84V8.33a15.79,15.79,0,0,1-1.5,7.18.63.63,0,0,1-.55.39.5.5,0,0,1-.5-.51.68.68,0,0,1,.11-.37,15.51,15.51,0,0,0,1.33-6.93V6.51c0-1.06.44-1.6,1.76-1.6h3.58V3.32c0-.29.29-.44.56-.44s.55.15.55.44V4.91Zm-8.74,5.47a.55.55,0,0,1,.52.71A11.27,11.27,0,0,1,203.87,14a.74.74,0,0,1-.62.42.48.48,0,0,1-.48-.49.68.68,0,0,1,.11-.36,9.85,9.85,0,0,0,1-2.69A.56.56,0,0,1,204.44,10.38ZM207,14.69c0,.57.27.73,1.58.73,1.66,0,2.11-.33,2.28-1.59a.49.49,0,0,1,.51-.45.52.52,0,0,1,.54.62c-.29,1.83-1,2.38-3.32,2.38s-2.7-.37-2.7-1.53V9.51a.51.51,0,0,1,.56-.49.5.5,0,0,1,.55.49Zm2.7-6.47a.6.6,0,0,1,.18.44.57.57,0,0,1-.55.58.74.74,0,0,1-.51-.27,8.81,8.81,0,0,0-1.56-1.33.57.57,0,0,1-.29-.45.52.52,0,0,1,.54-.5.62.62,0,0,1,.35.11A10.75,10.75,0,0,1,209.73,8.22Zm4.35,4.55a.93.93,0,0,1,.08.34.58.58,0,0,1-1.14.14,9.75,9.75,0,0,0-1.26-2.36.51.51,0,0,1-.11-.31.47.47,0,0,1,.5-.47.7.7,0,0,1,.52.27A10.66,10.66,0,0,1,214.08,12.77Z"/><path class="cls-1" d="M218.83,15.06c0,1-.46,1.49-1.42,1.49a4.32,4.32,0,0,1-.86-.09.55.55,0,0,1-.48-.53.51.51,0,0,1,.65-.48,5.15,5.15,0,0,0,.6.05c.33,0,.48-.08.48-.53V11.6c-.42.13-.84.28-1.28.4a.71.71,0,0,1-.21,0,.48.48,0,0,1-.49-.49.56.56,0,0,1,.45-.53c.52-.13,1-.3,1.53-.45V7.17h-1.37a.42.42,0,0,1-.42-.45.42.42,0,0,1,.42-.45h1.37V3.54a.52.52,0,0,1,1,0V6.27h1.1a.43.43,0,0,1,.43.45.42.42,0,0,1-.43.45h-1.1v3l.83-.33a.63.63,0,0,1,.22,0,.45.45,0,0,1,.48.44.51.51,0,0,1-.34.45c-.36.18-.77.36-1.19.52Zm7.65-3.76c.81,0,1.28.36,1.28.9a1.53,1.53,0,0,1-.33.85,9,9,0,0,1-1.17,1.29,8.65,8.65,0,0,0,2.67,1,.55.55,0,0,1,.48.54.54.54,0,0,1-.69.53,9.74,9.74,0,0,1-3.29-1.4A11.71,11.71,0,0,1,222,16.64l-.17,0a.49.49,0,0,1-.48-.48.51.51,0,0,1,.39-.47,11.44,11.44,0,0,0,2.87-1.36A7.57,7.57,0,0,1,223,12.51a11,11,0,0,1-2.5,3.15.56.56,0,0,1-.38.15.46.46,0,0,1-.45-.46.6.6,0,0,1,.24-.47,11.2,11.2,0,0,0,3.05-4.6h-1.86a.47.47,0,0,1,0-.93h2.16c.09-.33.16-.68.24-1h-2a.42.42,0,0,1-.42-.45.42.42,0,0,1,.42-.45h4.53a13.55,13.55,0,0,0,1.19-2.22.54.54,0,0,1,.49-.36.49.49,0,0,1,.51.49.78.78,0,0,1-.09.33,13.49,13.49,0,0,1-1,1.76h1.05a.42.42,0,0,1,.43.45.43.43,0,0,1-.43.45h-3.66c-.08.34-.15.69-.24,1h4.53a.42.42,0,0,1,.43.46.43.43,0,0,1-.43.47H224c-.12.34-.25.69-.39,1Zm1.85-7.44c0,.22-.17.45-.53.52a43.64,43.64,0,0,1-6.57.77.51.51,0,0,1-.57-.48.46.46,0,0,1,.48-.45,44.67,44.67,0,0,0,6.48-.84A.54.54,0,0,1,228.33,3.86ZM221.8,5.72a.45.45,0,0,1,.48-.42.53.53,0,0,1,.45.24,7.32,7.32,0,0,1,.59,1,.84.84,0,0,1,.06.24.5.5,0,0,1-.53.48.47.47,0,0,1-.45-.3,9,9,0,0,0-.51-1A.54.54,0,0,1,221.8,5.72Zm2,6.46a7.13,7.13,0,0,0,1.56,1.59,6.27,6.27,0,0,0,1.14-1.17.38.38,0,0,0,.1-.22c0-.14-.13-.2-.39-.2Zm.25-6.73a.44.44,0,0,1,.48-.41.56.56,0,0,1,.45.24,5.47,5.47,0,0,1,.57,1,.8.8,0,0,1,0,.23.49.49,0,0,1-.51.49.47.47,0,0,1-.47-.33,5.64,5.64,0,0,0-.46-1A.56.56,0,0,1,224.08,5.45Z"/><path class="cls-1" d="M233.46,4.37a.57.57,0,0,1,.6-.53.56.56,0,0,1,.6.6c-.16,2.12-.3,4.94-.3,7.31,0,2.16.66,2.85,1.94,2.85a5.48,5.48,0,0,0,4.27-2.36.71.71,0,0,1,.53-.27.56.56,0,0,1,.57.54.77.77,0,0,1-.21.51,6.61,6.61,0,0,1-5.12,2.75c-2.13,0-3.18-1.08-3.18-4C233.16,9.36,233.28,6.54,233.46,4.37Z"/><path class="cls-1" d="M250.68,4.53v.93c1.28,0,2.54,0,3.65,0a.56.56,0,0,1,.58.54.51.51,0,0,1-.58.51c-1.08,0-2.34,0-3.63,0,0,.72,0,1.42.07,2.14,1.07-.06,2.1-.16,3-.28a.55.55,0,0,1,.68.52.54.54,0,0,1-.5.53c-1,.13-2,.22-3.15.28,0,.83.11,1.64.18,2.45a11.23,11.23,0,0,1,3.83,1.68.76.76,0,0,1,.36.61.55.55,0,0,1-.54.57.73.73,0,0,1-.44-.15,11.14,11.14,0,0,0-3.13-1.59c0,.12,0,.24,0,.38,0,1.42-1.27,2.2-2.8,2.2-1.91,0-2.82-.79-2.82-2s1.12-2,3-2a10.52,10.52,0,0,1,1.48.1c-.07-.73-.12-1.47-.16-2.2h-1.16a15.87,15.87,0,0,1-2.17-.12c-.38-.06-.56-.3-.56-.54a.55.55,0,0,1,.66-.51,18.65,18.65,0,0,0,2,.12h1.14c-.05-.72-.06-1.44-.08-2.16-1.33,0-2.64.07-3.75.12a.54.54,0,0,1-.6-.53.55.55,0,0,1,.57-.54c1.11-.06,2.42-.1,3.75-.13V3.74a.54.54,0,0,1,1.08,0ZM250,13.44a3,3,0,0,0,0-.42,8.65,8.65,0,0,0-1.54-.13c-1.22,0-1.8.43-1.8,1s.36.9,1.65.9C249.29,14.79,250,14.36,250,13.44Z"/><path class="cls-1" d="M265.25,12.56a1.54,1.54,0,0,1-1.24.57,2.3,2.3,0,0,1-2.26-2.55,2.11,2.11,0,0,1,2-2.24,2.59,2.59,0,0,1,1.09.23c0-.59,0-1.16,0-1.73-2.14.08-4.29.2-6,.33a.55.55,0,0,1-.64-.55.56.56,0,0,1,.57-.56c1.68-.12,3.85-.22,6-.31,0-.59,0-1.28,0-2.07a.55.55,0,0,1,.57-.56.52.52,0,0,1,.54.54V5.72c1.68-.06,3.3-.09,4.63-.09a.52.52,0,0,1,.59.51.56.56,0,0,1-.6.55c-1.32,0-2.93,0-4.6.11,0,.93,0,1.86.1,2.79a3.47,3.47,0,0,1,.46,1.83,5.16,5.16,0,0,1-2.93,4.9.72.72,0,0,1-.33.08.56.56,0,0,1-.58-.56.62.62,0,0,1,.44-.58,3.85,3.85,0,0,0,2.22-2.69Zm-2.43-2a1.38,1.38,0,0,0,1.31,1.53,1.13,1.13,0,0,0,1.1-1.26,1.38,1.38,0,0,0-1.36-1.53A1.14,1.14,0,0,0,262.82,10.61Z"/><path class="cls-1" d="M278.09,14.46a1,1,0,1,1-1-1A1,1,0,0,1,278.09,14.46Zm-1.83-9.63a.82.82,0,0,1,.85-.79.8.8,0,0,1,.83.79V5c-.15,2.37-.26,4.56-.32,7a.53.53,0,0,1-1.05,0c-.06-2.45-.16-4.64-.31-7Z"/></g></g></svg>