<svg xmlns="http://www.w3.org/2000/svg" viewBox="0 0 84.47 91.83"><defs><style>.cls-1{fill:#474342;}.cls-1,.cls-2,.cls-4,.cls-5{stroke:#474342;stroke-linecap:round;stroke-linejoin:round;}.cls-1,.cls-5{stroke-width:1.4px;}.cls-2,.cls-3,.cls-5{fill:#fff;}.cls-2,.cls-4{stroke-width:0.35px;}.cls-4{fill:none;}</style></defs><g id="レイヤー_2" data-name="レイヤー 2"><g id="object"><path class="cls-1" d="M45.59,43.13H30.66c-.89-1.68-2.62-4.31-5-5.06a2.42,2.42,0,0,0,1-2,2.39,2.39,0,0,0-1.46-2.28v-.71a2.39,2.39,0,0,0,1.46-2.28h0a2.4,2.4,0,0,0-1.41-2.26l-.09,0v-.71a2.51,2.51,0,0,0,.2-4.46,10.48,10.48,0,0,0,4.18-1.53,10.68,10.68,0,0,0,1.23-.89A10.64,10.64,0,1,0,17.32,4.39a10.63,10.63,0,0,0,5.74,19,2.41,2.41,0,0,0-1.13,2.1,2.37,2.37,0,0,0,1.64,2.34v.61a1.52,1.52,0,0,0-.2.06A2.4,2.4,0,0,0,22,30.77h0a2.38,2.38,0,0,0,1.65,2.34v.59A2.38,2.38,0,0,0,22,36a2.46,2.46,0,0,0,1,2c-2.85.73-4.82,3.34-5.83,5.07H3.77A3.07,3.07,0,0,0,.7,46.19V88.06a3.08,3.08,0,0,0,3.07,3.07H45.59a3.07,3.07,0,0,0,3.07-3.07V46.19A3.06,3.06,0,0,0,45.59,43.13ZM25.14,31.71a1,1,0,0,0-.61-.86,1.11,1.11,0,0,0,.6-1,1.72,1.72,0,0,1,.28.95A1.68,1.68,0,0,1,25.14,31.71Zm-1.57-2v0a1.13,1.13,0,0,0,.64,1.16A.76.76,0,0,0,24,31a1.32,1.32,0,0,0-.37.92,1.72,1.72,0,0,1,0-2.23Zm0,5.22c0,.67.34,1.17.78,1.17s.69-.4.76-1a1.78,1.78,0,0,1,.24.62c0,.1,0,.2,0,.3a1.6,1.6,0,0,1-.52,1.22.62.62,0,0,0-.5-.28.69.69,0,0,0-.57.36,1.51,1.51,0,0,1-.64-1.3c0-.1,0-.2,0-.3A1.55,1.55,0,0,1,23.61,34.9Zm.19,6.91a.69.69,0,0,0,.59.41.56.56,0,0,0,.36-.14,4.53,4.53,0,0,1,.83,1.05H22.19A3.08,3.08,0,0,1,23.8,41.81ZM23.85,4a8.73,8.73,0,0,1,8.79,8.79,8.7,8.7,0,0,1,0,.89,8.8,8.8,0,0,1-1.75,4.41,8.66,8.66,0,0,1-5.75,3.05c-.09-.5-.38-.84-.75-.84h0c-.37,0-.66.35-.75.86A8.67,8.67,0,0,1,20.48,4.67,8.81,8.81,0,0,1,23.85,4Zm-.68,21.21a1.54,1.54,0,0,1,.4-.84c0,.67.34,1.16.78,1.16h0c.39,0,.7-.39.77-.94a1.59,1.59,0,0,1,.23.62,1.43,1.43,0,0,1,0,.29,1.68,1.68,0,0,1-.29,1c-.09-.48-.38-.82-.74-.82h0c-.4,0-.71.42-.77,1a1.66,1.66,0,0,1-.43-1.15A1.42,1.42,0,0,1,23.17,25.21Z"/><path class="cls-1" d="M80.7,43.13H77.56V40.6a2.8,2.8,0,0,0,.19-1,2.54,2.54,0,0,0-.68-1.77,2.19,2.19,0,0,0-.91-.58v-.87a2.27,2.27,0,0,0,.91-.57,2.66,2.66,0,0,0,0-3.61,2.18,2.18,0,0,0-.86-.53V31a2.54,2.54,0,0,0,0-4.71v-.68a2.26,2.26,0,0,0,.56-.28,2.49,2.49,0,0,0,1-2.08A2.46,2.46,0,0,0,76.52,21V1A.27.27,0,0,0,76.25.7H74.49a.26.26,0,0,0-.26.26V21A2.45,2.45,0,0,0,73,23.22h0a2.63,2.63,0,0,0,.35,1.33,2.33,2.33,0,0,0,1.24,1v.68l-.15,0A2.45,2.45,0,0,0,73,28.62h0A2.41,2.41,0,0,0,74.58,31v.68a2.54,2.54,0,0,0,0,4.71v.87A2.42,2.42,0,0,0,73,39.58a2.66,2.66,0,0,0,.32,1.27v2.28h-2.9a3.07,3.07,0,0,0-3.07,3.06V88.06a3.08,3.08,0,0,0,3.07,3.07H80.7a3.08,3.08,0,0,0,3.07-3.07V46.19A3.07,3.07,0,0,0,80.7,43.13ZM76.52,23.22a1.74,1.74,0,0,1-.37,1.09c-.08-.55-.39-.94-.78-.94s-.7.39-.77.94a1.69,1.69,0,0,1-.38-1.09,1.76,1.76,0,0,1,0-.33.29.29,0,0,0,.24.15h1.76a.27.27,0,0,0,.24-.15A1.69,1.69,0,0,1,76.52,23.22Zm-2.3,5.4a1.71,1.71,0,0,1,.36-1.08,1.14,1.14,0,0,0,.65,1.16,1.05,1.05,0,0,0-.64,1A1.66,1.66,0,0,1,74.22,28.62Zm1.93,1.08a1.05,1.05,0,0,0-.64-1c.38-.09.64-.56.65-1.16a1.71,1.71,0,0,1,.36,1.08A1.66,1.66,0,0,1,76.15,29.7Zm-1.58,5.38a1.37,1.37,0,0,1-.13-.2s0,0,0,0a1.19,1.19,0,0,1-.08-.2l0-.06a1.16,1.16,0,0,1,0-.18,1.75,1.75,0,0,1,0-.4,1.71,1.71,0,0,1,.36-1.08,1.4,1.4,0,0,0,.34.9.62.62,0,0,0,.45.2c.43,0,.75-.47.79-1.1A1.71,1.71,0,0,1,76.52,34a1.59,1.59,0,0,1-.6,1.3.66.66,0,0,0-.55-.33.62.62,0,0,0-.45.2.64.64,0,0,0-.1.13h0l-.07,0-.13-.14S74.59,35.09,74.57,35.08Z"/><path class="cls-2" d="M30.69,44.82S28.05,38.19,24,38.58C19.46,39,17,45,17,45l3.76-.52s1.13-3.12,3.16-3.35c1.85-.2,3.05,3.28,3.05,3.28Z"/><path class="cls-2" d="M24.2,2.12A10.39,10.39,0,1,0,34.59,12.51,10.39,10.39,0,0,0,24.2,2.12m0,19.33a8.95,8.95,0,1,1,9-8.94,9,9,0,0,1-8.95,8.94"/><path class="cls-2" d="M24.2,2.12A10.39,10.39,0,1,0,34.59,12.51,10.39,10.39,0,0,0,24.2,2.12Zm0,19.33a8.95,8.95,0,1,1,9-8.94A9,9,0,0,1,24.2,21.45Z"/><path class="cls-3" d="M14.8,12.79a9.05,9.05,0,1,1,9.05,9.05,9.06,9.06,0,0,1-9-9m-1.34,0A10.39,10.39,0,1,0,23.85,2.4,10.39,10.39,0,0,0,13.46,12.79"/><path class="cls-4" d="M14.8,12.79a9.05,9.05,0,1,1,9.05,9.05,9.06,9.06,0,0,1-9-9m-1.34,0A10.39,10.39,0,1,0,23.85,2.4,10.39,10.39,0,0,0,13.46,12.79"/><path class="cls-2" d="M23.85,2.4A10.39,10.39,0,1,0,34.24,12.79,10.39,10.39,0,0,0,23.85,2.4Zm0,19.44a9.06,9.06,0,1,1,9-9A9.06,9.06,0,0,1,23.85,21.84Z"/><path class="cls-3" d="M22.92,30.77a1.57,1.57,0,0,1,1.37-1.71,1.57,1.57,0,0,1,1.38,1.71,1.57,1.57,0,0,1-1.38,1.72,1.57,1.57,0,0,1-1.37-1.72m-.69,0a2.07,2.07,0,1,0,2.06-2.18,2.08,2.08,0,0,0-2.06,2.18"/><path class="cls-4" d="M22.92,30.77a1.57,1.57,0,0,1,1.37-1.71,1.57,1.57,0,0,1,1.38,1.71,1.57,1.57,0,0,1-1.38,1.72,1.57,1.57,0,0,1-1.37-1.72m-.69,0a2.07,2.07,0,1,0,2.06-2.18,2.08,2.08,0,0,0-2.06,2.18"/><path class="cls-2" d="M24.29,28.59a2.19,2.19,0,1,0,2.07,2.18A2.08,2.08,0,0,0,24.29,28.59Zm0,3.9a1.57,1.57,0,0,1-1.37-1.72,1.57,1.57,0,0,1,1.37-1.71,1.57,1.57,0,0,1,1.38,1.71A1.57,1.57,0,0,1,24.29,32.49Z"/><path class="cls-3" d="M22.92,36a1.57,1.57,0,0,1,1.37-1.72,1.76,1.76,0,0,1,0,3.43A1.57,1.57,0,0,1,22.92,36m-.69,0a2.07,2.07,0,1,0,2.06-2.19A2.08,2.08,0,0,0,22.23,36"/><path class="cls-4" d="M22.92,36a1.57,1.57,0,0,1,1.37-1.72,1.76,1.76,0,0,1,0,3.43A1.57,1.57,0,0,1,22.92,36m-.69,0a2.07,2.07,0,1,0,2.06-2.19A2.08,2.08,0,0,0,22.23,36"/><path class="cls-2" d="M24.29,33.85A2.19,2.19,0,1,0,26.36,36,2.08,2.08,0,0,0,24.29,33.85Zm0,3.9a1.76,1.76,0,0,1,0-3.43,1.76,1.76,0,0,1,0,3.43Z"/><path class="cls-3" d="M23.87,32v2.87c0,.51.23.92.52.92s.51-.41.51-.92V32c0-.51-.23-.92-.51-.92s-.52.41-.52.92"/><path class="cls-4" d="M23.87,32v2.87c0,.51.23.92.52.92s.51-.41.51-.92V32c0-.51-.23-.92-.51-.92s-.52.41-.52.92"/><path class="cls-2" d="M24.9,34.88c0,.51-.23.92-.51.92s-.52-.41-.52-.92V32c0-.51.23-.92.52-.92s.51.41.51.92Z"/><path class="cls-2" d="M24.9,41c0,.51-.23.92-.51.92s-.52-.41-.52-.92V38.16c0-.51.23-.92.52-.92s.51.41.51.92Z"/><path class="cls-3" d="M22.88,25.51a1.58,1.58,0,0,1,1.38-1.72,1.58,1.58,0,0,1,1.38,1.72,1.58,1.58,0,0,1-1.38,1.71,1.58,1.58,0,0,1-1.38-1.71m-.69,0a2.07,2.07,0,1,0,2.07-2.19,2.08,2.08,0,0,0-2.07,2.19"/><path class="cls-4" d="M22.88,25.51a1.58,1.58,0,0,1,1.38-1.72,1.58,1.58,0,0,1,1.38,1.72,1.58,1.58,0,0,1-1.38,1.71,1.58,1.58,0,0,1-1.38-1.71m-.69,0a2.07,2.07,0,1,0,2.07-2.19,2.08,2.08,0,0,0-2.07,2.19"/><path class="cls-2" d="M24.26,23.32a2.19,2.19,0,1,0,2.07,2.18A2.08,2.08,0,0,0,24.26,23.32Zm0,3.9a1.58,1.58,0,0,1-1.38-1.72,1.58,1.58,0,0,1,1.38-1.71,1.58,1.58,0,0,1,1.38,1.71A1.58,1.58,0,0,1,24.26,27.22Z"/><path class="cls-3" d="M23.84,21.48v2.87c0,.51.23.92.51.92s.52-.41.52-.92V21.48c0-.51-.23-.92-.52-.92s-.51.41-.51.92"/><path class="cls-4" d="M23.84,21.48v2.87c0,.51.23.92.51.92s.52-.41.52-.92V21.48c0-.51-.23-.92-.52-.92s-.51.41-.51.92"/><path class="cls-2" d="M24.87,24.35c0,.51-.23.92-.52.92s-.51-.41-.51-.92V21.48c0-.51.23-.92.51-.92s.52.41.52.92Z"/><path class="cls-3" d="M23.84,26.83V29.7c0,.5.23.92.51.92s.52-.42.52-.92V26.83c0-.51-.23-.92-.52-.92s-.51.41-.51.92"/><path class="cls-4" d="M23.84,26.83V29.7c0,.5.23.92.51.92s.52-.42.52-.92V26.83c0-.51-.23-.92-.52-.92s-.51.41-.51.92"/><path class="cls-2" d="M24.87,29.7c0,.5-.23.92-.52.92s-.51-.42-.51-.92V26.83c0-.51.23-.92.51-.92s.52.41.52.92Z"/><rect class="cls-5" x="1.38" y="43.85" width="46.6" height="46.56" rx="2.37" transform="translate(91.81 42.45) rotate(90)"/><path class="cls-3" d="M74,28.62a1.44,1.44,0,1,1,2.82,0,1.44,1.44,0,1,1-2.82,0m-.71,0a2.12,2.12,0,1,0,2.12-2.24,2.13,2.13,0,0,0-2.12,2.24"/><path class="cls-4" d="M74,28.62a1.44,1.44,0,1,1,2.82,0,1.44,1.44,0,1,1-2.82,0m-.71,0a2.12,2.12,0,1,0,2.12-2.24,2.13,2.13,0,0,0-2.12,2.24"/><path class="cls-2" d="M75.37,26.38a2.24,2.24,0,1,0,2.12,2.24A2.13,2.13,0,0,0,75.37,26.38Zm0,4A1.6,1.6,0,0,1,74,28.62a1.44,1.44,0,1,1,2.82,0A1.6,1.6,0,0,1,75.37,30.37Z"/><path class="cls-3" d="M74,34a1.44,1.44,0,1,1,1.41,1.75A1.61,1.61,0,0,1,74,34m-.71,0a2.12,2.12,0,1,0,2.12-2.24A2.13,2.13,0,0,0,73.25,34"/><path class="cls-4" d="M74,34a1.44,1.44,0,1,1,1.41,1.75A1.61,1.61,0,0,1,74,34m-.71,0a2.12,2.12,0,1,0,2.12-2.24A2.13,2.13,0,0,0,73.25,34"/><path class="cls-2" d="M75.37,31.77A2.24,2.24,0,1,0,77.49,34,2.13,2.13,0,0,0,75.37,31.77Zm0,4A1.8,1.8,0,1,1,76.78,34,1.6,1.6,0,0,1,75.37,35.76Z"/><path class="cls-2" d="M75.37,37.35a2.24,2.24,0,1,0,2.12,2.23A2.13,2.13,0,0,0,75.37,37.35Zm0,4a1.8,1.8,0,1,1,1.41-1.76A1.61,1.61,0,0,1,75.37,41.34Z"/><path class="cls-3" d="M74.84,29.89v2.93c0,.53.24,1,.53,1s.53-.42.53-1V29.89c0-.53-.24-.95-.53-.95s-.53.42-.53.95"/><path class="cls-4" d="M74.84,29.89v2.93c0,.53.24,1,.53,1s.53-.42.53-1V29.89c0-.53-.24-.95-.53-.95s-.53.42-.53.95"/><path class="cls-2" d="M75.9,32.82c0,.52-.24,1-.53,1s-.53-.43-.53-1V29.89c0-.53.24-.95.53-.95s.53.42.53.95Z"/><path class="cls-3" d="M74.84,36.19v2.93c0,.52.24,1,.53,1s.53-.43.53-1V36.19c0-.53-.24-.95-.53-.95s-.53.42-.53.95"/><path class="cls-4" d="M74.84,36.19v2.93c0,.52.24,1,.53,1s.53-.43.53-1V36.19c0-.53-.24-.95-.53-.95s-.53.42-.53.95"/><path class="cls-2" d="M75.9,39.12c0,.52-.24,1-.53,1s-.53-.43-.53-1V36.19c0-.53.24-.95.53-.95s.53.42.53.95Z"/><path class="cls-3" d="M74,23.22a1.44,1.44,0,1,1,2.82,0,1.44,1.44,0,1,1-2.82,0m-.71,0A2.12,2.12,0,1,0,75.37,21a2.13,2.13,0,0,0-2.12,2.24"/><path class="cls-4" d="M74,23.22a1.44,1.44,0,1,1,2.82,0,1.44,1.44,0,1,1-2.82,0m-.71,0A2.12,2.12,0,1,0,75.37,21a2.13,2.13,0,0,0-2.12,2.24"/><path class="cls-2" d="M75.37,21a2.24,2.24,0,1,0,2.12,2.24A2.13,2.13,0,0,0,75.37,21Zm0,4A1.6,1.6,0,0,1,74,23.22a1.44,1.44,0,1,1,2.82,0A1.6,1.6,0,0,1,75.37,25Z"/><path class="cls-3" d="M74.84,24.57v2.94c0,.52.24.95.53.95s.53-.43.53-.95V24.57c0-.52-.24-.94-.53-.94s-.53.42-.53.94"/><path class="cls-4" d="M74.84,24.57v2.94c0,.52.24.95.53.95s.53-.43.53-.95V24.57c0-.52-.24-.94-.53-.94s-.53.42-.53.94"/><path class="cls-2" d="M75.9,27.51c0,.52-.24.95-.53.95s-.53-.43-.53-.95V24.57c0-.52.24-.94.53-.94s.53.42.53.94Z"/><rect class="cls-2" x="74.49" y="0.96" width="1.76" height="21.81"/><path class="cls-2" d="M74,44.1V40.31a1.43,1.43,0,1,1,2.85,0V44.1"/><rect class="cls-5" x="52.25" y="59.62" width="46.6" height="15.02" rx="2.37" transform="translate(142.68 -8.43) rotate(90)"/></g></g></svg>