<svg xmlns="http://www.w3.org/2000/svg" viewBox="0 0 71.09 85.66"><defs><style>.cls-1{fill:#474342;}.cls-1,.cls-2,.cls-3,.cls-4{stroke:#474342;stroke-linecap:round;stroke-linejoin:round;}.cls-1,.cls-2{stroke-width:1.4px;}.cls-2,.cls-3{fill:#fff;}.cls-3{stroke-width:0.7px;}.cls-4{fill:none;stroke-width:2.1px;}</style></defs><g id="レイヤー_2" data-name="レイヤー 2"><g id="object"><path class="cls-1" d="M70.39,9.49a1.8,1.8,0,0,0-.53-1.31L63.07,1.26A1.83,1.83,0,0,0,61.77.7a1.91,1.91,0,0,0-1.31.53L35.84,25.37h0l-.26.25a.83.83,0,0,0-.18.3l-2.06,6.94-.88,2.94h0a1.83,1.83,0,0,0,.46,1.82,1.81,1.81,0,0,0,1.31.55,2.2,2.2,0,0,0,.5-.06l3-.82,7-1.93a.69.69,0,0,0,.3-.17l.2-.19h0L69.84,10.8A1.84,1.84,0,0,0,70.39,9.49Z"/><line class="cls-2" x1="37.5" y1="26.95" x2="43.51" y2="33.08"/><path class="cls-1" d="M33.14,36a1.14,1.14,0,0,0,1.4,1.43l3-.82L34,33.06Z"/><polygon class="cls-2" points="36.08 26.12 36.08 26.12 34.01 33.06 37.5 36.61 44.47 34.69 44.66 34.5 36.33 25.87 36.08 26.12"/><path class="cls-2" d="M69.36,8.67,62.57,1.75a1.14,1.14,0,0,0-1.62,0L36.33,25.87l8.34,8.63L69.35,10.3A1.15,1.15,0,0,0,69.36,8.67Z"/><line class="cls-3" x1="62.52" y1="5.35" x2="41.46" y2="26"/><line class="cls-3" x1="65.76" y1="8.65" x2="44.69" y2="29.3"/><path class="cls-4" d="M30.5,40.8c-2.8,2.54-7.88,5.65-16.45,3.86C1.09,42-3,54.2,5.54,59.72,13,64.53,35.45,68.15,51.26,62c13.4-5.25,20.3,10.47,6.57,17.75-6.43,3.41-14.93,4.55-22.19,4.91"/></g></g></svg>