<svg xmlns="http://www.w3.org/2000/svg" viewBox="0 0 91.36 85.81"><defs><style>.cls-1{fill:#474342;}.cls-1,.cls-2,.cls-3{stroke:#474342;stroke-linecap:round;stroke-linejoin:round;}.cls-1,.cls-2{stroke-width:1.4px;}.cls-2,.cls-3{fill:#fff;}.cls-3{stroke-width:0.7px;}</style></defs><g id="レイヤー_2" data-name="レイヤー 2"><g id="object"><path class="cls-1" d="M90.43,9.79l-3-2.69,0-5.4a.7.7,0,0,0-.37-.62.67.67,0,0,0-.72,0l-1.64,1.1L83.16,1.09a.69.69,0,0,0-.79,0L80.73,2.2,79.1,1.06a.71.71,0,0,0-.8,0L76.66,2.17,75,1a.71.71,0,0,0-.8,0L72.6,2.14,71,1a.69.69,0,0,0-.79,0L68.53,2.11,66.9,1a.69.69,0,0,0-.79,0L64.47,2.08,62.84.94a.71.71,0,0,0-.79,0L60.41,2.05,58.78.91a.73.73,0,0,0-.8,0L56.34,2,54.71.88a.71.71,0,0,0-.79,0L52.27,2,50.64.85a.73.73,0,0,0-.8,0L48.22,1.94,46.8.85a.69.69,0,0,0-.74-.08.71.71,0,0,0-.39.64l0,5.33L42.36,9.62a.71.71,0,0,0-.25.53l-.2,24.08-9.1-1.39V16.27c0-3.27-9.6-4.46-16.06-4.46S.7,13,.7,16.27V45.41c0,2,3.49,3.18,7.68,3.84V59a.7.7,0,0,0,.61.69l1.15.16V79.11a.7.7,0,0,0,.6.69l34.71,5.3h.1a.59.59,0,0,0,.23,0l.07,0L46,85l20-14a.72.72,0,0,0,.29-.57v-6l0,0,1.64-1.12,1.62,1.15a.69.69,0,0,0,.8,0L72,63.27l1.63,1.15a.71.71,0,0,0,.8,0L76,63.3l1.63,1.15a.71.71,0,0,0,.8,0l1.64-1.12,1.63,1.15a.71.71,0,0,0,.8,0l1.62-1.1,1.42,1.1a.66.66,0,0,0,.43.15.69.69,0,0,0,.7-.66L87,58.5,90.17,54a.68.68,0,0,0,.12-.4l.37-43.3A.72.72,0,0,0,90.43,9.79Z"/><path class="cls-2" d="M1.4,16.27V45.41c0,2.07,6.88,3.75,15.35,3.75s15.36-1.68,15.36-3.75V16.27Z"/><ellipse class="cls-2" cx="16.75" cy="16.27" rx="15.35" ry="3.76"/><polygon class="cls-2" points="46.43 7.06 46.37 1.4 48.19 2.81 50.24 1.43 52.26 2.84 54.31 1.46 56.33 2.87 58.38 1.49 60.4 2.9 62.44 1.52 64.46 2.93 66.5 1.55 68.53 2.96 70.57 1.58 72.59 2.99 74.64 1.61 76.66 3.02 78.7 1.64 80.72 3.05 82.76 1.67 84.78 3.08 86.82 1.7 86.77 7.41 89.96 10.31 89.59 53.62 86.34 58.26 86.01 63.93 84.19 62.51 82.14 63.9 80.12 62.48 78.07 63.87 76.05 62.45 74 63.84 71.98 62.42 69.94 63.81 67.92 62.39 65.88 63.78 63.85 62.36 61.81 63.76 59.79 62.33 57.74 63.73 55.72 62.3 53.68 63.7 51.66 62.27 49.62 63.67 47.6 62.24 45.56 63.64 45.61 57.91 45.6 57.91 42.44 53.59 42.81 10.15 46.43 7.06"/><line class="cls-3" x1="82.92" y1="58.27" x2="47.6" y2="57.97"/><line class="cls-3" x1="83.36" y1="6.66" x2="48.54" y2="6.36"/><path class="cls-3" d="M76,31.62S73.57,42.55,63.76,47.49"/><polyline class="cls-2" points="85.48 57.05 82.78 53.68 83.15 11.12 86.02 8.17"/><line class="cls-3" x1="86.24" y1="54.95" x2="86.62" y2="10.9"/><polygon class="cls-2" points="45.55 84.41 10.84 79.11 10.84 52.37 45.55 57.67 45.55 84.41"/><polygon class="cls-2" points="65.54 70.36 45.55 84.41 45.55 57.67 65.54 46.24 65.54 70.36"/><polygon class="cls-2" points="47.06 51.92 9.08 46.62 31.3 33.32 67.1 38.78 47.06 51.92"/><polygon class="cls-2" points="46.99 64.28 9.08 58.98 9.08 46.62 46.99 51.92 46.99 64.28"/><polygon class="cls-2" points="67.1 49.91 46.99 64.28 46.99 51.92 67.1 38.78 67.1 49.91"/></g></g></svg>