<svg xmlns="http://www.w3.org/2000/svg" viewBox="0 0 102.46 80.55"><defs><style>.cls-1{fill:#474342;}.cls-1,.cls-2,.cls-3{stroke:#474342;stroke-linecap:round;stroke-linejoin:round;}.cls-1,.cls-2{stroke-width:1.4px;}.cls-2,.cls-3{fill:#fff;}.cls-3{stroke-width:0.7px;}</style></defs><g id="レイヤー_2" data-name="レイヤー 2"><g id="object"><path class="cls-1" d="M99.26,43.56H90.67V6.33A5.64,5.64,0,0,0,85,.7H6.33A5.64,5.64,0,0,0,.7,6.33V55.41A5.63,5.63,0,0,0,6.33,61H35L29.65,70.8a.79.79,0,0,0-.08.26,2.06,2.06,0,0,0,.53,1.59,3.45,3.45,0,0,0,2.58,1h26a3.41,3.41,0,0,0,2.57-1,2,2,0,0,0,.54-1.59.68.68,0,0,0-.07-.23L57,61h21.9V77.36a2.5,2.5,0,0,0,2.49,2.49H99.26a2.49,2.49,0,0,0,2.49-2.49V46.05A2.48,2.48,0,0,0,99.26,43.56Z"/><path class="cls-2" d="M30.27,71.14,44.6,44.86c.06-.55-4.2-1-3.66-1h9.72c.54,0-2.26.44-2.2,1L61.1,71.14c.11,1-1,1.82-2.41,1.82h-26C31.24,73,30.16,72.14,30.27,71.14Z"/><path class="cls-2" d="M90,6.33A4.93,4.93,0,0,0,85,1.4H6.33A4.93,4.93,0,0,0,1.4,6.33V50.59H90Z"/><path class="cls-2" d="M1.4,50.59v4.82a4.93,4.93,0,0,0,4.93,4.92H85A4.92,4.92,0,0,0,90,55.41V50.59Z"/><path class="cls-3" d="M85,5.49H6.33A1.24,1.24,0,0,0,5.1,6.73v38.6a1.23,1.23,0,0,0,1.23,1.23H85a1.23,1.23,0,0,0,1.23-1.23V6.73A1.24,1.24,0,0,0,85,5.49Z"/><rect class="cls-2" x="72.89" y="50.99" width="34.89" height="21.43" rx="1.79" transform="translate(152.04 -28.63) rotate(90)"/><circle class="cls-3" cx="90.34" cy="76.02" r="1.32"/><path class="cls-3" d="M98.1,47.23H82.57a.41.41,0,0,0-.41.41v25a.42.42,0,0,0,.41.41H98.1a.41.41,0,0,0,.41-.41v-25A.41.41,0,0,0,98.1,47.23Z"/></g></g></svg>