<svg xmlns="http://www.w3.org/2000/svg" viewBox="0 0 101.08 81.38"><defs><style>.cls-1{fill:#474342;}.cls-1,.cls-2{stroke:#474342;stroke-linecap:round;stroke-linejoin:round;stroke-width:1.4px;}.cls-2{fill:#fff;}</style></defs><g id="レイヤー_2" data-name="レイヤー 2"><g id="object"><path class="cls-1" d="M100.2,15.18a.69.69,0,0,0-.61-.73L67.74,10.83a.69.69,0,0,0-.78.7l.07,7.9-1.28.18a.69.69,0,0,0-.61.69V53.11H58.4V1.4a.7.7,0,0,0-.7-.7H7.8a.7.7,0,0,0-.7.7V58.81H1.4a.7.7,0,0,0-.7.7V74.57a.7.7,0,0,0,.7.7H23a.7.7,0,0,0,.7-.7V68.7h16V80a.7.7,0,0,0,.7.7H91.1a.7.7,0,0,0,.71-.7V60.58l8-1.5a.7.7,0,0,0,.58-.69V15.62A.74.74,0,0,0,100.2,15.18Z"/><polyline class="cls-2" points="99.51 15.15 67.66 11.52 67.74 19.94"/><polygon class="cls-2" points="99.67 58.39 65.84 64.74 65.84 20.3 99.67 15.62 99.67 58.39"/><rect class="cls-2" x="7.8" y="1.4" width="49.9" height="66.59"/><rect class="cls-2" x="40.35" y="53.81" width="50.75" height="26.17"/><path class="cls-2" d="M91.1,53.81s-1.65,4-2.68,5c-1.9,1.9-4.33,1.77-6.88,1.77H49.91c-2.54,0-5,.13-6.88-1.77-1-1-2.68-5-2.68-5Z"/><rect class="cls-2" x="1.4" y="59.51" width="21.56" height="15.06"/></g></g></svg>