<svg xmlns="http://www.w3.org/2000/svg" viewBox="0 0 927.47 194.08"><defs><style>.cls-1{fill:#fff;}.cls-2{fill:#f8c28c;}.cls-3{fill:#886c56;}.cls-4{fill:#4b3529;}.cls-5{fill:#5771b6;}.cls-6{fill:#e73670;}.cls-7{fill:#474342;}</style></defs><g id="レイヤー_2" data-name="レイヤー 2"><g id="text"><path class="cls-1" d="M832.07,58.61s-.74-2.71-4.18.49-2.46,6.4-5.91,7.14-4.43,0-6.65.49-5.66,2.22-5.9,4.43a7.18,7.18,0,0,0,2.21,6.4c2,1.73,7.19,4.21,7.66,4.82A14.51,14.51,0,0,0,822,84.21l4.43,13,9.6,11.82,13,7.14,6.39,2-.49,4.67L851,127.1l-1.24,1.43s1,9.09,3,8.84,23.63-2,23.63-2v-4.67h-5.66l-3.94-6.16.49-6.39,16.49-4.68,7.14-3.45,7.63-9.84,5.41,1.23s7.27-.24,7.7-.86a38.6,38.6,0,0,0,1.66-3.82l-1.73-6.89-2.84-2.44-26-62.54-17.73,1L843.89,48.52Z"/><path class="cls-2" d="M878.37,132.07c-9.26.75-19.52,1.25-22.77-.5s-7.51-.5-13.26,3.5-16.77,15.52-16.52,26.78-8.26,19.77,4,18.52,27.53-3.5,43.8-.5,22.27,3.51,30,1.25,9.76-15.51,4.51-23.77-13.52-22.53-21-24S878.37,132.07,878.37,132.07Z"/><path class="cls-3" d="M905.65,110.05c-.49,3-2.25,7.5,0,12.76s4.26,11.51,7.51,11.26,3.76,1.75,5.76,0,2.83-4.13,3.79-3.44,3.3-.67,4.63-2-8.67-13.34-13.43-17.84-6.9-5.87-7.33-4.32A28.1,28.1,0,0,0,905.65,110.05Z"/><path class="cls-3" d="M865,15.14c-8.34,1-17.52.63-22.32,5.84s-14,12.73-14.6,18.15-1.34,15.13-.25,17.47-7.47,5.26,5,3,18.56-1.67,25.66-11.47,9.59-13.56,11.68-14,7.92-3.75,9.59,1.46,1.25,19.19,10.43,29.2,13.77,9.81,15,15.44a33.24,33.24,0,0,1,1,8.55S910,93.06,914,86.22,929.25,72.29,924,58.32s-11-38.17-23.36-41.51-18.77-7.72-26.28-4.59S865,15.14,865,15.14Z"/><path class="cls-4" d="M880.67,12.59h-3a7.63,7.63,0,0,0-4.85,1.64,15.25,15.25,0,0,1-2.35,1.44c-.23.12-.63-.08-.95-.13.07-.25,0-.61.21-.74,2.56-2,5.31-3.68,8.67-3.81,5.72-.23,11.21.6,16,4.06,2.83,2.05,5.71,4.05,8.33,6.34,3.5,3.06,5.92,7,8.4,10.92a148.74,148.74,0,0,1,7.83,14.56,38.68,38.68,0,0,1,3.57,12.94c.45,4.14-.92,8-2.5,11.73a78.43,78.43,0,0,1-8.25,14.93c-.63.89-.93,1.44.1,2.49a9.54,9.54,0,0,1,2.49,7.1,5,5,0,0,1-2.68,4.52,9.37,9.37,0,0,1-3.63,1.23,38.57,38.57,0,0,1-6.08,0c-1.06-.07-2.25-.9-3.09-.59s-1.4,1.61-2.11,2.45c-1.55,1.82-3.1,3.65-4.69,5.44a16.66,16.66,0,0,1-7.12,4.59c-4.07,1.42-8.18,2.71-12.29,4-1,.32-2.18.3-3.26.52-1.66.35-2.18.93-2.14,2.6a8,8,0,0,0,.51,3,29.46,29.46,0,0,0,2.58,4.83,3,3,0,0,0,3.36,1.39c1.93-.64,3.61,0,5.36.5a24.13,24.13,0,0,1,12.31,8c3,3.62,6.24,7,9.33,10.57a37.84,37.84,0,0,1,7.44,14.63,72.84,72.84,0,0,1,2,12.19,1.42,1.42,0,0,1-.08.8c-.51.84.26,2.62-.87,2.56s-.48-1.64-.51-2.51c-.21-8.63-2.22-16.76-6.92-24a64.2,64.2,0,0,0-5.8-7c-2.24-2.57-4.58-5.05-6.83-7.62a21.06,21.06,0,0,0-11.32-6.49c-2.7-.62-5.64-.75-8.32.84a17.35,17.35,0,0,1-7.12,1.88c-5.32.6-9.67-1.38-13.75-4.41a3.6,3.6,0,0,1-.86-.67.83.83,0,0,1-.06-.76,1.21,1.21,0,0,1,.89-.42,2.22,2.22,0,0,1,1.18.62,14,14,0,0,0,10.58,4.36c3,0,5.89-.18,8.53-1.75,1.1-.65,1.16-.8.29-1.85a13.25,13.25,0,0,1-3.21-9.41c.06-1.32,0-1.33-1.41-1.32a1.31,1.31,0,0,0-.28,0,16.17,16.17,0,0,1-6.82,0c-1.12-.25-1.32.32-1.45,1.35a37.53,37.53,0,0,1-1.09,5.09,4.93,4.93,0,0,1-3.24,3.14c-.26.11-.64-.1-1-.16.09-.29.11-.76.3-.85,3.55-1.58,3.3-5,3.8-8,.13-.79-.32-1.12-1.08-1.27-1-.19-1.92-.6-2.9-.82-9.79-2.19-16.87-8.19-22.74-16a31.93,31.93,0,0,1-5.85-13.83,4.13,4.13,0,0,0-2.72-3.35,45.39,45.39,0,0,1-6.15-3.64,12.42,12.42,0,0,1-4.06-5.13,7.22,7.22,0,0,1-.31-4.88c.72-2.95,4.78-5.15,7.72-4.33a1.71,1.71,0,0,1,.67.47.55.55,0,0,1,.11.46c0,.15-.23.37-.35.37a7.53,7.53,0,0,1-1-.13,5.33,5.33,0,0,0-5.44,7.88,15.45,15.45,0,0,0,5.7,5.87c1,.57,1.93,1.08,2.92,1.58.65.33,1.34.59,2,.89-.07-.7-.19-1.4-.19-2.11,0-3,0-6.09,0-9.14a4.86,4.86,0,0,1,.54-2.11,2,2,0,0,1,1.22-.82c.42-.09,1,.18.54.8-1.06,1.32-1.07,2.86-1.16,4.42a51,51,0,0,0,2.47,17.37,33.12,33.12,0,0,0,10.42,15.37c3.05,2.65,6.18,5.26,10,6.79,6.48,2.59,13.16,4.07,20.19,3.46.18,0,.43,0,.54-.06.46-.46.87-1.31,1.34-1.34s.82,1,1.76.95a23.16,23.16,0,0,0,6.45-1.28c2.37-.75,4.7-1.57,7-2.35a19.89,19.89,0,0,0,9.42-6c2.59-3.11,5.38-6,7.42-9.6a36,36,0,0,0,4.37-11.5c.09-.5.24-1,.79-.82a1.48,1.48,0,0,1,.75,1,2.85,2.85,0,0,1-.31,1.3c-1.38,3.79-2.37,7.72-4.66,11.14-.7,1-.55,1.16.59,1.39a16.89,16.89,0,0,0,8.18.06c3.45-1,4.56-2.86,3.67-6.4a8.27,8.27,0,0,0-.27-1.35c-.7-1.6-1.3-3.31-3.51-3.42-.3,0-.66-.52-.81-.88-.06-.13.34-.53.6-.73.49-.37,1.18-.57,1.5-1a75,75,0,0,0,10.21-20.07,20,20,0,0,0,.2-9.78,41.48,41.48,0,0,0-4.12-11.61A125.27,125.27,0,0,0,906,27.15a44.22,44.22,0,0,0-15.63-12.86A18.6,18.6,0,0,0,880.67,12.59Z"/><path class="cls-4" d="M912,134a1.81,1.81,0,0,1-.23-.49,2.87,2.87,0,0,1,0-1,1,1,0,0,1,.72,0c.54.34,1,.77,1.55,1.14a2.47,2.47,0,0,0,3.69-.69,3.3,3.3,0,0,0,.35-1c.18-.74-.41-1.92.59-2.13.59-.12,1.47.6,2.07,1.11,1.42,1.21,2,1,3.29-.27a9.69,9.69,0,0,0,1.34-1.72,2.4,2.4,0,0,0-.36-3.22,118.32,118.32,0,0,0-10-10.29c-2.6-2.42-4.67-5.41-7-8.13a19.93,19.93,0,0,0-1.55-1.5l-.38-.23.44.17a8.08,8.08,0,0,1-.69,2,1.69,1.69,0,0,1-1.38.59,1.51,1.51,0,0,1-1.36-1.49,2.52,2.52,0,0,1,3.89-2.43,8,8,0,0,1,1.95,1.93,75.69,75.69,0,0,0,8.81,9.87c3.2,3.16,6.22,6.52,9.3,9.81a1.59,1.59,0,0,1,.45,1c0,2.12-2.36,5.29-4.37,5.88a2.55,2.55,0,0,1-2.59-.5c-.85-.8-1.09-.4-1.36.55a4.31,4.31,0,0,1-1.29,1.74,2.9,2.9,0,0,1-4,.58c-.65-.34-1.24-.78-1.85-1.18Zm-6.65-28c-.11-.3-.17-.45-.22-.61a9.45,9.45,0,0,0-.73.94c0,.07.13.28.2.42Z"/><path class="cls-4" d="M821.05,169.25a55.32,55.32,0,0,1,1.6-13.37,25.46,25.46,0,0,1,4.85-9.78c2.77-3.66,6.38-6.37,9.91-9.17,1.8-1.43,3.67-2.78,5.56-4.08a8,8,0,0,1,2.49-1.08c.51-.13,1.4-.37,1.5.6,0,.15-.85.36-1.27.59a25.83,25.83,0,0,0-3.55,2c-3.42,2.66-6.85,5.31-10.08,8.17a25.06,25.06,0,0,0-8.78,16.06,88.11,88.11,0,0,0-1,12.35c0,1.09.27,2.18.32,3.27,0,.29-.31.6-.48.9-.32-.23-.89-.43-.92-.7-.14-1.19-.13-2.39-.16-3.59C821,170.73,821.05,170,821.05,169.25Z"/><path class="cls-4" d="M879.16,33.89c-.18.2,0-.13.15-.12.32,0,.85.12.93.33a5.69,5.69,0,0,1,.22,1.61c.19,3,.3,6.07.55,9.09a31.23,31.23,0,0,0,2.48,8.69,70.11,70.11,0,0,0,9.72,17.24,38.33,38.33,0,0,0,4.53,4.83c.87.8,1.75,2,3.31,1.35.21-.09.71.2.88.45s.46.9.32,1.18a1.25,1.25,0,0,1-1.14.4,12.09,12.09,0,0,1-4.69-2.79A43.78,43.78,0,0,1,888.34,66a69.78,69.78,0,0,1-7.58-16.48,32.21,32.21,0,0,1-1.48-8.64C879.25,38.72,879.21,36.52,879.16,33.89Z"/><path class="cls-4" d="M835.4,75.91c0-.64,0-1.29,0-1.93-.09-2.06,1.11-3.24,2.81-4,2.11-1,4.29-.54,6.44-.09a2.33,2.33,0,0,1,1,.86.69.69,0,0,1,0,.69c-.11.14-.54.26-.65.16-1.55-1.23-3.36-.83-5.06-.73-2.16.13-3.2,1.44-3.29,3.64a14,14,0,0,0,1.28,7.22,15.94,15.94,0,0,0,1.77,2.44,2.76,2.76,0,0,0,2.69,1A16.88,16.88,0,0,0,851,81.87c1.8-1.4,1.41-3.41.93-5.09-.58-2-1.67-3.88-4-4.43-.3-.07-.49-.6-.73-.92.36-.18.79-.6,1.07-.52a5.68,5.68,0,0,1,1.92,1,9.77,9.77,0,0,1,3.57,6.93,4.93,4.93,0,0,1-2.48,4.62,23.1,23.1,0,0,1-9,3.24,4,4,0,0,1-2.51-.85c-2.66-1.86-3.79-4.63-4.23-7.73a16.28,16.28,0,0,1,0-2.21Z"/><path class="cls-4" d="M833.13,60.77c-1.2,0-2.4.06-3.59-.05-.25,0-.45-.62-.68-.95a2.72,2.72,0,0,1,.85-.24c5.89.26,11.44-.59,16.63-3.75s10.18-6.94,13.76-12.09c1.2-1.72,2.08-3.66,3.11-5.5.71-1.28,1.4-2.58,2.14-3.85a1.87,1.87,0,0,1,.79-.68.8.8,0,0,1,.72.18.75.75,0,0,1,0,.7C866,36,865,37.46,864.29,39a35.49,35.49,0,0,1-10.5,13.28,54.46,54.46,0,0,1-10,6.3A21.91,21.91,0,0,1,833.13,60.77Z"/><path class="cls-4" d="M878.67,89.76c-3.22.17-5.33-1.77-7.24-3.94-2.22-2.54-2.58-5.3-.54-8.56.44-.7.78-1.47,1.28-2.13a2.85,2.85,0,0,1,1.24-1,1.36,1.36,0,0,1,1.23.29c.39.53-.33.62-.57.93a17.25,17.25,0,0,0-2.88,4.27,4.36,4.36,0,0,0,1.16,5.06c.91.78,1.7,1.7,2.58,2.51a5.35,5.35,0,0,0,5.18,1.14,10.34,10.34,0,0,0,5.07-3.18c1.07-1.17.87-2.56.45-3.91-1-3.09-3.26-5-6-6.55-.23-.13-.59-.11-.76-.28s-.43-.69-.34-.82a1.18,1.18,0,0,1,.9-.45,3.2,3.2,0,0,1,1.25.53A14.81,14.81,0,0,1,886,78.89c1.78,3.28,1.87,6.53-1.71,8.9A10.4,10.4,0,0,1,878.67,89.76Z"/><path class="cls-4" d="M824.39,48.16a26.72,26.72,0,0,1,8.3-20.33c1.52-1.48,2.86-3.15,4.43-4.57a26.3,26.3,0,0,1,4.21-3,6.37,6.37,0,0,1,2.37-.44c.14,0,.3.17.46.26-.14.23-.27.46-.43.68a.5.5,0,0,1-.24.12c-2.52.42-4.28,2-5.92,3.81-2.33,2.49-4.73,4.92-6.89,7.55A23.05,23.05,0,0,0,826,43.8a28.52,28.52,0,0,0,.62,11.71,2.17,2.17,0,0,1,.05,1.1c-.07.28-.38.5-.58.75-.18-.17-.49-.31-.53-.51q-.63-3.65-1.18-7.31A10.58,10.58,0,0,1,824.39,48.16Z"/><path class="cls-4" d="M904.61,65.54c-.58.49-.79.81-1,.78a7.54,7.54,0,0,1-2.34-.53,19.53,19.53,0,0,1-6.56-6.19A49.62,49.62,0,0,1,888,46.41c-.41-1.2-1-2.35-1.4-3.55-.08-.23.13-.78.3-.82s.86,0,1,.24a15,15,0,0,1,.87,2.29,47.65,47.65,0,0,0,7.88,15.32c1.88,2.34,3.81,4.77,7.09,5.34A6.81,6.81,0,0,1,904.61,65.54Z"/><path class="cls-4" d="M912,134c.07,1.08-.34,1.64-1.46,1.25a3.93,3.93,0,0,1-1.63-.9c-3.72-4.31-6.61-9.1-7.29-14.83-.28-2.31.35-4.72.64-7.07a1,1,0,0,1,.76-.61c.23,0,.58.37.69.65s.36,1,.17,1.3c-1.59,2.28-.86,4.82-.63,7.17.29,3.13,2,5.88,3.59,8.55.76,1.24,1.8,2.31,2.68,3.48a2.59,2.59,0,0,0,2.43,1Z"/><path class="cls-4" d="M854.13,35.61c-.67.72-1.22,1.73-1.6,1.67-1.69-.27-2.38,1-3.36,1.84-2.49,2-4.9,4.17-7.38,6.23a10.9,10.9,0,0,1-2.06,1.38c-.56.28-1.24,1.3-1.83.33-.45-.74.54-1,1-1.31,1-.75,2.12-1.46,3.11-2.29,2.67-2.25,5.29-4.57,8-6.82a12.13,12.13,0,0,1,2.48-1.7C852.78,34.8,853.37,35.28,854.13,35.61Z"/><path class="cls-4" d="M851.08,96.13c.37.42.63.75.94,1.05,1.29,1.27,2.54,2.59,3.9,3.79a2.34,2.34,0,0,0,2.8.23c1.67-.92,3.78-1.35,4.24-3.69,0-.18.52-.48.59-.43.28.2.72.61.66.77a5.49,5.49,0,0,1-1.13,2.09,13.38,13.38,0,0,1-4.43,2.64,3.51,3.51,0,0,1-3.81-.63A52.73,52.73,0,0,1,851,98.07a2.35,2.35,0,0,1-.42-1.23C850.5,96.68,850.8,96.47,851.08,96.13Z"/><path class="cls-4" d="M868.24,77.46c.1.81-.56,1.27-1.37,1.14-1.15-.19-2.29-.49-3.44-.66-2.43-.36-4.88-.67-7.32-1a1.8,1.8,0,0,1-.79-.14,1,1,0,0,1-.33-.66c0-.1.21-.34.34-.36a8.18,8.18,0,0,1,1.64,0c3.37.34,6.73.69,10.08,1.1A3.61,3.61,0,0,1,868.24,77.46Z"/><path class="cls-4" d="M855.26,4c.23-1.15.42-2.32.72-3.45.06-.23.54-.35.82-.52a2.41,2.41,0,0,1,.36.69,3.6,3.6,0,0,1-.1,1.08A11.42,11.42,0,0,0,859,11.39c.33.45.43.91-.11,1.09a1.28,1.28,0,0,1-1.11-.43,13.82,13.82,0,0,1-2.27-6.67,12.52,12.52,0,0,1,0-1.37Z"/><path class="cls-4" d="M914.29,125.94l-.73.78c-.28-.29-.77-.54-.82-.86-.45-2.63-1.8-4.88-3-7.21a1.81,1.81,0,0,0-1-.77c-.74-.24-.81-.74-.5-1.25s1-.49,1.45-.14a2.81,2.81,0,0,1,.94,1c1.22,2.56,2.38,5.14,3.55,7.72A3.36,3.36,0,0,1,914.29,125.94Z"/><path class="cls-4" d="M846.43,77.67c.35.62-.07,1.37-1,1.73a2.41,2.41,0,0,1-2.69-1.72c-.16-1-.29-2,.69-2.74a1.83,1.83,0,0,1,2.45.35A8,8,0,0,1,846.43,77.67Z"/><path class="cls-4" d="M875.89,80.27a2.63,2.63,0,0,1,.22-1.3,2.25,2.25,0,0,1,1.52-.88c.83,0,2.16,1.69,2.26,2.55a2.25,2.25,0,0,1-2.29,2.25C876.49,82.88,875.87,82,875.89,80.27Zm2,.6v.31l.17-.12Z"/><path class="cls-4" d="M848.2,3.74c.11.17.5.58.43.67-2.18,3-.41,5.65.86,8.31a3.13,3.13,0,0,1,.38.72.82.82,0,0,1-.2.7c-.15.1-.63,0-.7-.08a20.05,20.05,0,0,1-2.26-4.32,15.22,15.22,0,0,1-.13-4.63C846.63,4.16,847.16,3.79,848.2,3.74Z"/><path class="cls-4" d="M909.08,127.14c.19-.08-.05.11-.29.1a.79.79,0,0,1-.63-.33c-.56-1.73-1.15-3.47-1.56-5.24a3.48,3.48,0,0,1,.46-1.81c.05-.15.46-.21.71-.21s.32.22.34.35C908.43,122.24,908.72,124.48,909.08,127.14Z"/><path class="cls-4" d="M857.77,90.93c-.07-.49-.17-1-.2-1.56a3.64,3.64,0,0,1,.16-.85c.4.12.95.12,1.17.39.7.89.52,3.44-.24,4.38a.61.61,0,0,1-.48.12c-.15,0-.39-.17-.39-.27C857.75,92.42,857.77,91.7,857.77,90.93Z"/><path class="cls-4" d="M905.33,106l-.75.75c-.07-.14-.24-.35-.2-.42a9.45,9.45,0,0,1,.73-.94C905.16,105.53,905.22,105.68,905.33,106Z"/><path class="cls-4" d="M906.5,105.69l-.44-.17.38.23Z"/><path class="cls-4" d="M877.9,80.87l.17.19-.17.12Z"/><path class="cls-1" d="M66.67,121.54a75.13,75.13,0,0,1-11,2.19,36.29,36.29,0,0,1-10.3.09c-.16,0-.56.37-.56.55A32,32,0,0,0,45,130c.67,3.42,0,7,1.24,10.35a.79.79,0,0,1-.93,1,5.88,5.88,0,0,0-3.68.87c-.23.12-.43.28-.65.42l.76.25c3.74,1.2,7.51,2.32,11.18,3.66,1.16.42,2.16,1.16,3.51,1,2.62-.37,5.24-.67,7.86-1.05,2.16-.31,4.32-.65,6.47-1.05,3.22-.61,5.91-2.56,8.86-3.85.43-.19,1.18-.29.92-1s-.34-1.46-1.26-1.54c-1.09-.09-2.18-.16-3.27-.22-.76,0-1.21-.35-1-1.17.57-2.94-.49-5.69-.57-8.56-.06-2.51-.35-5-.49-7.5-.08-1.44,0-1.44-1.75-1.53C70.36,120.53,68.49,121,66.67,121.54Z"/><path class="cls-1" d="M9.71,97.36a15.72,15.72,0,0,0,9.6,8.53c.21.07.51-.06.76-.1a2.16,2.16,0,0,0-.15-.45c-3.08-4.8-4.71-10.21-6.09-15.73A6.81,6.81,0,0,0,13,88.1c-.55.32-1.28.52-1.62,1a11.37,11.37,0,0,0-2.49,5A16.4,16.4,0,0,0,9.71,97.36Z"/><path class="cls-1" d="M97.19,73.83l.27,21.47L99.92,95l3.38-4.34.94-7.34L103.18,76a22.55,22.55,0,0,0-3.56-2C99.09,74,97.19,73.83,97.19,73.83Z"/><polygon class="cls-1" points="10.82 79.4 14.52 87.58 18.71 101.69 22.81 109.35 29.12 117.24 34.06 120.74 43.91 123.71 58.54 123.24 74.08 119.09 87.87 112.32 94.53 105.38 97.62 96.11 97.27 78.22 97.06 68.8 87.05 41.72 59.52 34.32 33.71 43.71 13.61 54.84 10.44 65.25 10.82 79.4"/><path class="cls-5" d="M78.93,140.17c-4.43,3.09-14.3,8.84-25.91,7.3s-8.15-6.45-17.3-5.76-21.93,6.29-25,8.43-6.4,9.92-6.07,19.27-5.1,19.54,4,23.44S44,190,57.68,191.78s50.38,1.41,56-.67,7-1.31,4-8.26-10.57-25.32-13.8-32-4-8.29-12-9.91S78.93,140.17,78.93,140.17Z"/><path class="cls-3" d="M41.73,9.29c6.33-2.06,14.88-3.83,17.29-3s-1.21,3.86,1.36,3.82S81,14.14,86.5,19.92s15.26,22,16.11,27.4-.66,16.21-2,20.85-5.35,3-6.42-1.54S91.21,51,86.34,49.9,75.28,48.9,68.49,47s-13.19-6-11.16-3.21,8.64,7.32,7.14,7.54-14.7,1.38-19.25-.7-4.36-2.95-4.34-.78,6.53,8.21,6.48,8.94-4.5,1.65-9.08-.56-9.51-4.62-10.17-2.87,3,9.28,1.8,10.44-7.58-2.92-9.49-3.94S17.1,65.44,15.71,70s-2.23,6-2.48,9.43,1,6.19-2.36,3S4.76,70.87,3,65.66s-3-2.07-3-5.74S1.17,33.42,8.75,27.7s7.82-7.39,7.59-10.24,7.19-2.69,7.8-4.4-2.7-3.74-1.2-4,2.3,1,8.38,1.53A23.48,23.48,0,0,0,41.73,9.29Z"/><path class="cls-6" d="M41.24,10.42l-.21.1a.43.43,0,0,0,0-.07Z"/><path class="cls-6" d="M41,10.52a1,1,0,0,1-.07.15c-.84.35-1.66.73-2.5,1.12Z"/><path class="cls-4" d="M82.45,141.73l-8,4.17a3,3,0,0,0-.52,0,2.18,2.18,0,0,0-.48.19,2.07,2.07,0,0,0,.64.12c.12,0,.22-.24.32-.36a18.11,18.11,0,0,0,7.39-3c.31-.2.39-.75.58-1.13l.58-.55c.66.21,1.28.52.68,1.31a7.37,7.37,0,0,1-1.94,1.92,28.83,28.83,0,0,1-4.24,2A45.64,45.64,0,0,1,62,149.84,89.08,89.08,0,0,1,49,149.28,56.44,56.44,0,0,1,36,146c-.65-.25-1.37-.33-2-.54a6.08,6.08,0,0,1-1-.51c.29-.34.53-.89.88-1a2.43,2.43,0,0,1,1.49.23,45.69,45.69,0,0,0,11.77,3.58,25.32,25.32,0,0,0,3.81.22,2.61,2.61,0,0,0,.75-.2,6.51,6.51,0,0,0-.72-.31c-2.28-.79-4.57-1.54-6.83-2.37-1.67-.61-3.34-1.26-5-2-.78-.37-.73-1.06,0-1.38,1.76-.76,3.54-1.47,5.31-2.2-.14-1.86-.3-3.72-.42-5.58,0-.54,0-1.09,0-1.63,0-2-.09-4,0-5.93a2.29,2.29,0,0,0-1.54-2.52c-.67-.24-1.4-.34-2.09-.53a31.12,31.12,0,0,1-4.09-1.22c-1.71-.75-3.32-1.71-5-2.61a14.74,14.74,0,0,1-4.31-3.84,43,43,0,0,1-4.26-6.38,3.52,3.52,0,0,0-2.46-1.78A17.09,17.09,0,0,1,8.8,98.47a8.69,8.69,0,0,1,3.82-11.65c.87-.47.79-.63.22-1.31s.31-2.13-.49-3c.3-.12.71-.42.86-.32a1.9,1.9,0,0,1,.85,1c.51,1.87,1,3.76,1.38,5.66.25,1.22.26,2.49.52,3.7A41.61,41.61,0,0,0,19,101a14.17,14.17,0,0,0,4.26,6c.18.14.47.36.45.53-.18,1.7,1.24,2.65,1.79,4,.4,1,1.48,1.71,2.19,2.6s1.07,2.07,1.93,2.65c4.4,3,8.88,5.92,14.75,5.59a33.83,33.83,0,0,1,4.61.24,19.36,19.36,0,0,0,3.18.36,81.11,81.11,0,0,0,8.66-1.15c3.66-.75,7.28-1.79,10.9-2.74a11.71,11.71,0,0,0,2.06-.8c4-1.9,8-3.81,12-5.74a8,8,0,0,0,3.94-3.36,5.19,5.19,0,0,1,1.51-1.59,10.23,10.23,0,0,0,3.88-6.48,5.75,5.75,0,0,1,.35-1.31C97.26,96,96.94,92,97,88c.06-2.78-.36-5.55-.27-8.33a21,21,0,0,0-.95-6.59c-.34-1.18-.78-2.17.42-3.22.31-.27.08-1.2.86-1.07.29,0,.53.65.66,1a7.12,7.12,0,0,1,.15,1.33,2.07,2.07,0,0,0,2,2.06c2.9.42,4.26,2.36,4.76,5a25.3,25.3,0,0,1,.49,4.51,19.21,19.21,0,0,1-2.75,10.43,5.38,5.38,0,0,1-3,2.35c-.68.21-1-.22-1-.84,3.34-1.4,4.5-4.24,4.9-7.41.37-3,.75-6,.09-8.88-.52-2.34-1.87-3.71-3.81-3.83C98.38,74.52,98,74.76,98,76c0,2.88.07,5.75.1,8.63s0,5.89.06,8.84a8.72,8.72,0,0,0,.24,1.32c-.14.1-.39.21-.39.31,0,2.76-1.17,5.34-2,7.88-1.62,4.67-5.25,8-9.38,10.54a93.83,93.83,0,0,1-10.18,5c-.88.41-1.33.85-1.27,1.82.11,1.88.1,3.77.26,5.64.29,3.28.65,6.57,1,9.84.09.78.34,1.5,1.42,1.64,2.14.27,4.23.77,6.37,1.05,1.34.17,2.73.05,4.09.14,5.52.35,10.66,1.66,14.86,5.3a13,13,0,0,1,3.88,4.66c1,2.36,2.06,4.7,2.86,7.14,1.9,5.74,3.85,11.44,6.93,16.66a62.3,62.3,0,0,1,3.51,7.15,27.19,27.19,0,0,1,1.23,4.61c0,.23-.3.57-.47.86a4.49,4.49,0,0,1-.69-.61,1.75,1.75,0,0,1-.28-.74c-.62-3.39-2.2-6.34-3.78-9.31-1.46-2.73-2.88-5.49-4.09-8.35s-2.27-6.15-3.41-9.23c-.79-2.15-1.59-4.31-2.45-6.45-1.78-4.4-5.58-6.68-9.57-8.73a5.11,5.11,0,0,0-1.5-.55c-2.57-.43-5.14-.86-7.72-1.22a20,20,0,0,0-3-.08,1.45,1.45,0,0,0-1.6,1.51Zm-19.72,6.14a4.13,4.13,0,0,0-.77.19,2,2,0,0,0,.71.25c1.43-.09,2.85-.17,4.27-.35a11.44,11.44,0,0,0,1.91-.61c.45,0,.9,0,1.34,0a2.21,2.21,0,0,0,.62-.26c-.16-.05-.34-.18-.48-.15-.49.12-1,.3-1.44.46C66.84,147.55,64.78,147.7,62.73,147.87Zm3.94-26.33a75.13,75.13,0,0,1-11,2.19,36.29,36.29,0,0,1-10.3.09c-.16,0-.56.37-.56.55A32,32,0,0,0,45,130c.67,3.42,0,7,1.24,10.35a.79.79,0,0,1-.93,1,5.88,5.88,0,0,0-3.68.87c-.23.12-.43.28-.65.42l.76.25c3.74,1.2,7.51,2.32,11.18,3.66,1.16.42,2.16,1.16,3.51,1,2.62-.37,5.24-.67,7.86-1.05,2.16-.31,4.32-.65,6.47-1.05,3.22-.61,5.91-2.56,8.86-3.85.43-.19,1.18-.29.92-1s-.34-1.46-1.26-1.54c-1.09-.09-2.18-.16-3.27-.22-.76,0-1.21-.35-1-1.17.57-2.94-.49-5.69-.57-8.56-.06-2.51-.35-5-.49-7.5-.08-1.44,0-1.44-1.75-1.53C70.36,120.53,68.49,121,66.67,121.54Zm-57-24.18a15.72,15.72,0,0,0,9.6,8.53c.21.07.51-.06.76-.1a2.16,2.16,0,0,0-.15-.45c-3.08-4.8-4.71-10.21-6.09-15.73A6.81,6.81,0,0,0,13,88.1c-.55.32-1.28.52-1.62,1a11.37,11.37,0,0,0-2.49,5A16.4,16.4,0,0,0,9.71,97.36Zm62.73,49.18-.58.12c.07.05.14.14.2.13a3.74,3.74,0,0,0,.45-.12S72.46,146.54,72.44,146.54Z"/><path class="cls-4" d="M42.37,49.91c1,.26,2.09.45,3.09.79a39.73,39.73,0,0,0,18,1.48C65,52,66.5,51.85,68,51.63a3.92,3.92,0,0,0,1.06-.57,5.76,5.76,0,0,0-.9-.82c-1.47-.84-3-1.56-4.42-2.48A41.29,41.29,0,0,1,60.24,45c-.11-.09-.12-.28-.18-.43.16,0,.36-.13.5-.08,1.86.62,3.73,1.22,5.56,1.92a48.39,48.39,0,0,0,13.64,2.9c2.26.17,4.37.95,6.76.12a2.66,2.66,0,0,1,3.19,1.42c1.18,2.08,2.41,4.12,3.61,6.19a10.93,10.93,0,0,0,.58,1.19c.17.21.55.27.83.39a2.68,2.68,0,0,0,.25-1,3.85,3.85,0,0,0-.48-1.24c-.92-1.72-1.84-3.43-2.8-5.13-1.78-3.15-3.44-3.49-6.76-2.91a5.41,5.41,0,0,1-3.14,0A6,6,0,0,0,79.94,48a40.87,40.87,0,0,1-12.09-2.43c-2.51-.92-5-1.92-7.46-2.88a6.59,6.59,0,0,0-1.5-.54,7,7,0,0,0-1.57.16,7.75,7.75,0,0,0,.43,1.39,14.83,14.83,0,0,0,5.68,5.46c.61.37,1.25.69,1.85,1.06.15.08.23.26.34.4a2.15,2.15,0,0,1-.6.24c-2.54.16-5.09.35-7.63.45-5,.2-9.63-1.18-14.19-2.78A8.3,8.3,0,0,0,42,48a1.62,1.62,0,0,0-1.17.15,1.16,1.16,0,0,0-.2,1.13c1,1.84,2.12,3.67,3.32,5.41a30.7,30.7,0,0,0,2.48,2.77,1.41,1.41,0,0,1,.19.47,1.78,1.78,0,0,1-.53.13,47,47,0,0,1-5-.82c-3.45-.91-6.85-2-10.27-3-.25-.08-.48-.25-.74-.31-1.07-.26-1.62.05-1.67,1.13A11.41,11.41,0,0,0,28.54,58c.5,2.25,1.12,4.48,1.67,6.72a2.48,2.48,0,0,1-.07.8,3.2,3.2,0,0,1-.9-.21c-2.34-1.44-4.61-3-7-4.35-2.79-1.58-2.88-1.51-3.57,1.67-.3,1.42-.33,2.88-.51,4.32-.14,1.06,0,2.2-1,3a.91.91,0,0,0,.23.82,1,1,0,0,0,.91-.17,8.31,8.31,0,0,0,.89-2.25c.38-2,.64-4.12.94-6.18.08-.61.3-.76.84-.42C23,63,25,64.21,26.92,65.4A24.73,24.73,0,0,0,29.69,67a1.16,1.16,0,0,0,1.71-1.12,9.48,9.48,0,0,0-.24-2.38c-.48-2.26-1-4.5-1.53-6.76a7.12,7.12,0,0,1,0-1.31c.39.08.8.13,1.18.24,3,.88,5.95,1.9,9,2.63,3.3.8,6.67,1.36,10,2a1.05,1.05,0,0,0,.87-.45c.11-.2-.08-.68-.29-.87-.85-.77-1.75-1.49-2.65-2.21a18.65,18.65,0,0,1-5.3-6.86l-.18-.35Z"/><path class="cls-4" d="M106.64,62.23c0-3,.18-6-.06-8.9a19.73,19.73,0,0,0-4-10.56A40.87,40.87,0,0,1,97,32.21C93.15,21.92,85.63,15.4,75.26,11.87c-1.77-.6-3.49-1.35-5.3-1.81A42.57,42.57,0,0,0,64.9,9.3c-.68-.09-.93-.14-.42-.92.77-1.18.51-2.08-.73-2.5-2-.68-4-1.5-6.3-1.09-1.42.26-2.91,0-4.36.21a23.43,23.43,0,0,0-9,3.22c-1.42.86-2.88,1.68-4.29,2.56a.76.76,0,0,0-.19.71.7.7,0,0,0,.65.26,20.08,20.08,0,0,0,3.19-1.66c5.62-4,11.78-4.44,18.13-3.66a5.69,5.69,0,0,1,1.25.46c.65.26.74.68.29,1.25-.23.29-.43.6-.64.91-.4.58-.3,1,.36,1.25a6.75,6.75,0,0,0,2.07.51c4.42-.12,8.24,1.68,12.18,3.09,6.28,2.25,11,6.49,15,11.48a20.4,20.4,0,0,1,2.5,4.36c.93,2,1.74,4.08,2.51,6.16a26.64,26.64,0,0,0,3.74,6.72A22.32,22.32,0,0,1,105.41,56a85.62,85.62,0,0,1-.61,10,34.69,34.69,0,0,1-.76,3.44.66.66,0,0,0,.38.56.72.72,0,0,0,.64-.29,9.83,9.83,0,0,0,.78-2.31c.25-1.71.36-3.43.53-5.15Z"/><path class="cls-4" d="M3.21,53.5A63.26,63.26,0,0,1,8.6,32.2a34.28,34.28,0,0,1,3.59-5.88c1.27-1.77,3.27-2.69,5.2-3.62.39-.2.95-.25,1.17-.56s.56-1.1.38-1.42c-.32-.6-.91-.22-1.38.13A8.49,8.49,0,0,1,16,22c-4.4,1.94-6.56,5.75-8.58,9.73s-2.92,8.23-4,12.44a56.21,56.21,0,0,0-2,13.42A13.7,13.7,0,0,0,1.48,60c.28,1.55.32,1.58,2.09,1.31.46-.07.64-.07.67.41.06,1.34.09,2.69.23,4a21.84,21.84,0,0,0,6.35,13.7,10.14,10.14,0,0,0,2,1.29c.09,0,.36-.09.45-.21s.18-.4.11-.49c-.68-.81-1.36-1.62-2.08-2.39A19.44,19.44,0,0,1,5.69,64.69c0-1.07-.14-2.14-.22-3.21-.1-1.39-.41-1.81-1.83-1.55-.93.17-.86-.21-.82-.73C2.93,57.3,3.08,55.4,3.21,53.5Z"/><path class="cls-4" d="M8.18,168.19c-.92,7.95.36,15.28,2.67,22.44.08.25.08.57.24.74a.91.91,0,0,0,.68.16c.11,0,.28-.28.28-.42a7.1,7.1,0,0,0-.15-1c-.82-4-1.75-8-2.41-12a33.24,33.24,0,0,1-.31-6.7,67.22,67.22,0,0,1,1.44-12.68c.3-1.32.74-2.61,1.07-3.93,1-4,4.14-5.67,7.64-6.85,4.26-1.42,8.58-2.65,12.85-4.08,2.34-.79,4.62-1.81,6.91-2.76.2-.08.3-.43.45-.66-.24-.11-.47-.31-.71-.31a2.48,2.48,0,0,0-1.06.24c-4.69,2.23-9.73,3.29-14.61,4.9-2.61.85-5.17,1.92-7.7,3a8.38,8.38,0,0,0-4.62,5.27,45.83,45.83,0,0,0-2.43,11.41C8.32,166.09,8.24,167.27,8.18,168.19Z"/><path class="cls-4" d="M70.15,68.54c-.68,0-1.61-.29-1.83,1.16-.07.48-1.12.8-1.58,1.32a1.38,1.38,0,0,0,0,1.09c1.16.27,2.05,1.51,3.51.82a3,3,0,0,1,1.34,0,92.71,92.71,0,0,1,10.55.75c.64.11,1-.19.91-.94a2.46,2.46,0,0,0-2.11-2.36c-2-.43-4-.86-6-1.22C73.37,68.9,71.84,68.76,70.15,68.54Z"/><path class="cls-4" d="M30.12,82.52c2.44-.69,4.9-1.36,7.33-2.11a3,3,0,0,0,1.26-.9c-.46-1,.94-1.37.88-2.22a5.06,5.06,0,0,1,.1-1.16c.1-.61-.29-.91-.76-.76-3.22,1-6.44,2.08-9.62,3.25-1.16.43-1.14.94-1,2.41C28.5,82.16,29.21,82.22,30.12,82.52Z"/><path class="cls-4" d="M23.42,8.56a13.42,13.42,0,0,0-1.9,0c-1.8.22-2.5,1.66-1.56,3.11.38.59.72,1.2,1.08,1.8-.7.21-1.41.38-2.11.62a3.94,3.94,0,0,0-2.55,2.36c-.21.54-.22,1.08.44,1.34.16.07.3.18.46.26l2,1.05c.26-1.18-.91-1.09-1.43-1.58s-.52-1,.18-1.55a4.93,4.93,0,0,1,3.11-.89A25.35,25.35,0,0,0,24.37,15a1.13,1.13,0,0,0,.78-.66c.05-.21-.27-.59-.53-.78-1.13-.83-2.31-1.6-3.42-2.45A.93.93,0,0,1,21,10.2a1.13,1.13,0,0,1,.9-.46c2.14.26,4.28.51,6.38.93,1.39.28,2.7.89,4.06,1.29a3.91,3.91,0,0,0,1.26-.09c-.24-.41-.38-1.06-.75-1.21A23.67,23.67,0,0,0,29,9.45c-1.83-.42-3.7-.7-5.54-1Z"/><path class="cls-4" d="M71,104.19c-.37.47-.72.72-.76,1a2.1,2.1,0,0,1-1.32,1.65c-3.42,1.69-6.95,3-10.77,2.79a18.8,18.8,0,0,1-2-.53,4.87,4.87,0,0,0-1.3.13,7.11,7.11,0,0,0,.4.89,3.12,3.12,0,0,0,3.73,1.45c3.09-.8,6.18-1.59,9.25-2.46,2.35-.66,3.32-1.74,3.49-3.74C71.68,105.05,71.29,104.72,71,104.19Z"/><path class="cls-4" d="M60.09,101.49c1.4-.29,2.82-.51,4.2-.9s1.9-1.65,2.38-2.84c.11-.26-.08-.69-.24-1a.78.78,0,0,0-.64-.31.79.79,0,0,0-.52.46c-1,2.82-1.43,3.17-4.18,3.24-2,0-3.85,0-4.77-2.07a.79.79,0,0,0-.69-.12c-.2.27-.45.72-.35.93.58,1.2,1.19,2.39,2.87,2.31.64,0,1.27,0,1.9,0Z"/><path class="cls-4" d="M33.18,92.32a14.3,14.3,0,0,0,2.91-.86c2.59-1.41,5.11-2.95,7.65-4.45a1.62,1.62,0,0,0,.59-.54c.1-.22.13-.66,0-.74a1,1,0,0,0-.88-.13C42.2,86.35,41,87.14,39.74,88A21.4,21.4,0,0,1,33,91c-.35.09-.63.47-.94.71Z"/><path class="cls-4" d="M72.54,81.59c-1,0-2-.08-3,0a2.68,2.68,0,0,0-1.27.37c-.25.16-.32.59-.47.89a1.8,1.8,0,0,0,.69.27c1.35-.07,2.71-.31,4-.25,2.06.11,4.11.43,6.17.62a8.71,8.71,0,0,0,1.91,0c.25,0,.49-.37.73-.57-.24-.2-.46-.55-.72-.58-2.69-.29-5.38-.52-8.07-.77Z"/><path class="cls-4" d="M96.45,64.16c-.21-1.2-.37-2.42-.67-3.59-.06-.23-.67-.3-1-.44a2.68,2.68,0,0,0-.23.87c.12,1.4.3,2.79.47,4.18a5.86,5.86,0,0,0,.28,1.24.52.52,0,0,0,.43.25.52.52,0,0,0,.33-.33c.08-.71.12-1.42.17-2.13Z"/><path class="cls-4" d="M41.28,27.4a3.2,3.2,0,0,0,.34.63c.93,1,1.86,2.06,2.82,3.06.14.15.45.14.69.2.1-.31.38-.78.26-.93-1-1.21-2-2.38-3.07-3.52-.09-.1-.47,0-.68.1S41.43,27.21,41.28,27.4Z"/><path class="cls-4" d="M13.77,76.06c0,.08.1.28.22.34a.6.6,0,0,0,.51,0c.84-.53,1.68-3.11,1.25-3.85a.77.77,0,0,0-.62-.35c-.21,0-.45.25-.6.44s-.06.35-.1.52C14.22,74.1,14,75.05,13.77,76.06Z"/><path class="cls-4" d="M99.69,63.38l.58.68c-.44.38-1.34.81-.24,1.25.74.3,1.35-.31,1.6-1.08.17-.53-.56-1.43-1.22-1.43C100.17,62.8,99.91,63.19,99.69,63.38Z"/><path class="cls-4" d="M39.23,30.36c.27-.47.59-.77.56-1s-.43-.44-.71-.5c-.12,0-.51.4-.48.55S38.93,29.93,39.23,30.36Z"/><path class="cls-4" d="M42.37,49.91l-.14-.39.18.35Z"/><polygon class="cls-4" points="46 124.79 46.15 124.86 46.13 124.7 46 124.79"/><path class="cls-7" d="M157.48,46.5A.45.45,0,0,1,157,46a.45.45,0,0,1,.45-.48h10.06A.44.44,0,0,1,168,46a.43.43,0,0,1-.45.47H163V54h5.45a.48.48,0,0,1,0,1H156.6a.48.48,0,0,1,0-1h5.31V46.5Z"/><path class="cls-7" d="M173.33,52.85a9.64,9.64,0,0,1-.87,3.39.54.54,0,0,1-.49.34.39.39,0,0,1-.41-.41.76.76,0,0,1,.07-.3c.61-1.23.89-2.73.89-5.51V48.3c0-.83.25-1.21,1.26-1.21h.89c1,0,1.28.38,1.28,1.21v7c0,.86-.46,1.21-1.3,1.21a3.91,3.91,0,0,1-.7,0,.46.46,0,1,1,.15-.9,3.11,3.11,0,0,0,.49.06c.27,0,.43-.1.43-.46v-2.3Zm6.27-8.69c0-.28.24-.4.48-.4a.41.41,0,0,1,.46.4v.77H184a.37.37,0,0,1,.39.4.37.37,0,0,1-.39.4h-3.49v.54a.43.43,0,0,1-.46.42.44.44,0,0,1-.48-.42v-.54h-2.95v.63a.43.43,0,0,1-.46.42.44.44,0,0,1-.48-.42v-.63h-3.39a.37.37,0,0,1-.38-.4.38.38,0,0,1,.38-.4h3.39v-.77c0-.28.24-.4.48-.4a.41.41,0,0,1,.46.4v.77h2.95ZM175,52.09V50.37h-1.58v0c0,.56,0,1.13,0,1.69Zm0-2.49V48.44c0-.42-.05-.56-.47-.56h-.63c-.42,0-.48.14-.48.56V49.6Zm3.81,1.76a9.32,9.32,0,0,1-1.93,2.06.52.52,0,0,1-.34.13.39.39,0,0,1-.4-.38.5.5,0,0,1,.24-.39,7.77,7.77,0,0,0,1.38-1.42h-1.05a.39.39,0,0,1-.42-.4.38.38,0,0,1,.41-.39h1.62a8.37,8.37,0,0,0,.49-.87h-1.61a.39.39,0,0,1-.42-.4.38.38,0,0,1,.42-.37h2a11.29,11.29,0,0,0,.56-1.7.52.52,0,0,1,.51-.39.45.45,0,0,1,.47.45.89.89,0,0,1,0,.15,12.45,12.45,0,0,1-.51,1.49h3.42a.37.37,0,0,1,.41.37.39.39,0,0,1-.41.4h-2a7.16,7.16,0,0,0,.56.87h2a.4.4,0,1,1,0,.79h-1.3a7.06,7.06,0,0,0,1.46,1.08.6.6,0,0,1,.35.51.48.48,0,0,1-.48.47.57.57,0,0,1-.31-.09,8.11,8.11,0,0,1-2.17-2Zm.12,2.88a.4.4,0,0,1,.42.39.45.45,0,0,1-.27.38,11.09,11.09,0,0,1-1.92.75.76.76,0,0,1-.21,0,.42.42,0,0,1-.45-.41.45.45,0,0,1,.37-.42,11.94,11.94,0,0,0,1.82-.67A.55.55,0,0,1,179,54.24ZM178.81,48a.59.59,0,0,1,.08.27.46.46,0,0,1-.48.42.4.4,0,0,1-.37-.24,4.56,4.56,0,0,0-.54-.81.39.39,0,0,1-.09-.26.41.41,0,0,1,.43-.37.59.59,0,0,1,.42.21A5.71,5.71,0,0,1,178.81,48Zm.32,5.16a.55.55,0,0,1,.21.4.39.39,0,0,1-.41.38.46.46,0,0,1-.32-.13,5.82,5.82,0,0,0-.56-.47.4.4,0,0,1,.22-.75.45.45,0,0,1,.26.09A4.21,4.21,0,0,1,179.13,53.19Zm1.5,2.25c0,.87-.41,1.19-1.18,1.19a3.6,3.6,0,0,1-.78-.08.46.46,0,1,1,.19-.89,1.73,1.73,0,0,0,.52.06c.21,0,.34-.1.34-.39V52.09c0-.28.22-.4.46-.4a.41.41,0,0,1,.45.4Zm.56-4.87a8,8,0,0,1-.45-.87h-.91c-.14.29-.31.59-.48.87Zm1.05,2a.41.41,0,0,1,.4.4.46.46,0,0,1-.18.35,5.57,5.57,0,0,1-.85.58.57.57,0,0,1-.24,0,.38.38,0,0,1-.39-.39.44.44,0,0,1,.23-.38,4.39,4.39,0,0,0,.66-.46A.56.56,0,0,1,182.24,52.53Zm1.24,2.81a.57.57,0,0,1,.28.45.48.48,0,0,1-.49.46.62.62,0,0,1-.36-.12,12.44,12.44,0,0,0-1.58-1,.51.51,0,0,1-.33-.45.41.41,0,0,1,.44-.4.63.63,0,0,1,.26,0A11.51,11.51,0,0,1,183.48,55.34ZM182.41,47a.42.42,0,0,1,.44.39.47.47,0,0,1,0,.22,6.31,6.31,0,0,1-.55.9.52.52,0,0,1-.4.21.41.41,0,0,1-.44-.36.52.52,0,0,1,.08-.26,4.66,4.66,0,0,0,.5-.84A.45.45,0,0,1,182.41,47Z"/><path class="cls-7" d="M246.7,51.28c0-3,2.48-5.62,6.22-5.62,3.21,0,5.14,2,5.14,4.65a5.11,5.11,0,0,1-3.74,5,1.09,1.09,0,0,1-.24,0,.56.56,0,0,1-.57-.58.62.62,0,0,1,.49-.6,3.73,3.73,0,0,0,2.93-3.84c0-2.06-1.38-3.65-3.93-3.69a13.23,13.23,0,0,1-1.7,6.13c-.77,1.22-1.47,1.56-2.27,1.56C247.84,54.31,246.7,53.25,246.7,51.28Zm3.57-4a4.63,4.63,0,0,0-1.52,1.33,4.88,4.88,0,0,0-.65,1.13,5.25,5.25,0,0,0-.29,1.57c0,1.16.57,1.91,1.22,1.91.44,0,.85-.19,1.31-.93a12.15,12.15,0,0,0,1.54-5.56A5.12,5.12,0,0,0,250.27,47.25Z"/><path class="cls-7" d="M262.4,47.12c-.26,0-.38-.22-.38-.45a.4.4,0,0,1,.38-.45h5.08v-2.1a.45.45,0,0,1,.5-.4c.26,0,.51.14.51.4v2.1h5.28a.41.41,0,0,1,.38.45.4.4,0,0,1-.38.45h-5.65a17.52,17.52,0,0,1-.21,2h2.95c1.16,0,1.66.5,1.63,1.34a18.4,18.4,0,0,1-.57,3.85,2.16,2.16,0,0,1-2.3,1.89,6.76,6.76,0,0,1-1.5-.16.49.49,0,0,1,.09-1l.17,0a4.86,4.86,0,0,0,1.17.16c.72,0,1.1-.21,1.38-1.18a16.89,16.89,0,0,0,.53-3.49c0-.43-.16-.58-.79-.58h-2.94A9,9,0,0,1,263,56.38a.72.72,0,0,1-.27.07.5.5,0,0,1-.49-.49.51.51,0,0,1,.3-.44c.32-.18.64-.37.95-.58a7.78,7.78,0,0,0,1.67-1.67,10.32,10.32,0,0,0,1.72-4.46c.08-.56.11-1.13.15-1.69Z"/><path class="cls-7" d="M254.52,87.2a.95.95,0,1,1-.94-.94A.94.94,0,0,1,254.52,87.2Zm0,5.17a.95.95,0,1,1-.94-.94A.94.94,0,0,1,254.52,92.37Z"/><path class="cls-7" d="M267.93,86.18a21.65,21.65,0,0,1-1.74,1.64.55.55,0,0,1-.4.17.62.62,0,0,1-.65-.62.56.56,0,0,1,.25-.46c.82-.65,1.6-1.32,2.23-1.89a1.17,1.17,0,0,1,.86-.31.71.71,0,0,1,.72.77v8.78a.58.58,0,0,1-.64.65.58.58,0,0,1-.63-.65Z"/><path class="cls-7" d="M278,91a3,3,0,0,1-3.2-3.14,3.14,3.14,0,0,1,3.34-3.18,3.17,3.17,0,0,1,3.34,3.18,7.07,7.07,0,0,1-1,3.64,10,10,0,0,1-2.78,3.24.68.68,0,0,1-.45.21.59.59,0,0,1-.62-.55.51.51,0,0,1,.23-.43,8.59,8.59,0,0,0,2.88-3.52A3.17,3.17,0,0,1,278,91Zm-1.93-3.14a2,2,0,0,0,2,2.16,2.31,2.31,0,0,0,2-1,4,4,0,0,0,.13-1.2,2,2,0,0,0-2.09-2.17A2,2,0,0,0,276.09,87.82Z"/><path class="cls-7" d="M290.34,84.86a.81.81,0,0,1,.86.77,2.2,2.2,0,0,1-.18.86q-1.83,4-3.53,8a.58.58,0,0,1-.56.4c-.38,0-.73-.21-.73-.55a1,1,0,0,1,.11-.42c1.2-2.66,2.42-5.34,3.63-8H285.3a.55.55,0,0,1,0-1.1Z"/><path class="cls-7" d="M295,87.17a2.7,2.7,0,0,1,3-2.53c1.81,0,3,1.09,3,2.51a2.4,2.4,0,0,1-1.78,2.31c1.64.63,2.3,1.44,2.3,2.73,0,1.67-1.33,2.84-3.4,2.84s-3.41-1.12-3.41-2.78c0-1.18.68-2,2.22-2.58A2.6,2.6,0,0,1,295,87.17Zm.93,5c0,1.15.81,1.83,2.16,1.83s2.15-.65,2.15-1.83c0-1-.51-1.56-2.38-2.12C296.64,90.51,296,91.17,296,92.19Zm2-6.56a1.57,1.57,0,0,0-1.76,1.56c0,.89.49,1.47,2,1.9a1.94,1.94,0,0,0,1.53-1.9A1.6,1.6,0,0,0,298,85.63Z"/><path class="cls-7" d="M307.06,89.51c0-.78.43-1.26,1.5-1.26h2.35v-2h-3.17a14.91,14.91,0,0,1-2.24,3,.45.45,0,0,1-.35.16.49.49,0,0,1-.49-.46.51.51,0,0,1,.17-.35,15.46,15.46,0,0,0,3-4.94.46.46,0,0,1,.46-.3.53.53,0,0,1,.55.5.93.93,0,0,1,0,.22c-.17.41-.35.83-.56,1.25h8.2a.45.45,0,0,1,0,.9H312v2h3.43a.4.4,0,0,1,.39.45.4.4,0,0,1-.39.45H312V91.6h5a.45.45,0,0,1,0,.9h-5v3.43c0,.28-.25.42-.52.42a.47.47,0,0,1-.52-.42V92.5H305a.45.45,0,0,1,0-.9h2.05Zm3.85,2.09V89.15h-2.13c-.57,0-.71.15-.71.55v1.9Z"/><path class="cls-7" d="M324,88.62a3,3,0,0,1,3.19,3.13A3.18,3.18,0,0,1,323.8,95a3.1,3.1,0,0,1-3.3-3.26,6,6,0,0,1,1.22-3.61,17.23,17.23,0,0,1,3-3.33.77.77,0,0,1,.42-.19.58.58,0,0,1,.62.56.48.48,0,0,1-.2.41,12.8,12.8,0,0,0-3.12,3.5A2.85,2.85,0,0,1,324,88.62Zm1.9,3.15a2,2,0,0,0-2-2.19,2.49,2.49,0,0,0-2,.93,3.92,3.92,0,0,0-.17,1.26,2.07,2.07,0,1,0,4.12,0Z"/><path class="cls-7" d="M333.56,91.18a7.48,7.48,0,0,1-2.69,4.76.57.57,0,0,1-.36.14.47.47,0,0,1-.48-.45.56.56,0,0,1,.23-.43c1.66-1.41,2.5-3.28,2.5-7.17V85.44c0-1,.45-1.5,1.75-1.5h3.66c1.3,0,1.75.52,1.75,1.5v9c0,1-.46,1.47-1.6,1.47a3.76,3.76,0,0,1-1.05-.11.52.52,0,0,1-.39-.5.49.49,0,0,1,.49-.52.51.51,0,0,1,.17,0,3,3,0,0,0,.73.08c.42,0,.61-.14.61-.57V91.18Zm5.32-.9V88H333.8v.28c0,.67,0,1.34-.1,2Zm0-3.19V85.56c0-.53-.16-.7-.93-.7h-3.21c-.77,0-.94.17-.94.7v1.53Z"/><path class="cls-7" d="M350.2,93.72a.55.55,0,1,1,0,1.09H345a.7.7,0,0,1-.59-.73,1.2,1.2,0,0,1,.42-.84A35.48,35.48,0,0,0,348,90.05a4,4,0,0,0,1.21-2.59,1.54,1.54,0,0,0-1.6-1.73,2.91,2.91,0,0,0-2,1,.57.57,0,0,1-.44.21.61.61,0,0,1-.61-.63.54.54,0,0,1,.19-.4,4.22,4.22,0,0,1,2.82-1.22,2.66,2.66,0,0,1,2.94,2.82c0,1.16-.49,2.11-1.71,3.4s-2.11,2.09-3,2.86Z"/><path class="cls-7" d="M357.31,86.18c-.5.5-1.1,1.11-1.74,1.64a.57.57,0,0,1-.41.17.61.61,0,0,1-.64-.62.56.56,0,0,1,.25-.46c.81-.65,1.6-1.32,2.23-1.89a1.17,1.17,0,0,1,.85-.31.71.71,0,0,1,.73.77v8.78a.59.59,0,0,1-.64.65.58.58,0,0,1-.63-.65Z"/><path class="cls-7" d="M367,95.42c-1.15,0-1.82-.39-1.85-1.61V86.26c0-1,.49-1.61,1.85-1.61h4.4c1.35,0,1.84.61,1.84,1.61v7.55c0,1-.49,1.61-1.84,1.61Zm5.18-9c0-.61-.27-.85-1-.85h-3.89c-.77,0-1,.24-1,.85v3h6Zm-1,8.07c.65,0,1-.13,1-.85V90.31h-6v3.34c0,.61.27.85,1,.85Z"/><path class="cls-7" d="M254.52,112.2a.95.95,0,1,1-.94-.94A.94.94,0,0,1,254.52,112.2Zm0,5.17a.95.95,0,1,1-.94-.94A.94.94,0,0,1,254.52,117.37Z"/><path class="cls-7" d="M272.05,116.62a14.59,14.59,0,0,1-1.57-2.22,39.58,39.58,0,0,1-4.24.51.53.53,0,0,1-.62-.49.49.49,0,0,1,.53-.48,33.79,33.79,0,0,0,3.89-.44c-.29-.55-.53-1.12-.77-1.7-1,.16-2.08.3-3,.36a.48.48,0,0,1-.57-.48.49.49,0,0,1,.53-.47,26.71,26.71,0,0,0,2.72-.31c-.18-.55-.34-1.09-.46-1.62a.46.46,0,0,1,.5-.57.52.52,0,0,1,.53.42,16.46,16.46,0,0,0,.44,1.59,25.21,25.21,0,0,0,2.59-.6.74.74,0,0,1,.24-.05.46.46,0,0,1,.49.45c0,.2-.13.39-.45.49a23.33,23.33,0,0,1-2.55.62c.22.57.48,1.13.74,1.69a23.66,23.66,0,0,0,2.79-.7.51.51,0,0,1,.21,0,.49.49,0,0,1,.52.48.53.53,0,0,1-.44.49c-.78.24-1.68.46-2.63.66a17.67,17.67,0,0,0,1.81,2.46.73.73,0,0,1,.19.49.57.57,0,0,1-.59.59.77.77,0,0,1-.25,0,9.11,9.11,0,0,0-3.12-.56c-1.74,0-2.45.6-2.45,1.35s.67,1.27,2.87,1.27c.56,0,1,0,1.37-.06a.5.5,0,0,1,.56.52.51.51,0,0,1-.47.51,13.45,13.45,0,0,1-1.43.07c-2.78,0-4-1-4-2.29,0-1.16.93-2.29,3.54-2.29a8.33,8.33,0,0,1,2.54.4Z"/><path class="cls-7" d="M279.9,116.73a6.21,6.21,0,0,1,1.16-2,5.19,5.19,0,0,1,3-1.75c0-.49-.1-1-.18-1.46a.44.44,0,0,1,.46-.53.5.5,0,0,1,.51.41c.08.5.14,1,.18,1.48a3,3,0,0,1,3,3.15c0,2-1.43,3.17-3.48,3.17h-.29a5.72,5.72,0,0,1-1.46,1.75.57.57,0,0,1-.39.15.45.45,0,0,1-.46-.43.55.55,0,0,1,.24-.42,4.54,4.54,0,0,0,1.16-1.31,2.79,2.79,0,0,1-1.43-1.23.57.57,0,0,1-.06-.24.44.44,0,0,1,.84-.16,1.91,1.91,0,0,0,1,.82,8,8,0,0,0,.38-2.74c0-.51,0-1,0-1.53a4.46,4.46,0,0,0-2.41,1.53,6.39,6.39,0,0,0-1.28,2.18,2,2,0,0,0-.17.73,2.28,2.28,0,0,0,0,.42.47.47,0,0,1-.51.45.45.45,0,0,1-.46-.34,10,10,0,0,1-.38-2.86,17.69,17.69,0,0,1,.36-3.3.48.48,0,0,1,.49-.39.44.44,0,0,1,.47.54,18,18,0,0,0-.38,3.13c0,.28,0,.49,0,.77Zm5.18-1.33a9,9,0,0,1-.42,2.91,2.2,2.2,0,0,0,2.38-2.26,2,2,0,0,0-2-2.25C285.07,114.33,285.08,114.88,285.08,115.4Z"/><path class="cls-7" d="M292.53,114.16a.54.54,0,0,1-.54-.53.61.61,0,0,1,.4-.55,10,10,0,0,1,3.88-.92c1.92,0,2.91.9,2.91,2.63a7.46,7.46,0,0,1-2.95,5.71.76.76,0,0,1-.41.13.5.5,0,0,1-.53-.5.61.61,0,0,1,.29-.5,6.06,6.06,0,0,0,2.48-4.84c0-1.1-.43-1.58-1.76-1.58a8.76,8.76,0,0,0-3.49.88A.64.64,0,0,1,292.53,114.16Zm5.61-4.42a.6.6,0,0,1,.42.56.51.51,0,0,1-.5.52.61.61,0,0,1-.25-.06,15.77,15.77,0,0,0-3-.85.53.53,0,0,1-.46-.51.55.55,0,0,1,.69-.52A13.85,13.85,0,0,1,298.14,109.74Z"/><path class="cls-7" d="M306,115.33a12.29,12.29,0,0,0,.6-1.42.43.43,0,0,1,.42-.33.41.41,0,0,1,.42.42.49.49,0,0,1,0,.15,12.19,12.19,0,0,1-.92,2.18.79.79,0,0,1-.66.47.68.68,0,0,1-.64-.55A8.14,8.14,0,0,1,305,114a18.67,18.67,0,0,1,.5-4.06.58.58,0,0,1,.56-.48.48.48,0,0,1,.46.65,19.45,19.45,0,0,0-.53,3.78,12,12,0,0,0,.07,1.46Zm4.66-6.12a.54.54,0,0,1,.56.49,36.41,36.41,0,0,1,.3,4.42,7.45,7.45,0,0,1-3,6.4.82.82,0,0,1-.46.17.47.47,0,0,1-.49-.46.69.69,0,0,1,.32-.56,6.67,6.67,0,0,0,2.47-5.55,36.5,36.5,0,0,0-.28-4.34A.51.51,0,0,1,310.7,109.21Z"/><path class="cls-7" d="M320.26,114.81A1.24,1.24,0,0,1,319,116a1.22,1.22,0,0,1-1.23-1.23,1.25,1.25,0,0,1,1.23-1.25A1.27,1.27,0,0,1,320.26,114.81Z"/><path class="cls-7" d="M325.13,112.36a.42.42,0,0,1,0-.84h1.42V108.8a.46.46,0,0,1,.91,0v2.72h1a.42.42,0,0,1,0,.84h-1v1a6.73,6.73,0,0,1,1.38,1.32.57.57,0,0,1,.16.39.42.42,0,0,1-.41.42.48.48,0,0,1-.42-.25,7.9,7.9,0,0,0-.71-.84v6.55a.46.46,0,0,1-.91,0v-3.43l.07-2.86a13.53,13.53,0,0,1-1.32,2.9.49.49,0,0,1-.42.28.37.37,0,0,1-.38-.38.62.62,0,0,1,.1-.32,14.83,14.83,0,0,0,1.82-4.73Zm11.19,3.47c-.05.76-.12,1.51-.22,2.27H337a.42.42,0,0,1,0,.84h-1l-.09.5c-.21,1.22-.77,1.68-1.72,1.68a4.42,4.42,0,0,1-.84-.08.46.46,0,0,1-.39-.47.44.44,0,0,1,.54-.45,3.91,3.91,0,0,0,.62.07c.51,0,.77-.2.88-.84,0-.13.05-.27.07-.41h-4.61c0,.17-.07.34-.09.5a.53.53,0,0,1-.52.42.44.44,0,0,1-.46-.57c.26-1.12.49-2.3.67-3.46h-.62a.42.42,0,0,1,0-.84h.74q.13-.85.21-1.68c.07-.76.42-1.16,1.43-1.16h3.25c1,0,1.39.43,1.38,1.23,0,.55,0,1.09-.06,1.61h1.05a.42.42,0,0,1,0,.84Zm-5.21-4.78a12.08,12.08,0,0,1-1.05,1.5.56.56,0,0,1-.43.24.43.43,0,0,1-.44-.43.65.65,0,0,1,.17-.41,12.18,12.18,0,0,0,1.8-3.19.49.49,0,0,1,.95.14.81.81,0,0,1,0,.19c-.13.35-.3.7-.47,1.07H337a.45.45,0,0,1,0,.89Zm-.11,4.78c-.13.76-.24,1.51-.38,2.27h1.73c.11-.76.22-1.51.3-2.27Zm.93-2.87c-.47,0-.61.11-.64.49s-.11,1-.18,1.54h1.63c.07-.67.12-1.36.17-2Zm1.63,2.87c-.09.76-.19,1.51-.29,2.27h1.91c.09-.76.18-1.51.22-2.27Zm1.89-.84q0-.73.06-1.5c0-.41-.1-.53-.6-.53h-1.09c-.06.67-.1,1.36-.17,2Z"/><path class="cls-7" d="M341.9,110.26a.48.48,0,0,1,0-1h10a.48.48,0,0,1,0,1h-4.48v3.22h5.49a.48.48,0,0,1,0,1h-5.49v6.49c0,.28-.27.42-.54.42s-.53-.14-.53-.42v-6.49h-5.36a.48.48,0,0,1,0-1h5.36v-3.22Z"/><path class="cls-7" d="M358.22,109.7a.52.52,0,0,1,.56-.49.52.52,0,0,1,.56.56c-.16,2-.28,4.6-.28,6.82,0,2,.61,2.66,1.8,2.66a5.14,5.14,0,0,0,4-2.2.62.62,0,0,1,.49-.25.51.51,0,0,1,.53.5.74.74,0,0,1-.2.48,6.15,6.15,0,0,1-4.77,2.56c-2,0-3-1-3-3.77C357.94,114.36,358.05,111.73,358.22,109.7Z"/><path class="cls-7" d="M254.52,137.2a.95.95,0,1,1-.94-.94A.94.94,0,0,1,254.52,137.2Zm0,5.17a.95.95,0,1,1-.94-.94A.94.94,0,0,1,254.52,142.37Z"/><path class="cls-7" d="M267.84,135.34c.22-.57.52-.8,1-.8a1,1,0,0,1,1,.8L273,144a.91.91,0,0,1,.06.32c0,.38-.31.59-.72.59a.59.59,0,0,1-.57-.48l-1.09-3.22H267l-1.12,3.23a.59.59,0,0,1-.56.47c-.37,0-.68-.21-.68-.54a.89.89,0,0,1,.05-.32Zm.94.49c-.25.77-.47,1.5-.72,2.24l-.75,2.14h3l-.72-2.11c-.25-.76-.46-1.49-.7-2.27Z"/><path class="cls-7" d="M278.41,144.92c-1.21,0-1.68-.49-1.68-1.75v-6.89c0-1.26.47-1.75,1.68-1.75h1.81c2.09,0,3.19,1,3.19,2.59a2.21,2.21,0,0,1-1.56,2.18A2.57,2.57,0,0,1,284,142c0,1.82-1.3,2.94-3.56,2.94Zm1.75-5.92a1.77,1.77,0,0,0,2-1.76c0-1.1-.66-1.7-1.89-1.7h-1.56a.65.65,0,0,0-.69.75V139Zm.26,4.91a2,2,0,0,0,2.22-1.93c0-1.35-.77-2-2.27-2H278v3.18c0,.48.24.74.69.74Z"/><path class="cls-7" d="M288.16,135a.42.42,0,0,1,0-.84h5.67a.42.42,0,0,1,0,.84h-1v2h1.44a.42.42,0,0,1,0,.84h-1.44v2.9a.48.48,0,0,1-1,0v-2.9h-1.78a5.18,5.18,0,0,1-1.72,3.57.59.59,0,0,1-.42.17.45.45,0,0,1-.47-.42.53.53,0,0,1,.21-.4,4.3,4.3,0,0,0,1.45-2.92h-1.43a.42.42,0,0,1,0-.84h1.48v-2Zm11.11,9.95a.4.4,0,0,1,.4.43.42.42,0,0,1-.4.44h-11.5a.42.42,0,0,1-.41-.44.4.4,0,0,1,.41-.43H293v-1.52h-3.62a.43.43,0,0,1,0-.85H293v-1a.5.5,0,0,1,1,0v1h3.71a.43.43,0,0,1,0,.85H294v1.52Zm-9.1-8.16v.17h1.73v-2h-1.73Zm5.41-1.87a.49.49,0,0,1,1,0v4c0,.22-.24.33-.48.33s-.49-.11-.49-.33Zm3.59,5.05c0,.9-.39,1.29-1.35,1.29a3.57,3.57,0,0,1-.63-.07.48.48,0,0,1-.43-.49.45.45,0,0,1,.57-.43,2.52,2.52,0,0,0,.49.05c.31,0,.37-.11.37-.47v-5.59a.45.45,0,0,1,.49-.42.44.44,0,0,1,.49.42Z"/><path class="cls-7" d="M254.52,162.2a.95.95,0,1,1-.94-.94A.94.94,0,0,1,254.52,162.2Zm0,5.17a.95.95,0,1,1-.94-.94A.94.94,0,0,1,254.52,167.37Z"/><path class="cls-7" d="M273.63,161.15c1.08,0,1.7.56,1.7,1.47,0,.1,0,.21,0,.33a9.23,9.23,0,0,1-5.8,7.45.92.92,0,0,1-.3.07.55.55,0,0,1-.57-.55.62.62,0,0,1,.43-.55,7.9,7.9,0,0,0,5.1-6.44c.09-.56-.09-.77-.7-.77h-5.77c-.54,0-.74.15-.74.59v2.11a.56.56,0,0,1-1.12,0v-2.27c0-1,.53-1.44,1.62-1.44h2.43v-1.72a.55.55,0,0,1,1.09,0v1.72Z"/><path class="cls-7" d="M286.82,161.15c.89,0,1.37.39,1.37,1.08a2.2,2.2,0,0,1-.08.53,13.73,13.73,0,0,1-6.28,7.87.64.64,0,0,1-.36.1.51.51,0,0,1-.53-.52.66.66,0,0,1,.39-.57,12.46,12.46,0,0,0,5.64-7.09.47.47,0,0,0,0-.17c0-.16-.13-.25-.41-.25l-3.57,0a13.85,13.85,0,0,1-2.31,2.7.69.69,0,0,1-.46.2.5.5,0,0,1-.52-.49.65.65,0,0,1,.25-.49,13.8,13.8,0,0,0,3.35-4.86.56.56,0,0,1,.53-.38.54.54,0,0,1,.56.52.71.71,0,0,1,0,.24,13.36,13.36,0,0,1-.76,1.58Z"/><path class="cls-7" d="M295.08,168c0,.41.11.59.39.59a1.05,1.05,0,0,0,.33-.06,15.21,15.21,0,0,0,6.36-4.28.69.69,0,0,1,.52-.27.57.57,0,0,1,.58.55.71.71,0,0,1-.21.47,17.07,17.07,0,0,1-6.95,4.61,2.72,2.72,0,0,1-.89.15c-.79,0-1.28-.49-1.28-1.45v-7.72a.58.58,0,0,1,1.15,0Z"/><path class="cls-7" d="M309.3,168c0,.41.11.59.39.59a1.16,1.16,0,0,0,.34-.06,15.28,15.28,0,0,0,6.36-4.28.67.67,0,0,1,.52-.27.57.57,0,0,1,.57.55.71.71,0,0,1-.21.47,17,17,0,0,1-6.95,4.61,2.67,2.67,0,0,1-.88.15c-.8,0-1.29-.49-1.29-1.45v-7.72a.54.54,0,0,1,.58-.53.53.53,0,0,1,.57.53Z"/><path class="cls-7" d="M324.81,164.81a1.24,1.24,0,0,1-1.24,1.23,1.23,1.23,0,0,1-1.24-1.23,1.25,1.25,0,0,1,1.24-1.25A1.27,1.27,0,0,1,324.81,164.81Z"/><path class="cls-7" d="M333.77,166.08a.56.56,0,0,1-1.12,0v-2.77h-2.39a.51.51,0,0,1,0-1h2.39v-2.41a.56.56,0,0,1,1.12,0v2.41h3.67v-2.63a.54.54,0,0,1,.58-.54.53.53,0,0,1,.54.54v2.63h2.72a.51.51,0,0,1,0,1h-2.72V164c0,3.39-1.54,5.61-4.09,6.63a.54.54,0,0,1-.26.06.53.53,0,0,1-.54-.52.62.62,0,0,1,.44-.56c2.13-.92,3.33-2.52,3.33-5.73v-.57h-3.67Z"/><path class="cls-7" d="M347.56,164.63a.65.65,0,0,1,.06.26.53.53,0,0,1-.53.52.54.54,0,0,1-.51-.36,14.68,14.68,0,0,0-1-1.94.52.52,0,0,1-.08-.28.48.48,0,0,1,.52-.43.56.56,0,0,1,.46.25A15.64,15.64,0,0,1,347.56,164.63Zm6.15-2.43a.55.55,0,0,1,.55.69,12.85,12.85,0,0,1-5.93,7.83.62.62,0,0,1-.31.08.49.49,0,0,1-.49-.5.54.54,0,0,1,.33-.49,11.52,11.52,0,0,0,5.33-7.19A.52.52,0,0,1,353.71,162.2Zm-3.37,1.74a.78.78,0,0,1,0,.21.54.54,0,0,1-.56.52.47.47,0,0,1-.46-.35,13,13,0,0,0-.93-1.94.43.43,0,0,1,.42-.67.58.58,0,0,1,.48.25A10.79,10.79,0,0,1,350.34,163.94Z"/><path class="cls-7" d="M366.14,161.73c1.15,0,1.74.5,1.74,1.48a31,31,0,0,1-.38,5c-.25,1.51-1,2.07-2.25,2.07a5.92,5.92,0,0,1-.76,0,.59.59,0,0,1-.56-.57.55.55,0,0,1,.67-.51,4.11,4.11,0,0,0,.65,0c.6,0,1-.16,1.17-1.17a26.6,26.6,0,0,0,.37-4.64c0-.48-.17-.59-.76-.59l-2.77,0a10.47,10.47,0,0,1-1.1,4.05,9.3,9.3,0,0,1-3.1,3.33.65.65,0,0,1-.38.12.51.51,0,0,1-.52-.51.67.67,0,0,1,.35-.55,8.08,8.08,0,0,0,2.66-2.85,9.53,9.53,0,0,0,1-3.59l-3.41,0a.52.52,0,0,1-.52-.53.49.49,0,0,1,.51-.51l3.49,0c0-.49,0-1,0-1.62v-.85a.56.56,0,0,1,1.12,0v.84c0,.57,0,1.12,0,1.62Z"/><path class="cls-7" d="M382.59,164.33a.55.55,0,0,1,0,1.09H372.41a.55.55,0,0,1,0-1.09Z"/><path class="cls-7" d="M389.9,165.76h1.26a.35.35,0,0,1,.36.38.36.36,0,0,1-.36.38H389.9v1h1.26a.34.34,0,0,1,.36.37.35.35,0,0,1-.36.38H389.9v1.05h1.15a.41.41,0,0,1,0,.81h-3.31v.55a.41.41,0,0,1-.45.41.42.42,0,0,1-.45-.41v-5.14c-.16.22-.33.43-.51.64a.55.55,0,0,1-.4.2.36.36,0,0,1-.37-.38.6.6,0,0,1,.15-.38,11.45,11.45,0,0,0,1.79-3h-1.43a.39.39,0,0,1-.39-.41.39.39,0,0,1,.39-.41h1.76c.14-.43.28-.88.39-1.33h-.91c-.17.3-.34.56-.49.8a.59.59,0,0,1-.48.29.41.41,0,0,1-.42-.4.64.64,0,0,1,.11-.34,9.78,9.78,0,0,0,1.09-2.2.45.45,0,0,1,.42-.29.49.49,0,0,1,.5.45,1.31,1.31,0,0,1,0,.15l-.3.73h3.39a.41.41,0,0,1,0,.81h-1.93c-.11.45-.25.9-.39,1.33h2.88a.38.38,0,0,1,.4.41.39.39,0,0,1-.4.41h-3.2c-.2.46-.41.92-.65,1.35l.44,0H389c.11-.26.21-.48.3-.73a.46.46,0,0,1,.46-.35.38.38,0,0,1,.4.37.47.47,0,0,1,0,.17c-.09.19-.16.37-.24.54h1.62a.37.37,0,0,1,.4.39.38.38,0,0,1-.4.39H389.9Zm-1.57-1c-.46,0-.59.14-.59.55v.43H389v-1Zm-.59,2.75H389v-1h-1.29Zm0,1.8H389v-1.05h-1.29Zm6.93-2.7a6,6,0,0,1-2.7,4.49.57.57,0,0,1-.35.12.45.45,0,0,1-.45-.44.55.55,0,0,1,.27-.43,5,5,0,0,0,2.32-3.74,1.13,1.13,0,0,1-1.21-1.29v-5.27c0-.92.46-1.3,1.45-1.3h2.24c1,0,1.46.38,1.46,1.3v5.27c0,.94-.46,1.28-1.37,1.29v3.09c0,.27.11.38.54.38.61,0,.77-.17.89-1a.41.41,0,0,1,.43-.37.42.42,0,0,1,.46.47c-.14,1.4-.66,1.8-1.8,1.8s-1.47-.27-1.47-1v-3.35Zm2.05-6.42c0-.44-.18-.6-.69-.6H394.2c-.51,0-.67.16-.67.6v.9h3.19Zm-3.19,3.14h3.19v-1.43h-3.19Zm2.5,2.47c.51,0,.69-.14.69-.63v-1h-3.19v1c0,.49.16.63.67.63Z"/><path class="cls-7" d="M403.6,166.68c-.88,0-1.5-.22-1.51-1.21V163c0-.83.43-1.2,1.51-1.2h2a15.88,15.88,0,0,0,1.42-2.67.51.51,0,0,1,.47-.32.46.46,0,0,1,.48.44.47.47,0,0,1-.06.24,16.37,16.37,0,0,1-1.31,2.31c.82,0,1.31.32,1.33,1.2v2.47c0,.82-.44,1.21-1.52,1.21h-1v1.22h2.66a.44.44,0,0,1,0,.87h-2.66v2.1a.45.45,0,0,1-.48.44.44.44,0,0,1-.47-.44v-2.1h-2.74a.44.44,0,0,1,0-.87h2.74v-1.22Zm-1.76-7.15a.47.47,0,0,1,.49-.42.43.43,0,0,1,.4.21,7.85,7.85,0,0,1,.75,1.37,1.09,1.09,0,0,1,0,.24.5.5,0,0,1-.49.52.49.49,0,0,1-.45-.35,8,8,0,0,0-.66-1.31A.56.56,0,0,1,401.84,159.53Zm1.86,3.08c-.53,0-.69.08-.69.53v.67h1.48v-1.2Zm.79,3.26v-1.24H403v.71c0,.45.16.53.69.53Zm-.62-6.81a.4.4,0,0,1,.43-.39.54.54,0,0,1,.48.28,6.45,6.45,0,0,1,.63,1.47,1.52,1.52,0,0,1,0,.21.48.48,0,0,1-.46.52.51.51,0,0,1-.49-.45,8,8,0,0,0-.54-1.36A.6.6,0,0,1,403.87,159.06Zm3.12,4.08c0-.45-.15-.53-.68-.53h-.87v1.2H407Zm-.68,2.73c.44,0,.67,0,.68-.53v-.71h-1.55v1.24Zm2.53-2.06a.42.42,0,0,1-.46-.44.41.41,0,0,1,.36-.44l1.08-.13c-.07-1.16-.11-2.45-.11-3.88a.44.44,0,0,1,.48-.42.45.45,0,0,1,.49.44c0,1.34,0,2.62.11,3.75l2.73-.32a.43.43,0,0,1,.49.46.41.41,0,0,1-.36.44l-2.81.32a23.3,23.3,0,0,0,.45,3.11,12.11,12.11,0,0,0,1-2.1.47.47,0,0,1,.45-.32.49.49,0,0,1,.51.49.53.53,0,0,1-.06.23,13.45,13.45,0,0,1-1.61,2.92c.5,1.55,1,1.92,1.22,1.92s.46-.21.56-1.21a.46.46,0,0,1,.47-.45.48.48,0,0,1,.47.58c-.16,1.51-.73,2.23-1.43,2.23s-1.36-.59-2-2.2a11.17,11.17,0,0,1-2.75,2.27.6.6,0,0,1-.28.08.45.45,0,0,1-.45-.45.52.52,0,0,1,.29-.43,11,11,0,0,0,2.84-2.54c-.06-.19-.11-.4-.17-.61a22.65,22.65,0,0,1-.52-3.42Zm4.26-3.09a.64.64,0,0,1,.14.38.47.47,0,0,1-.46.46.55.55,0,0,1-.46-.28,9,9,0,0,0-.8-1,.51.51,0,0,1-.16-.33.43.43,0,0,1,.44-.41.58.58,0,0,1,.38.15A8,8,0,0,1,413.1,160.72Z"/><path class="cls-7" d="M158.66,87.68a16,16,0,0,1-1.52,2.9.51.51,0,0,1-.42.22.5.5,0,0,1-.51-.46.58.58,0,0,1,.11-.31,16.88,16.88,0,0,0,2.23-5.33.46.46,0,0,1,.47-.36c.3,0,.62.21.53.58a17.29,17.29,0,0,1-.56,1.89h3.16V83.69a.52.52,0,0,1,1,0v3.12h4.46a.38.38,0,0,1,.37.43.39.39,0,0,1-.37.44h-4.46v2.76h3.63a.39.39,0,0,1,.38.43.41.41,0,0,1-.38.44h-3.63V94.6h5.24a.4.4,0,0,1,.38.45.41.41,0,0,1-.38.45H156.81a.41.41,0,0,1-.38-.45.4.4,0,0,1,.38-.45h5.34V91.31h-3.41a.41.41,0,0,1-.38-.44.39.39,0,0,1,.38-.43h3.41V87.68Z"/><path class="cls-7" d="M174.29,89.51c0-.78.44-1.26,1.5-1.26h2.36v-2H175a15.29,15.29,0,0,1-2.24,3,.47.47,0,0,1-.35.16.49.49,0,0,1-.49-.46.51.51,0,0,1,.17-.35,15.46,15.46,0,0,0,3-4.94.45.45,0,0,1,.46-.3.52.52,0,0,1,.54.5.6.6,0,0,1,0,.22c-.17.41-.35.83-.56,1.25h8.21a.45.45,0,0,1,0,.9h-4.5v2h3.44a.41.41,0,0,1,.39.45.41.41,0,0,1-.39.45h-3.44V91.6h5a.45.45,0,0,1,0,.9h-5v3.43c0,.28-.25.42-.51.42s-.52-.14-.52-.42V92.5h-5.9a.45.45,0,0,1,0-.9h2Zm3.86,2.09V89.15H176c-.58,0-.72.15-.72.55v1.9Z"/><path class="cls-7" d="M190.83,91.18a7.53,7.53,0,0,1-2.69,4.76.59.59,0,0,1-.36.14.47.47,0,0,1-.48-.45.58.58,0,0,1,.22-.43C189.19,93.79,190,91.92,190,88V85.44c0-1,.45-1.5,1.75-1.5h3.66c1.3,0,1.75.52,1.75,1.5v9c0,1-.46,1.47-1.6,1.47a3.76,3.76,0,0,1-1.05-.11.52.52,0,0,1-.39-.5.49.49,0,0,1,.49-.52.51.51,0,0,1,.17,0,3,3,0,0,0,.73.08c.42,0,.61-.14.61-.57V91.18Zm5.32-.9V88h-5.08v.28c0,.67,0,1.34-.1,2Zm0-3.19V85.56c0-.53-.17-.7-.94-.7H192c-.77,0-.94.17-.94.7v1.53Z"/><path class="cls-7" d="M204.34,95.42c-1.15,0-1.82-.39-1.85-1.61V86.26c0-1,.49-1.61,1.85-1.61h4.4c1.36,0,1.85.61,1.85,1.61v7.55c0,1-.49,1.61-1.85,1.61Zm5.18-9c0-.61-.26-.85-1-.85h-3.9c-.77,0-1,.24-1,.85v3h6Zm-1,8.07c.64,0,1-.13,1-.85V90.31h-6v3.34c0,.61.26.85,1,.85Z"/><path class="cls-7" d="M159.88,111.4c1,0,1.38.51,1.31,1.35a12.08,12.08,0,0,1-1.26,4.5,11,11,0,0,1,1.53,1.26.61.61,0,0,1,.2.43.48.48,0,0,1-.47.48.55.55,0,0,1-.38-.19,9.91,9.91,0,0,0-1.31-1.17,9.35,9.35,0,0,1-2.29,2.63.57.57,0,0,1-.36.14.43.43,0,0,1-.43-.42.55.55,0,0,1,.23-.42,8.13,8.13,0,0,0,2.11-2.48,11.53,11.53,0,0,0-1.11-.7.53.53,0,0,1-.51.36.44.44,0,0,1-.46-.44.78.78,0,0,1,0-.21,38.71,38.71,0,0,0,1.17-4.26H156.6a.39.39,0,0,1-.39-.44.38.38,0,0,1,.39-.42h1.46c.16-.81.3-1.66.43-2.53a.46.46,0,0,1,.48-.39.47.47,0,0,1,.5.52c-.13.81-.27,1.62-.42,2.4Zm-1,.86c-.29,1.27-.59,2.53-1,3.77.43.21.84.46,1.26.71a12,12,0,0,0,1-3.95c0-.42-.06-.53-.48-.53Zm3.08,3.11a.44.44,0,0,1-.45-.46.44.44,0,0,1,.45-.45h2.68v-2.34a.46.46,0,0,1,.49-.45.5.5,0,0,1,.31.1,6.53,6.53,0,0,0,1.3-1.33.29.29,0,0,0,.06-.17c0-.1-.09-.15-.28-.15h-4a.42.42,0,0,1-.44-.44.44.44,0,0,1,.44-.46h4.21c.73,0,1.15.36,1.15.85a1.26,1.26,0,0,1-.28.76,7.19,7.19,0,0,1-2,1.88v1.75h2.81a.42.42,0,0,1,.45.45.43.43,0,0,1-.45.46h-2.81v4.19c0,1-.45,1.5-1.53,1.5a4,4,0,0,1-1-.1.51.51,0,1,1,.15-1,4.5,4.5,0,0,0,.8.08c.4,0,.56-.12.56-.6v-4.06Z"/><path class="cls-7" d="M179.16,116.62a14.59,14.59,0,0,1-1.57-2.22,39.77,39.77,0,0,1-4.25.51.53.53,0,0,1-.61-.49.49.49,0,0,1,.53-.48,33.79,33.79,0,0,0,3.89-.44c-.29-.55-.53-1.12-.77-1.7-1,.16-2.08.3-3,.36a.48.48,0,0,1-.57-.48.49.49,0,0,1,.53-.47,27,27,0,0,0,2.72-.31c-.18-.55-.34-1.09-.47-1.62a.47.47,0,0,1,.51-.57.52.52,0,0,1,.53.42,16.46,16.46,0,0,0,.44,1.59,25.21,25.21,0,0,0,2.59-.6.74.74,0,0,1,.23-.05.45.45,0,0,1,.49.45c0,.2-.12.39-.44.49a23.33,23.33,0,0,1-2.55.62c.22.57.47,1.13.74,1.69a24.17,24.17,0,0,0,2.79-.7.51.51,0,0,1,.21,0,.49.49,0,0,1,.52.48.53.53,0,0,1-.44.49c-.78.24-1.68.46-2.63.66a18.43,18.43,0,0,0,1.8,2.46.69.69,0,0,1,.2.49.57.57,0,0,1-.59.59.77.77,0,0,1-.25,0,9.15,9.15,0,0,0-3.12-.56c-1.74,0-2.45.6-2.45,1.35s.67,1.27,2.87,1.27c.56,0,1,0,1.37-.06a.52.52,0,1,1,.08,1,13.25,13.25,0,0,1-1.42.07c-2.78,0-4-1-4-2.29,0-1.16.93-2.29,3.53-2.29a8.35,8.35,0,0,1,2.55.4Z"/><path class="cls-7" d="M188.87,109.22a.49.49,0,0,1,.5-.42.51.51,0,0,1,.52.64c-.14.62-.29,1.25-.49,1.89.52-.07,1-.15,1.52-.25s.65.17.65.44a.56.56,0,0,1-.5.53c-.64.12-1.32.24-2,.33a24,24,0,0,1-2.22,4.81.63.63,0,0,1-.54.34.5.5,0,0,1-.51-.49.75.75,0,0,1,.13-.4,20.58,20.58,0,0,0,2-4.13c-.61.06-1.21.1-1.75.13a.53.53,0,0,1-.58-.52.51.51,0,0,1,.52-.51c.64,0,1.39-.07,2.16-.15C188.52,110.72,188.72,110,188.87,109.22Zm3.1,6.08a5.88,5.88,0,0,1,.12-1.32.48.48,0,0,1,.49-.4.46.46,0,0,1,.49.53,5.6,5.6,0,0,0-.11,1.17,11.18,11.18,0,0,0,.25,2.11,9.79,9.79,0,0,1,2.51,1.17.62.62,0,0,1,.31.51.5.5,0,0,1-.49.51.48.48,0,0,1-.32-.11,11.1,11.1,0,0,0-1.87-1v.14a1.94,1.94,0,0,1-2.18,2c-1.66,0-2.47-.74-2.47-1.82,0-.92.81-1.73,2.61-1.73a6.48,6.48,0,0,1,.85.07A11.41,11.41,0,0,1,192,115.3Zm.36,3.21a2.6,2.6,0,0,0,0-.4,4.37,4.37,0,0,0-1-.12c-1.17,0-1.58.36-1.58.82s.35.89,1.43.89A1.06,1.06,0,0,0,192.33,118.51Zm3.94-6.2a.72.72,0,0,1,.35.56.5.5,0,0,1-.49.51.68.68,0,0,1-.37-.11,10.25,10.25,0,0,0-2-1,.47.47,0,0,1-.35-.47.5.5,0,0,1,.52-.5l.21,0A9.6,9.6,0,0,1,196.27,112.31Z"/><path class="cls-7" d="M200.5,113.63a.69.69,0,0,1-.26.06.45.45,0,0,1-.47-.44.51.51,0,0,1,.35-.46,16.69,16.69,0,0,0,5.68-4.31.59.59,0,0,1,.47-.23.47.47,0,0,1,.51.41.38.38,0,0,1-.06.19,16.58,16.58,0,0,0,5.72,3.65.57.57,0,0,1,.43.51.5.5,0,0,1-.52.49.75.75,0,0,1-.24,0,17.42,17.42,0,0,1-5.92-4A19,19,0,0,1,200.5,113.63Zm3.29,6c.87-.14,1.73-.31,2.44-.48a.47.47,0,0,1,.62.42.48.48,0,0,1-.41.44,34.07,34.07,0,0,1-5.36.88.49.49,0,0,1-.58-.48.5.5,0,0,1,.55-.47c.57,0,1.16-.1,1.74-.17v-6.44c0-.72.4-1.15,1.49-1.15h1.49v-1a.46.46,0,0,1,.49-.46.46.46,0,0,1,.49.46v1h1.48c1.1,0,1.47.43,1.47,1.15v2.38c0,.71-.37,1.12-1.47,1.12h-1.44a8.54,8.54,0,0,0,1.25,1.3,14.46,14.46,0,0,0,2.76-1.79.57.57,0,0,1,.36-.14.48.48,0,0,1,.49.46.5.5,0,0,1-.22.38,22.86,22.86,0,0,1-2.68,1.64,10,10,0,0,0,3.2,1.38.56.56,0,0,1,.46.52.48.48,0,0,1-.51.48,1.52,1.52,0,0,1-.21,0,10.21,10.21,0,0,1-5.92-4.2h-2Zm4.93-6.18c0-.36-.12-.49-.75-.49h-3.42c-.63,0-.76.13-.76.49v.63h4.93Zm-.75,2.59c.63,0,.75-.12.75-.49v-.68h-4.93v1.17Z"/><path class="cls-7" d="M219.39,112.78a1.58,1.58,0,0,1,1-.37,1.36,1.36,0,0,1,.93.41,34.76,34.76,0,0,0,6.13,4.31.74.74,0,0,1,.44.63.56.56,0,0,1-.58.56.74.74,0,0,1-.36-.09,32.61,32.61,0,0,1-6.16-4.5.55.55,0,0,0-.41-.2.66.66,0,0,0-.42.19c-.83.65-1.89,1.51-2.9,2.31a.65.65,0,0,1-.41.15.54.54,0,0,1-.53-.53.73.73,0,0,1,.31-.55C217.29,114.4,218.37,113.55,219.39,112.78Zm4.27-1.24a.42.42,0,0,1,.42-.39.46.46,0,0,1,.28.1,7.32,7.32,0,0,1,1.31,1.3.64.64,0,0,1,.12.34.42.42,0,0,1-.42.43.4.4,0,0,1-.33-.18,10,10,0,0,0-1.22-1.27A.4.4,0,0,1,223.66,111.54Zm1.21-1.07a.42.42,0,0,1,.42-.42.5.5,0,0,1,.29.11,8.26,8.26,0,0,1,1.28,1.24.61.61,0,0,1,.12.34.42.42,0,0,1-.4.43.43.43,0,0,1-.31-.16,10.54,10.54,0,0,0-1.25-1.25A.36.36,0,0,1,224.87,110.47Z"/><path class="cls-7" d="M234.3,120.82a.42.42,0,0,1-.46.42.43.43,0,0,1-.46-.42v-4.41c-.58.23-1.17.43-1.74.61a.69.69,0,0,1-.2,0,.45.45,0,0,1-.46-.46.51.51,0,0,1,.41-.49c.65-.2,1.34-.42,2-.68v-2.9h-1.15a10.72,10.72,0,0,1-.44,1.35.5.5,0,0,1-.46.36.43.43,0,0,1-.43-.43.6.6,0,0,1,0-.22,13.44,13.44,0,0,0,.8-3.25.45.45,0,1,1,.89.09,12.61,12.61,0,0,1-.21,1.28h1v-2.85a.43.43,0,0,1,.46-.42.42.42,0,0,1,.46.42v2.85h1.11a.39.39,0,0,1,.4.4.4.4,0,0,1-.4.42H234.3V115c.34-.15.65-.31.94-.46a.4.4,0,0,1,.25-.07.43.43,0,0,1,.42.43.46.46,0,0,1-.25.4c-.42.23-.88.47-1.36.68Zm3.25-8.46a16.81,16.81,0,0,1-.92,1.61.54.54,0,0,1-.44.26.42.42,0,0,1-.42-.43.69.69,0,0,1,.13-.38,14.85,14.85,0,0,0,1.86-4.48.51.51,0,0,1,.49-.42.5.5,0,0,1,.52.5,1,1,0,0,1,0,.17,14.37,14.37,0,0,1-.8,2.31h3.88c1.28,0,1.71.55,1.68,1.51a36.28,36.28,0,0,1-.54,5.85c-.34,1.64-1,2.06-2,2.06a3.49,3.49,0,0,1-1-.14.48.48,0,0,1-.34-.47.49.49,0,0,1,.63-.49,2.73,2.73,0,0,0,.73.1c.45,0,.77-.2,1-1.19a32.8,32.8,0,0,0,.56-5.65c0-.54-.14-.72-.66-.72h-.26c-.39,3.62-1.63,6.34-3.78,8.26a.62.62,0,0,1-.4.16.48.48,0,0,1-.49-.45.72.72,0,0,1,.27-.48,11.3,11.3,0,0,0,3.43-7.49h-1.16a11.83,11.83,0,0,1-3.56,6.58.69.69,0,0,1-.41.17.41.41,0,0,1-.42-.41.63.63,0,0,1,.26-.46,11,11,0,0,0,3.16-5.88Z"/><path class="cls-7" d="M165.61,136.12c1.24,0,1.66.52,1.66,1.5v6.89h1.21a.45.45,0,0,1,0,.89H156.53a.45.45,0,0,1,0-.89h1.2v-6.89c0-1,.42-1.5,1.67-1.5h1.88a21.07,21.07,0,0,0,.85-2.08.55.55,0,0,1,.53-.37.5.5,0,0,1,.54.48.63.63,0,0,1,0,.22,11.45,11.45,0,0,1-.85,1.75Zm-6,.84c-.68,0-.86.23-.86.8v6.75h1.79V137Zm1.91,0v7.55h1.84V137Zm2.82,7.55h1.93v-6.75c0-.57-.18-.8-.85-.8h-1.08Z"/><path class="cls-7" d="M173.78,138.29a.67.67,0,0,1,.17.41.51.51,0,0,1-.5.52.55.55,0,0,1-.39-.2,9,9,0,0,0-1.1-1,.53.53,0,0,1-.24-.42.46.46,0,0,1,.49-.43.59.59,0,0,1,.33.09A10.79,10.79,0,0,1,173.78,138.29Zm.35,2.78a.47.47,0,0,1,.47.49,1.37,1.37,0,0,1,0,.19,18,18,0,0,1-1.59,3.77.57.57,0,0,1-.5.31.46.46,0,0,1-.48-.46.74.74,0,0,1,.11-.34,14.74,14.74,0,0,0,1.5-3.54A.53.53,0,0,1,174.13,141.07Zm.47-6.19a.65.65,0,0,1,.17.42.52.52,0,0,1-.5.52.53.53,0,0,1-.42-.23,7.66,7.66,0,0,0-1-1,.56.56,0,0,1-.23-.41.5.5,0,0,1,.51-.46.51.51,0,0,1,.3.1A7.13,7.13,0,0,1,174.6,134.88Zm1.63,5.33c-.21.3-.41.56-.6.8a.55.55,0,0,1-.4.21.38.38,0,0,1-.39-.39.63.63,0,0,1,.18-.43,12.77,12.77,0,0,0,1.94-3.67.5.5,0,0,1,1,.09.79.79,0,0,1,0,.2,17.39,17.39,0,0,1-1.08,2.26.42.42,0,0,1,.33.43v6.09a.42.42,0,0,1-.46.44.43.43,0,0,1-.46-.44Zm7.91-5.15a.41.41,0,0,1,.42.43.42.42,0,0,1-.42.44h-8.29a.43.43,0,0,1-.43-.44.41.41,0,0,1,.43-.43h3.36v-1.23a.51.51,0,0,1,1,0v1.23Zm-1.92,2.65c.89,0,1.26.36,1.26.95a1.6,1.6,0,0,1,0,.42,9.79,9.79,0,0,1-1.86,3.8,8.67,8.67,0,0,0,2.63,1.86.56.56,0,0,1,.4.52.52.52,0,0,1-.51.52.72.72,0,0,1-.28-.07,8.24,8.24,0,0,1-2.85-2.15,11,11,0,0,1-2.63,2,.55.55,0,0,1-.27.06.43.43,0,0,1-.44-.42.53.53,0,0,1,.34-.47,9.67,9.67,0,0,0,2.43-1.89,8.92,8.92,0,0,1-1.26-2.43,6.71,6.71,0,0,1-.52.63.59.59,0,0,1-.42.2.36.36,0,0,1-.39-.36.53.53,0,0,1,.15-.35,11.37,11.37,0,0,0,2.2-3.87.46.46,0,0,1,.46-.34.47.47,0,0,1,.49.45.7.7,0,0,1,0,.23,6.86,6.86,0,0,1-.31.7Zm-1.89.82c-.19.38-.42.73-.64,1.1a9.2,9.2,0,0,0,.43,1.14,8.76,8.76,0,0,0,.84,1.38,8.29,8.29,0,0,0,1.5-3.14.89.89,0,0,0,0-.22c0-.2-.11-.26-.41-.26Zm1.18,1.32a.53.53,0,0,1,.12.35.41.41,0,0,1-.39.43.45.45,0,0,1-.39-.25,5.5,5.5,0,0,0-.43-.59.48.48,0,0,1-.14-.32.36.36,0,0,1,.37-.35.45.45,0,0,1,.35.16A3.06,3.06,0,0,1,181.51,139.85Z"/><path class="cls-7" d="M188.52,135a.42.42,0,0,1,0-.84h5.67a.42.42,0,0,1,0,.84h-1v2h1.44a.42.42,0,0,1,0,.84h-1.44v2.9a.48.48,0,0,1-1,0v-2.9h-1.78a5.14,5.14,0,0,1-1.72,3.57.59.59,0,0,1-.42.17.45.45,0,0,1-.47-.42.53.53,0,0,1,.21-.4,4.3,4.3,0,0,0,1.45-2.92H188.1a.42.42,0,0,1,0-.84h1.48v-2Zm11.11,9.95a.4.4,0,0,1,.4.43.42.42,0,0,1-.4.44h-11.5a.42.42,0,0,1-.41-.44.4.4,0,0,1,.41-.43h5.21v-1.52h-3.62a.43.43,0,0,1,0-.85h3.62v-1a.5.5,0,0,1,1,0v1H198a.43.43,0,0,1,0,.85h-3.71v1.52Zm-9.09-8.16v.17h1.72v-2h-1.72Zm5.4-1.87a.49.49,0,0,1,1,0v4c0,.22-.24.33-.48.33s-.49-.11-.49-.33Zm3.59,5.05c0,.9-.39,1.29-1.35,1.29a3.57,3.57,0,0,1-.63-.07.49.49,0,0,1-.43-.49.45.45,0,0,1,.57-.43,2.52,2.52,0,0,0,.49.05c.31,0,.37-.11.37-.47v-5.59a.45.45,0,0,1,.49-.42.44.44,0,0,1,.49.42Z"/><path class="cls-7" d="M159.32,169.3a10.56,10.56,0,0,0,4.48.66,46.68,46.68,0,0,0,4.76-.24.5.5,0,0,1,.55.51.47.47,0,0,1-.45.48c-1.63.15-3.12.21-4.9.21-3.7,0-5.51-.71-6.52-2.43a15.5,15.5,0,0,1-.66,2.33.45.45,0,0,1-.42.32.41.41,0,0,1-.4-.43.56.56,0,0,1,0-.21,17.64,17.64,0,0,0,.91-5.16.44.44,0,0,1,.45-.48.46.46,0,0,1,.46.51,13.39,13.39,0,0,1-.17,1.85,4.27,4.27,0,0,0,.94,1.45v-5h-2.1a.42.42,0,0,1,0-.84h2V161h-1.39a.42.42,0,0,1,0-.84h1.39v-1.5a.44.44,0,0,1,.46-.45.43.43,0,0,1,.46.45v1.5h1.37a.42.42,0,0,1,0,.84h-1.37v1.76h1.7a.42.42,0,0,1,0,.84h-1.61v1.79h1.41a.42.42,0,0,1,0,.84h-1.41Zm2-9.38a.38.38,0,0,1-.39-.41.37.37,0,0,1,.39-.4h5.55a.38.38,0,0,1,.4.4.4.4,0,0,1-.4.41h-1.82v9.22a.42.42,0,0,1-.45.42.42.42,0,0,1-.45-.42V167.4a21.52,21.52,0,0,1-3,.78.46.46,0,0,1-.58-.43.46.46,0,0,1,.43-.45l.94-.17v-7.21Zm2.83,1.68v-1.68h-1.34v1.68Zm0,2.48v-1.7h-1.34v1.7Zm-1.34,2.84c.44-.11.89-.22,1.34-.36v-1.7h-1.34Zm4.56-5.77c.86,0,1.18.44,1.09,1.22a14.92,14.92,0,0,1-.74,3.29,17.78,17.78,0,0,1,1,2,.64.64,0,0,1,.07.28.46.46,0,0,1-.46.48.55.55,0,0,1-.48-.38,11.93,11.93,0,0,0-.56-1.22,11.46,11.46,0,0,1-1.1,1.93.57.57,0,0,1-.45.24.4.4,0,0,1-.42-.39.66.66,0,0,1,.14-.37,10,10,0,0,0,1.3-2.42,14.37,14.37,0,0,0-1.15-1.75.52.52,0,0,1-.11-.32.42.42,0,0,1,.42-.41.53.53,0,0,1,.41.21c.24.31.52.72.8,1.15a12.9,12.9,0,0,0,.43-2.28c0-.33-.06-.4-.35-.4h-1.36a.41.41,0,0,1,0-.81Z"/><path class="cls-7" d="M173.58,167.23c-.91,0-1.33-.33-1.34-1.29v-5.08c0-.91.42-1.29,1.34-1.29h1c.93,0,1.35.38,1.35,1.29v5.08c0,.91-.42,1.29-1.35,1.29Zm.8-.87c.41,0,.52-.15.52-.54V161c0-.4-.13-.54-.52-.54h-.62c-.39,0-.52.14-.52.54v4.84c0,.4.13.54.52.54Zm6.65-1.51a15.35,15.35,0,0,0,3.38,3.85.62.62,0,0,1,.26.49.51.51,0,0,1-.5.52.59.59,0,0,1-.39-.17,14.91,14.91,0,0,1-3.15-3.95l.07,2.17v3.1a.44.44,0,0,1-.49.43.45.45,0,0,1-.49-.43v-3.11l.07-2.07a15,15,0,0,1-4.15,4.13.67.67,0,0,1-.35.11.44.44,0,0,1-.46-.43.51.51,0,0,1,.29-.45,14.67,14.67,0,0,0,4.19-4.19h-2.44a.44.44,0,0,1,0-.87h2.85v-2.14h-2.26a.45.45,0,0,1,0-.9h2.26v-2.09a.45.45,0,0,1,.49-.44.45.45,0,0,1,.49.44v2.09h2.55a.45.45,0,0,1,0,.9H180.7V164h3.41a.44.44,0,0,1,0,.87Z"/><path class="cls-7" d="M633.24,87.2a.95.95,0,1,1-.94-.94A.94.94,0,0,1,633.24,87.2Zm0,5.17a.95.95,0,1,1-.94-.94A.94.94,0,0,1,633.24,92.37Z"/><path class="cls-7" d="M646.65,86.18a21.65,21.65,0,0,1-1.74,1.64.55.55,0,0,1-.4.17.62.62,0,0,1-.65-.62.55.55,0,0,1,.26-.46c.81-.65,1.59-1.32,2.22-1.89a1.17,1.17,0,0,1,.86-.31.71.71,0,0,1,.73.77v8.78a.59.59,0,0,1-.65.65.58.58,0,0,1-.63-.65Z"/><path class="cls-7" d="M656.74,91a3,3,0,0,1-3.2-3.14,3.34,3.34,0,0,1,6.68,0,7.16,7.16,0,0,1-1,3.64,10,10,0,0,1-2.79,3.24.68.68,0,0,1-.45.21.59.59,0,0,1-.62-.55.51.51,0,0,1,.23-.43,8.59,8.59,0,0,0,2.88-3.52A3.17,3.17,0,0,1,656.74,91Zm-1.93-3.14a2,2,0,0,0,2,2.16,2.34,2.34,0,0,0,2-1,4.29,4.29,0,0,0,.12-1.2,2,2,0,0,0-2.09-2.17A2,2,0,0,0,654.81,87.82Z"/><path class="cls-7" d="M663.8,87.17a2.69,2.69,0,0,1,3-2.53c1.81,0,3,1.09,3,2.51A2.4,2.4,0,0,1,668,89.46c1.64.63,2.29,1.44,2.29,2.73,0,1.67-1.33,2.84-3.4,2.84s-3.4-1.12-3.4-2.78c0-1.18.67-2,2.21-2.58A2.59,2.59,0,0,1,663.8,87.17Zm.92,5c0,1.15.82,1.83,2.16,1.83s2.16-.65,2.16-1.83c0-1-.52-1.56-2.38-2.12C665.4,90.51,664.72,91.17,664.72,92.19Zm2-6.56A1.57,1.57,0,0,0,665,87.19c0,.89.49,1.47,2,1.9a1.94,1.94,0,0,0,1.52-1.9A1.59,1.59,0,0,0,666.77,85.63Z"/><path class="cls-7" d="M679.41,93.72a.55.55,0,1,1,0,1.09h-5.18a.69.69,0,0,1-.59-.73,1.16,1.16,0,0,1,.42-.84,35.48,35.48,0,0,0,3.18-3.19,4,4,0,0,0,1.21-2.59,1.54,1.54,0,0,0-1.6-1.73,2.93,2.93,0,0,0-2,1,.55.55,0,0,1-.43.21.62.62,0,0,1-.62-.63.55.55,0,0,1,.2-.4,4.22,4.22,0,0,1,2.81-1.22,2.66,2.66,0,0,1,2.95,2.82c0,1.16-.49,2.11-1.71,3.4s-2.12,2.09-3,2.86Z"/><path class="cls-7" d="M685.78,89.51c0-.78.43-1.26,1.5-1.26h2.35v-2h-3.16a15.69,15.69,0,0,1-2.24,3,.48.48,0,0,1-.84-.3.49.49,0,0,1,.16-.35,15.29,15.29,0,0,0,3-4.94.46.46,0,0,1,.46-.3.53.53,0,0,1,.55.5.6.6,0,0,1,0,.22c-.17.41-.35.83-.56,1.25h8.21a.45.45,0,0,1,0,.9h-4.5v2h3.43a.4.4,0,0,1,.39.45.4.4,0,0,1-.39.45h-3.43V91.6h5a.45.45,0,0,1,0,.9h-5v3.43c0,.28-.25.42-.52.42a.47.47,0,0,1-.52-.42V92.5h-5.89a.45.45,0,0,1,0-.9h2Zm3.85,2.09V89.15H687.5c-.57,0-.71.15-.71.55v1.9Z"/><path class="cls-7" d="M699.77,92.54a.77.77,0,0,1-.87-.79,1.79,1.79,0,0,1,.29-.93l3.28-5.51a1.23,1.23,0,0,1,1.11-.67c.57,0,.91.29.91,1.12v5.78h1c.36,0,.62.17.62.51s-.26.49-.62.49h-1V94.4a.55.55,0,0,1-.61.6.54.54,0,0,1-.59-.6V92.54Zm3.52-4.64c0-.71,0-1.41.05-2.13h-.1c-.34.63-.67,1.28-1,1.9L700,91.54h3.33Z"/><path class="cls-7" d="M712.28,91.18a7.48,7.48,0,0,1-2.69,4.76.57.57,0,0,1-.36.14.47.47,0,0,1-.48-.45.56.56,0,0,1,.23-.43c1.66-1.41,2.5-3.28,2.5-7.17V85.44c0-1,.45-1.5,1.76-1.5h3.65c1.3,0,1.75.52,1.75,1.5v9c0,1-.46,1.47-1.59,1.47a3.8,3.8,0,0,1-1.06-.11.52.52,0,0,1-.39-.5.5.5,0,0,1,.49-.52.51.51,0,0,1,.17,0,3,3,0,0,0,.73.08c.42,0,.62-.14.62-.57V91.18Zm5.33-.9V88h-5.09v.28c0,.67,0,1.34-.1,2Zm0-3.19V85.56c0-.53-.17-.7-.94-.7h-3.21c-.77,0-.94.17-.94.7v1.53Z"/><path class="cls-7" d="M726.19,91A3,3,0,0,1,723,87.82a3.34,3.34,0,0,1,6.68,0,7.16,7.16,0,0,1-.95,3.64,10,10,0,0,1-2.79,3.24.68.68,0,0,1-.45.21.59.59,0,0,1-.62-.55.51.51,0,0,1,.23-.43A8.59,8.59,0,0,0,728,90.41,3.17,3.17,0,0,1,726.19,91Zm-1.94-3.14a2,2,0,0,0,2,2.16,2.34,2.34,0,0,0,2-1,4.29,4.29,0,0,0,.12-1.2,2,2,0,0,0-2.08-2.17A2,2,0,0,0,724.25,87.82Z"/><path class="cls-7" d="M735.76,95.42c-1.15,0-1.82-.39-1.85-1.61V86.26c0-1,.49-1.61,1.85-1.61h4.4c1.36,0,1.85.61,1.85,1.61v7.55c0,1-.49,1.61-1.85,1.61Zm5.18-9c0-.61-.26-.85-1-.85H736c-.77,0-1,.24-1,.85v3h6Zm-1,8.07c.64,0,1-.13,1-.85V90.31h-6v3.34c0,.61.26.85,1,.85Z"/><path class="cls-7" d="M633.24,112.2a.95.95,0,1,1-.94-.94A.94.94,0,0,1,633.24,112.2Zm0,5.17a.95.95,0,1,1-.94-.94A.94.94,0,0,1,633.24,117.37Z"/><path class="cls-7" d="M650.33,113.16c0,.18,0,.37,0,.56h4.43a.5.5,0,0,1,.5.53.5.5,0,0,1-.5.53h-4.51a7.32,7.32,0,0,1-3.48,5.77.67.67,0,0,1-.38.11.51.51,0,0,1-.51-.52.61.61,0,0,1,.33-.53,6.16,6.16,0,0,0,2.94-4.83h-4.79a.5.5,0,0,1-.5-.53.5.5,0,0,1,.5-.53h4.88c0-.2,0-.4,0-.61v-1.87c-1.1.16-2.24.29-3.28.35a.53.53,0,1,1,0-1,27.5,27.5,0,0,0,6.85-1.25.75.75,0,0,1,.24,0,.53.53,0,0,1,.55.53.63.63,0,0,1-.51.59,21.23,21.23,0,0,1-2.72.67Z"/><path class="cls-7" d="M665.18,113.73c0-.35-.19-.53-.73-.53h-4.71a.49.49,0,0,1,0-1h4.89c1,0,1.57.48,1.57,1.26V119c0,.8-.51,1.27-1.53,1.27h-5.11a.45.45,0,0,1-.46-.49.44.44,0,0,1,.46-.47h4.89c.54,0,.73-.19.73-.62v-2.1h-5a.46.46,0,0,1-.46-.49.46.46,0,0,1,.46-.49h5Z"/><path class="cls-7" d="M679,112.64c0-.49-.19-.65-.86-.65h-6.38a.53.53,0,0,1,0-1.06h6.59c1.19,0,1.78.53,1.78,1.47v5.35c0,.94-.59,1.47-1.78,1.47h-6.81a.5.5,0,0,1-.51-.53.5.5,0,0,1,.51-.53h6.6c.67,0,.86-.16.86-.65Z"/><path class="cls-7" d="M687.35,118c0,.41.11.59.39.59a1.16,1.16,0,0,0,.34-.06,15.28,15.28,0,0,0,6.36-4.28.67.67,0,0,1,.52-.27.57.57,0,0,1,.57.55.71.71,0,0,1-.21.47,17,17,0,0,1-7,4.61,2.67,2.67,0,0,1-.88.15c-.8,0-1.29-.49-1.29-1.45v-7.72a.54.54,0,0,1,.58-.53.53.53,0,0,1,.57.53Z"/><path class="cls-7" d="M709.17,114.33a.55.55,0,0,1,0,1.09H699a.55.55,0,0,1,0-1.09Z"/><path class="cls-7" d="M716,113.34a.49.49,0,0,1,.46-.28.71.71,0,0,1,.27,0,18.83,18.83,0,0,1,3.44,2,.62.62,0,0,1,.28.5.58.58,0,0,1-.56.58.74.74,0,0,1-.39-.14,19,19,0,0,0-3.21-2,.64.64,0,0,1-.29-.27v6.36a.56.56,0,0,1-1.12,0v-10.7a.56.56,0,0,1,1.12,0Z"/><path class="cls-7" d="M728,114.81a1.25,1.25,0,0,1-1.25,1.23,1.22,1.22,0,0,1-1.23-1.23,1.25,1.25,0,0,1,1.23-1.25A1.28,1.28,0,0,1,728,114.81Z"/><path class="cls-7" d="M737.06,114.92a8.71,8.71,0,0,1,2.76-.43c2,0,3.41,1,3.41,2.55,0,1.75-1.18,2.75-3,3a.51.51,0,0,1-.63-.5.56.56,0,0,1,.52-.52c1.45-.18,2.06-.85,2.06-1.93,0-.9-.75-1.63-2.3-1.63a8.08,8.08,0,0,0-2.78.5v2.5c0,1.23-.54,1.78-1.58,1.78a2.24,2.24,0,0,1-2.32-1.85c0-.84.54-1.93,2.9-3.09v-2.85c-.75.09-1.48.14-2.09.16a.5.5,0,0,1-.53-.51.49.49,0,0,1,.53-.5c.61,0,1.34-.07,2.09-.17v-2.24a.5.5,0,1,1,1,0v2.1c.64-.1,1.24-.21,1.73-.34l.18,0a.47.47,0,0,1,.5.47.57.57,0,0,1-.44.53,20.05,20.05,0,0,1-2,.4Zm-1,1.4c-1.56.9-1.82,1.53-1.82,2s.6.82,1.21.82.59-.31.61-.72ZM744,112a.66.66,0,0,1,.24.49.56.56,0,0,1-.54.56.62.62,0,0,1-.44-.19,9,9,0,0,0-1.85-1.42.53.53,0,0,1-.31-.46.52.52,0,0,1,.54-.5.59.59,0,0,1,.3.07A9,9,0,0,1,744,112Z"/><path class="cls-7" d="M755.29,111.39c-1.82.24-4.24.56-6.65.91a.56.56,0,0,1-.71-.53.57.57,0,0,1,.57-.55c2.89-.38,6.42-.77,9.3-1a.55.55,0,0,1,.69.51.58.58,0,0,1-.51.55,4.67,4.67,0,0,0-1.58.55,4.93,4.93,0,0,0-2.86,4.28c0,1.63,1.26,2.78,3.23,3a.57.57,0,1,1-.09,1.13c-2.49-.17-4.23-1.83-4.23-4a5.8,5.8,0,0,1,2.84-4.77Zm1.31,2.44a.41.41,0,0,1,.42-.39.48.48,0,0,1,.28.09,8.06,8.06,0,0,1,1.3,1.31.6.6,0,0,1,.13.33.44.44,0,0,1-.42.44.43.43,0,0,1-.34-.19,10,10,0,0,0-1.22-1.27A.42.42,0,0,1,756.6,113.83Zm1.2-1.08a.43.43,0,0,1,.42-.42.53.53,0,0,1,.3.11,8.77,8.77,0,0,1,1.27,1.25.58.58,0,0,1,.13.33.44.44,0,0,1-.41.44.45.45,0,0,1-.31-.17A10.47,10.47,0,0,0,758,113,.34.34,0,0,1,757.8,112.75Z"/><path class="cls-7" d="M766.16,115.13a2.82,2.82,0,0,1,1.82-.76c1.08,0,1.71.77,1.81,2.79.06,1.54.43,2,1.16,2s1.58-.51,2.1-2a.56.56,0,0,1,.52-.41.51.51,0,0,1,.5.53.92.92,0,0,1,0,.26c-.73,2-1.84,2.64-3.12,2.64s-2.11-.74-2.2-2.91c-.07-1.54-.37-2-1-2-.87,0-1.91,1-2.65,2.57-.21.42-.54,1.19-.84,1.79a.67.67,0,0,1-.57.39.5.5,0,0,1-.51-.49.93.93,0,0,1,.07-.29c1.39-3.16,3.07-6.78,4.5-9.51a.57.57,0,0,1,.5-.34.54.54,0,0,1,.56.52.68.68,0,0,1-.08.31l-2.52,4.86Z"/><path class="cls-7" d="M633.24,137.2a.95.95,0,1,1-.94-.94A.94.94,0,0,1,633.24,137.2Zm0,5.17a.95.95,0,1,1-.94-.94A.94.94,0,0,1,633.24,142.37Z"/><path class="cls-7" d="M643.67,139.71c0-3.36,1.94-5.29,4.44-5.29s4.44,1.91,4.44,5.29-1.93,5.32-4.44,5.32S643.67,143.1,643.67,139.71Zm7.53,0c0-2.58-1.22-4.22-3.09-4.22s-3.1,1.64-3.1,4.22,1.22,4.24,3.1,4.24S651.2,142.32,651.2,139.71Z"/><path class="cls-7" d="M656.74,135a.42.42,0,0,1,0-.84h5.68a.42.42,0,0,1,0,.84h-1v2h1.44a.42.42,0,0,1,0,.84h-1.44v2.9a.48.48,0,0,1-1,0v-2.9H658.7a5.1,5.1,0,0,1-1.72,3.57.59.59,0,0,1-.42.17.45.45,0,0,1-.46-.42.53.53,0,0,1,.21-.4,4.25,4.25,0,0,0,1.44-2.92h-1.43a.42.42,0,0,1,0-.84h1.49v-2Zm11.11,9.95a.4.4,0,0,1,.41.43.42.42,0,0,1-.41.44h-11.5a.41.41,0,0,1-.4-.44.4.4,0,0,1,.4-.43h5.21v-1.52H658a.43.43,0,0,1,0-.85h3.61v-1a.5.5,0,0,1,1,0v1h3.71a.43.43,0,0,1,0,.85h-3.71v1.52Zm-9.09-8.16v.17h1.72v-2h-1.72Zm5.41-1.87a.45.45,0,0,1,.49-.45.44.44,0,0,1,.47.45v4c0,.22-.23.33-.47.33s-.49-.11-.49-.33Zm3.58,5.05c0,.9-.39,1.29-1.34,1.29a3.47,3.47,0,0,1-.63-.07.49.49,0,0,1-.44-.49.45.45,0,0,1,.58-.43,2.38,2.38,0,0,0,.49.05c.31,0,.36-.11.36-.47v-5.59a.45.45,0,0,1,.49-.42.44.44,0,0,1,.49.42Z"/><path class="cls-7" d="M633.24,162.2a.95.95,0,1,1-.94-.94A.94.94,0,0,1,633.24,162.2Zm0,5.17a.95.95,0,1,1-.94-.94A.94.94,0,0,1,633.24,167.37Z"/><path class="cls-7" d="M645.64,165a.55.55,0,0,1,.2.41.5.5,0,0,1-.48.49.6.6,0,0,1-.39-.18,9.16,9.16,0,0,0-1.18-1,.54.54,0,0,1-.26-.42.44.44,0,0,1,.46-.42.75.75,0,0,1,.31.08A8.4,8.4,0,0,1,645.64,165Zm5.58-5.35v-.81a.43.43,0,0,1,.47-.42.43.43,0,0,1,.47.42v.81h3.41a.37.37,0,0,1,.38.39.37.37,0,0,1-.38.41h-3.41v.66a.43.43,0,0,1-.47.42.43.43,0,0,1-.47-.42v-.66h-3v.69a.43.43,0,0,1-.46.42.44.44,0,0,1-.48-.42v-.69H644a.38.38,0,0,1-.38-.41.37.37,0,0,1,.38-.39h3.31v-.81a.44.44,0,0,1,.48-.42.43.43,0,0,1,.46.42v.81Zm-5,7.27a.45.45,0,0,1,.47.46.7.7,0,0,1,0,.23,15.1,15.1,0,0,1-1.73,3.22.59.59,0,0,1-.48.25.47.47,0,0,1-.49-.46.6.6,0,0,1,.15-.38,12.57,12.57,0,0,0,1.63-2.94A.5.5,0,0,1,646.19,166.88Zm.5-4.26a.59.59,0,0,1,.17.38.49.49,0,0,1-.49.49.55.55,0,0,1-.41-.2,8.62,8.62,0,0,0-1.12-1,.52.52,0,0,1-.25-.41.45.45,0,0,1,.46-.42.68.68,0,0,1,.37.11A7.43,7.43,0,0,1,646.69,162.62Zm6.19-.15c.77,0,1.25.36,1.25.87a1.22,1.22,0,0,1-.35.78,11.45,11.45,0,0,1-1.26,1.25,13.94,13.94,0,0,0,3.28,1.44.56.56,0,0,1,.46.52.48.48,0,0,1-.5.46.7.7,0,0,1-.23,0,14.79,14.79,0,0,1-3.72-1.83,15.68,15.68,0,0,1-4.08,2.07.49.49,0,0,1-.2,0,.43.43,0,0,1-.45-.41.49.49,0,0,1,.38-.45,13.92,13.92,0,0,0,3.6-1.79,9.27,9.27,0,0,1-1.43-1.37,8.56,8.56,0,0,1-1.31,1.26.61.61,0,0,1-.34.12.41.41,0,0,1-.43-.4.49.49,0,0,1,.22-.4,9.68,9.68,0,0,0,2.31-2.85.54.54,0,0,1,.46-.31.43.43,0,0,1,.45.42.53.53,0,0,1-.07.28,3,3,0,0,1-.19.35ZM650.46,171c-.83,0-1.36-.23-1.39-1.14v-1.34c0-.74.41-1.12,1.39-1.12h2.45c1,0,1.45.38,1.45,1.12v1.34c0,.77-.41,1.14-1.39,1.14Zm2.42-.8c.38,0,.52-.09.52-.49v-1c0-.35-.11-.49-.57-.49H650.6c-.48,0-.57.14-.57.49v1c0,.35.09.49.57.49Zm-2.67-6.95-.06.07a8.41,8.41,0,0,0,1.6,1.5,7.35,7.35,0,0,0,1.15-1.15.41.41,0,0,0,.11-.25c0-.11-.11-.17-.35-.17Z"/><path class="cls-7" d="M661.29,163.24a.39.39,0,0,1-.39-.41.38.38,0,0,1,.39-.4h3.62v-.76h-5.35a.38.38,0,0,1-.38-.41.37.37,0,0,1,.38-.4h5.35v-.74h-3.48a.39.39,0,0,1-.39-.41.39.39,0,0,1,.39-.41h3.48v-.66a.48.48,0,0,1,1,0v.66h2.33c1.09,0,1.45.37,1.45,1v.58h1.77a.37.37,0,0,1,.38.4.39.39,0,0,1-.38.41h-1.77v.57c0,.65-.36,1-1.45,1h-2.33V164h4.44a.38.38,0,0,1,.38.4.37.37,0,0,1-.38.4h-4.44v.7h5.6a.41.41,0,0,1,0,.81h-12a.41.41,0,0,1,0-.81h5.44v-.7h-4.18a.36.36,0,0,1-.37-.4.37.37,0,0,1,.37-.4h4.18v-.71Zm1.43,7.79c-.77,0-1.45-.18-1.47-1.08V168c0-.68.44-1.06,1.47-1.06h5.59c1,0,1.47.38,1.47,1.06V170c0,.71-.43,1.08-1.47,1.08Zm6.08-2.9c0-.3-.11-.41-.6-.41h-5.37c-.49,0-.6.11-.6.41v.43h6.57Zm-.6,2.11c.32,0,.6,0,.6-.4v-.51h-6.57v.51c0,.29.11.4.6.4Zm-2.34-9.38h2.83v-.44c0-.25-.14-.3-.66-.3h-2.17Zm0,.81v.76H668c.52,0,.66-.06.66-.33v-.43Z"/><path class="cls-7" d="M682.13,166.62a14.59,14.59,0,0,1-1.57-2.22,39.58,39.58,0,0,1-4.24.51.53.53,0,0,1-.62-.49.49.49,0,0,1,.53-.48,34.22,34.22,0,0,0,3.9-.44,15.26,15.26,0,0,1-.77-1.7c-1,.16-2.09.3-3,.36a.49.49,0,0,1-.57-.48.49.49,0,0,1,.53-.47,26.71,26.71,0,0,0,2.72-.31c-.18-.55-.34-1.09-.46-1.62a.46.46,0,0,1,.5-.57.52.52,0,0,1,.53.42c.12.52.27,1.06.44,1.59a24.61,24.61,0,0,0,2.59-.6.74.74,0,0,1,.24-.05.45.45,0,0,1,.49.45c0,.2-.13.39-.45.49a23.33,23.33,0,0,1-2.55.62c.22.57.48,1.13.74,1.69a23.66,23.66,0,0,0,2.79-.7.51.51,0,0,1,.21,0,.49.49,0,0,1,.52.48.53.53,0,0,1-.44.49c-.78.24-1.68.46-2.63.66a17.67,17.67,0,0,0,1.81,2.46.73.73,0,0,1,.19.49.56.56,0,0,1-.58.59.78.78,0,0,1-.26,0,9.11,9.11,0,0,0-3.12-.56c-1.74,0-2.45.6-2.45,1.35s.67,1.27,2.87,1.27c.56,0,1,0,1.37-.06a.5.5,0,0,1,.56.52.51.51,0,0,1-.47.51,13.45,13.45,0,0,1-1.43.07c-2.78,0-4-1-4-2.29,0-1.16.92-2.29,3.53-2.29a8.44,8.44,0,0,1,2.55.4Z"/><path class="cls-7" d="M537.38,87.68a16.64,16.64,0,0,1-1.51,2.9.54.54,0,0,1-.42.22.5.5,0,0,1-.52-.46A.58.58,0,0,1,535,90a16.65,16.65,0,0,0,2.23-5.33.46.46,0,0,1,.47-.36.49.49,0,0,1,.54.58c-.14.6-.34,1.25-.56,1.89h3.15V83.69a.47.47,0,0,1,.52-.45.46.46,0,0,1,.51.45v3.12h4.46a.39.39,0,0,1,.38.43.4.4,0,0,1-.38.44H541.9v2.76h3.63a.39.39,0,0,1,.38.43.41.41,0,0,1-.38.44H541.9V94.6h5.24a.4.4,0,0,1,.38.45.41.41,0,0,1-.38.45H535.53a.41.41,0,0,1-.38-.45.4.4,0,0,1,.38-.45h5.34V91.31h-3.41a.41.41,0,0,1-.38-.44.39.39,0,0,1,.38-.43h3.41V87.68Z"/><path class="cls-7" d="M553,89.51c0-.78.43-1.26,1.5-1.26h2.35v-2H553.7a14.91,14.91,0,0,1-2.24,3,.47.47,0,0,1-.35.16.49.49,0,0,1-.49-.46.51.51,0,0,1,.17-.35,15.46,15.46,0,0,0,3-4.94.45.45,0,0,1,.46-.3.53.53,0,0,1,.55.5.63.63,0,0,1,0,.22c-.16.41-.35.83-.56,1.25h8.21a.45.45,0,0,1,0,.9h-4.49v2h3.43a.41.41,0,0,1,.39.45.41.41,0,0,1-.39.45h-3.43V91.6h5a.45.45,0,0,1,0,.9h-5v3.43c0,.28-.26.42-.52.42s-.52-.14-.52-.42V92.5H551a.45.45,0,0,1,0-.9h2Zm3.85,2.09V89.15h-2.13c-.57,0-.71.15-.71.55v1.9Z"/><path class="cls-7" d="M569.55,91.18a7.48,7.48,0,0,1-2.69,4.76.57.57,0,0,1-.36.14.47.47,0,0,1-.48-.45.56.56,0,0,1,.23-.43c1.66-1.41,2.5-3.28,2.5-7.17V85.44c0-1,.45-1.5,1.75-1.5h3.66c1.3,0,1.75.52,1.75,1.5v9c0,1-.46,1.47-1.6,1.47a3.76,3.76,0,0,1-1-.11.52.52,0,0,1-.39-.5.49.49,0,0,1,.49-.52.51.51,0,0,1,.17,0,3,3,0,0,0,.73.08c.42,0,.61-.14.61-.57V91.18Zm5.32-.9V88h-5.08v.28c0,.67,0,1.34-.1,2Zm0-3.19V85.56c0-.53-.16-.7-.93-.7h-3.21c-.77,0-.94.17-.94.7v1.53Z"/><path class="cls-7" d="M583.06,95.42c-1.15,0-1.82-.39-1.85-1.61V86.26c0-1,.49-1.61,1.85-1.61h4.4c1.36,0,1.85.61,1.85,1.61v7.55c0,1-.49,1.61-1.85,1.61Zm5.18-9c0-.61-.26-.85-1-.85h-3.9c-.77,0-1,.24-1,.85v3h6Zm-1,8.07c.64,0,1-.13,1-.85V90.31h-6v3.34c0,.61.26.85,1,.85Z"/><path class="cls-7" d="M538.6,111.4c1,0,1.38.51,1.31,1.35a12.08,12.08,0,0,1-1.26,4.5,11,11,0,0,1,1.53,1.26.61.61,0,0,1,.2.43.48.48,0,0,1-.47.48.52.52,0,0,1-.37-.19,10.76,10.76,0,0,0-1.32-1.17,9.48,9.48,0,0,1-2.28,2.63.61.61,0,0,1-.37.14.43.43,0,0,1-.43-.42.53.53,0,0,1,.24-.42,8.24,8.24,0,0,0,2.1-2.48,11.53,11.53,0,0,0-1.11-.7.52.52,0,0,1-.5.36.44.44,0,0,1-.47-.44.54.54,0,0,1,.05-.21,41.15,41.15,0,0,0,1.16-4.26h-1.29a.39.39,0,0,1-.39-.44.38.38,0,0,1,.39-.42h1.46c.17-.81.3-1.66.43-2.53a.46.46,0,0,1,.48-.39.47.47,0,0,1,.5.52c-.12.81-.26,1.62-.42,2.4Zm-1,.86c-.29,1.27-.59,2.53-1,3.77.44.21.84.46,1.26.71a12,12,0,0,0,1-3.95c0-.42-.06-.53-.48-.53Zm3.08,3.11a.44.44,0,0,1-.44-.46.43.43,0,0,1,.44-.45h2.68v-2.34a.46.46,0,0,1,.49-.45.48.48,0,0,1,.31.1,6.27,6.27,0,0,0,1.3-1.33.29.29,0,0,0,.06-.17c0-.1-.09-.15-.28-.15h-4a.42.42,0,0,1-.44-.44.44.44,0,0,1,.44-.46h4.21c.73,0,1.15.36,1.15.85a1.26,1.26,0,0,1-.28.76,7.19,7.19,0,0,1-2,1.88v1.75h2.82a.42.42,0,0,1,.44.45.43.43,0,0,1-.44.46h-2.82v4.19c0,1-.45,1.5-1.53,1.5a4.1,4.1,0,0,1-1-.1.51.51,0,0,1-.45-.51.5.5,0,0,1,.6-.5,4.7,4.7,0,0,0,.8.08c.41,0,.56-.12.56-.6v-4.06Z"/><path class="cls-7" d="M557.88,116.62a14.59,14.59,0,0,1-1.57-2.22,39.58,39.58,0,0,1-4.24.51.53.53,0,0,1-.62-.49.49.49,0,0,1,.53-.48,33.79,33.79,0,0,0,3.89-.44c-.29-.55-.53-1.12-.77-1.7-1,.16-2.08.3-3,.36a.48.48,0,0,1-.57-.48.49.49,0,0,1,.53-.47,26.71,26.71,0,0,0,2.72-.31c-.18-.55-.34-1.09-.46-1.62a.46.46,0,0,1,.5-.57.52.52,0,0,1,.53.42,16.46,16.46,0,0,0,.44,1.59,25.21,25.21,0,0,0,2.59-.6.74.74,0,0,1,.24-.05.46.46,0,0,1,.49.45c0,.2-.13.39-.45.49a23.33,23.33,0,0,1-2.55.62c.22.57.48,1.13.74,1.69a23.66,23.66,0,0,0,2.79-.7.51.51,0,0,1,.21,0,.49.49,0,0,1,.52.48.53.53,0,0,1-.44.49c-.78.24-1.68.46-2.63.66a17.67,17.67,0,0,0,1.81,2.46.73.73,0,0,1,.19.49.57.57,0,0,1-.59.59.77.77,0,0,1-.25,0,9.11,9.11,0,0,0-3.12-.56c-1.74,0-2.45.6-2.45,1.35s.67,1.27,2.87,1.27c.56,0,1,0,1.37-.06a.5.5,0,0,1,.56.52.51.51,0,0,1-.47.51,13.45,13.45,0,0,1-1.43.07c-2.78,0-4-1-4-2.29,0-1.16.92-2.29,3.53-2.29a8.33,8.33,0,0,1,2.54.4Z"/><path class="cls-7" d="M567.59,109.22a.49.49,0,0,1,.51-.42.52.52,0,0,1,.52.64c-.15.62-.3,1.25-.5,1.89.52-.07,1-.15,1.52-.25s.66.17.66.44a.57.57,0,0,1-.51.53c-.64.12-1.32.24-2,.33a24.57,24.57,0,0,1-2.21,4.81.64.64,0,0,1-.55.34.5.5,0,0,1-.51-.49.85.85,0,0,1,.13-.4,20.05,20.05,0,0,0,2-4.13c-.6.06-1.21.1-1.75.13a.53.53,0,0,1-.58-.52.51.51,0,0,1,.52-.51c.64,0,1.39-.07,2.16-.15C567.24,110.72,567.44,110,567.59,109.22Zm3.1,6.08a5.88,5.88,0,0,1,.12-1.32.48.48,0,0,1,.49-.4.46.46,0,0,1,.49.53,5.6,5.6,0,0,0-.11,1.17,11.18,11.18,0,0,0,.25,2.11,9.79,9.79,0,0,1,2.51,1.17.59.59,0,0,1,.31.51.5.5,0,0,1-.49.51.48.48,0,0,1-.32-.11,11.42,11.42,0,0,0-1.86-1v.14a1.94,1.94,0,0,1-2.19,2c-1.65,0-2.47-.74-2.47-1.82,0-.92.82-1.73,2.61-1.73a6.35,6.35,0,0,1,.85.07A11.41,11.41,0,0,1,570.69,115.3Zm.36,3.21a2.6,2.6,0,0,0,0-.4,4.37,4.37,0,0,0-1-.12c-1.17,0-1.58.36-1.58.82s.35.89,1.43.89A1.06,1.06,0,0,0,571.05,118.51Zm3.94-6.2a.7.7,0,0,1,.35.56.5.5,0,0,1-.49.51.71.71,0,0,1-.37-.11,10.25,10.25,0,0,0-2-1,.48.48,0,0,1-.35-.47.51.51,0,0,1,.52-.5l.21,0A9.6,9.6,0,0,1,575,112.31Z"/><path class="cls-7" d="M579.22,113.63a.65.65,0,0,1-.26.06.44.44,0,0,1-.46-.44.5.5,0,0,1,.35-.46,16.75,16.75,0,0,0,5.67-4.31.59.59,0,0,1,.47-.23.47.47,0,0,1,.51.41.3.3,0,0,1-.06.19,16.58,16.58,0,0,0,5.72,3.65.56.56,0,0,1,.43.51.5.5,0,0,1-.52.49.66.66,0,0,1-.23,0,17.37,17.37,0,0,1-5.93-4A19,19,0,0,1,579.22,113.63Zm3.3,6c.86-.14,1.72-.31,2.43-.48a.47.47,0,0,1,.62.42.48.48,0,0,1-.41.44,34.07,34.07,0,0,1-5.36.88.49.49,0,0,1-.58-.48.51.51,0,0,1,.55-.47c.57,0,1.16-.1,1.74-.17v-6.44c0-.72.4-1.15,1.5-1.15h1.48v-1a.46.46,0,0,1,.49-.46.46.46,0,0,1,.49.46v1H587c1.09,0,1.47.43,1.47,1.15v2.38c0,.71-.38,1.12-1.47,1.12h-1.45a8.54,8.54,0,0,0,1.25,1.3,14.46,14.46,0,0,0,2.76-1.79.59.59,0,0,1,.36-.14.48.48,0,0,1,.49.46.5.5,0,0,1-.22.38,22.86,22.86,0,0,1-2.68,1.64,10,10,0,0,0,3.2,1.38.56.56,0,0,1,.46.52.47.47,0,0,1-.5.48,1.52,1.52,0,0,1-.21,0,10.2,10.2,0,0,1-5.93-4.2h-2Zm4.93-6.18c0-.36-.13-.49-.76-.49h-3.42c-.63,0-.75.13-.75.49v.63h4.93Zm-.76,2.59c.63,0,.76-.12.76-.49v-.68h-4.93v1.17Z"/><path class="cls-7" d="M598.11,112.78a1.58,1.58,0,0,1,1-.37,1.34,1.34,0,0,1,.92.41,34.76,34.76,0,0,0,6.13,4.31.74.74,0,0,1,.44.63.56.56,0,0,1-.57.56.75.75,0,0,1-.37-.09,32.61,32.61,0,0,1-6.16-4.5.55.55,0,0,0-.41-.2.68.68,0,0,0-.42.19c-.83.65-1.89,1.51-2.9,2.31a.65.65,0,0,1-.4.15.54.54,0,0,1-.54-.53.73.73,0,0,1,.31-.55C596,114.4,597.09,113.55,598.11,112.78Zm4.27-1.24a.42.42,0,0,1,.43-.39.45.45,0,0,1,.27.1,7.32,7.32,0,0,1,1.31,1.3.64.64,0,0,1,.12.34.42.42,0,0,1-.42.43.41.41,0,0,1-.33-.18,10,10,0,0,0-1.22-1.27A.44.44,0,0,1,602.38,111.54Zm1.21-1.07a.43.43,0,0,1,.42-.42.48.48,0,0,1,.29.11,8.26,8.26,0,0,1,1.28,1.24.61.61,0,0,1,.12.34.42.42,0,0,1-.4.43A.43.43,0,0,1,605,112a10.54,10.54,0,0,0-1.25-1.25A.36.36,0,0,1,603.59,110.47Z"/><path class="cls-7" d="M613,120.82a.42.42,0,0,1-.46.42.43.43,0,0,1-.46-.42v-4.41c-.58.23-1.16.43-1.74.61a.69.69,0,0,1-.2,0,.45.45,0,0,1-.46-.46.51.51,0,0,1,.41-.49c.66-.2,1.34-.42,2-.68v-2.9H611a10.72,10.72,0,0,1-.44,1.35.5.5,0,0,1-.46.36.43.43,0,0,1-.43-.43.6.6,0,0,1,0-.22,13.44,13.44,0,0,0,.8-3.25.43.43,0,0,1,.43-.41.44.44,0,0,1,.47.5c-.05.41-.13.84-.21,1.28h1v-2.85a.43.43,0,0,1,.46-.42.42.42,0,0,1,.46.42v2.85h1.11a.4.4,0,0,1,.41.4.41.41,0,0,1-.41.42H613V115c.34-.15.65-.31.94-.46a.4.4,0,0,1,.25-.07.43.43,0,0,1,.42.43.46.46,0,0,1-.25.4c-.42.23-.88.47-1.36.68Zm3.25-8.46a16.81,16.81,0,0,1-.92,1.61.54.54,0,0,1-.44.26.42.42,0,0,1-.42-.43.78.78,0,0,1,.13-.38,14.6,14.6,0,0,0,1.86-4.48.51.51,0,0,1,.49-.42.5.5,0,0,1,.52.5.51.51,0,0,1,0,.17,13.46,13.46,0,0,1-.8,2.31h3.88c1.28,0,1.71.55,1.69,1.51a36.14,36.14,0,0,1-.55,5.85c-.34,1.64-1,2.06-1.95,2.06a3.53,3.53,0,0,1-1.05-.14.48.48,0,0,1-.34-.47.49.49,0,0,1,.64-.49,2.66,2.66,0,0,0,.72.1c.45,0,.77-.2,1-1.19a32.8,32.8,0,0,0,.56-5.65c0-.54-.14-.72-.65-.72h-.27c-.39,3.62-1.62,6.34-3.78,8.26a.62.62,0,0,1-.39.16.47.47,0,0,1-.49-.45.7.7,0,0,1,.26-.48,11.3,11.3,0,0,0,3.43-7.49h-1.16a11.83,11.83,0,0,1-3.56,6.58.68.68,0,0,1-.4.17.41.41,0,0,1-.42-.41.61.61,0,0,1,.25-.46,11,11,0,0,0,3.16-5.88Z"/><path class="cls-7" d="M544.33,136.12c1.24,0,1.66.52,1.66,1.5v6.89h1.21a.45.45,0,0,1,0,.89h-12a.45.45,0,0,1,0-.89h1.2v-6.89c0-1,.42-1.5,1.67-1.5H540a21.07,21.07,0,0,0,.85-2.08.55.55,0,0,1,.54-.37.5.5,0,0,1,.53.48.93.93,0,0,1,0,.22,12.43,12.43,0,0,1-.86,1.75Zm-6,.84c-.67,0-.86.23-.86.8v6.75h1.8V137Zm1.92,0v7.55h1.83V137Zm2.81,7.55H545v-6.75c0-.57-.19-.8-.86-.8h-1.08Z"/><path class="cls-7" d="M552.5,138.29a.67.67,0,0,1,.17.41.5.5,0,0,1-.49.52.55.55,0,0,1-.4-.2,8.3,8.3,0,0,0-1.1-1,.53.53,0,0,1-.24-.42.46.46,0,0,1,.49-.43.64.64,0,0,1,.34.09A9.93,9.93,0,0,1,552.5,138.29Zm.35,2.78a.48.48,0,0,1,.48.49,1.48,1.48,0,0,1,0,.19,18,18,0,0,1-1.59,3.77.57.57,0,0,1-.5.31.46.46,0,0,1-.48-.46.78.78,0,0,1,.12-.34,15.13,15.13,0,0,0,1.49-3.54A.53.53,0,0,1,552.85,141.07Zm.48-6.19a.69.69,0,0,1,.16.42.52.52,0,0,1-.5.52.53.53,0,0,1-.42-.23,7.66,7.66,0,0,0-1-1,.56.56,0,0,1-.23-.41.5.5,0,0,1,.51-.46.54.54,0,0,1,.31.1A7.58,7.58,0,0,1,553.33,134.88Zm1.62,5.33c-.21.3-.41.56-.6.8a.53.53,0,0,1-.4.21.38.38,0,0,1-.39-.39.68.68,0,0,1,.18-.43,12.77,12.77,0,0,0,1.94-3.67.5.5,0,0,1,1,.09.79.79,0,0,1,0,.2,17.39,17.39,0,0,1-1.08,2.26.42.42,0,0,1,.33.43v6.09a.42.42,0,0,1-.46.44.43.43,0,0,1-.46-.44Zm7.91-5.15a.41.41,0,0,1,.42.43.42.42,0,0,1-.42.44h-8.29a.43.43,0,0,1-.43-.44.41.41,0,0,1,.43-.43h3.36v-1.23a.46.46,0,0,1,.51-.45.45.45,0,0,1,.5.45v1.23ZM561,137.71c.88,0,1.26.36,1.26.95a1.64,1.64,0,0,1-.06.42,9.79,9.79,0,0,1-1.86,3.8,8.67,8.67,0,0,0,2.63,1.86.58.58,0,0,1,.41.52.52.52,0,0,1-.52.52.77.77,0,0,1-.28-.07,8.24,8.24,0,0,1-2.85-2.15,11,11,0,0,1-2.63,2,.54.54,0,0,1-.26.06.43.43,0,0,1-.45-.42.53.53,0,0,1,.35-.47,9.79,9.79,0,0,0,2.42-1.89,8.92,8.92,0,0,1-1.26-2.43,6.71,6.71,0,0,1-.52.63.59.59,0,0,1-.42.2.37.37,0,0,1-.39-.36.53.53,0,0,1,.15-.35,11.37,11.37,0,0,0,2.2-3.87.46.46,0,0,1,.46-.34.47.47,0,0,1,.49.45.7.7,0,0,1,0,.23,6.86,6.86,0,0,1-.31.7Zm-1.9.82c-.19.38-.42.73-.64,1.1.13.39.27.77.43,1.14a8.76,8.76,0,0,0,.84,1.38,8.29,8.29,0,0,0,1.5-3.14.89.89,0,0,0,0-.22c0-.2-.11-.26-.41-.26Zm1.18,1.32a.55.55,0,0,1,.13.35.41.41,0,0,1-.4.43.45.45,0,0,1-.39-.25,5.5,5.5,0,0,0-.43-.59.48.48,0,0,1-.14-.32.37.37,0,0,1,.38-.35.48.48,0,0,1,.35.16A3.41,3.41,0,0,1,560.23,139.85Z"/><path class="cls-7" d="M567.24,135a.42.42,0,0,1,0-.84h5.67a.42.42,0,0,1,0,.84h-1v2h1.45a.42.42,0,0,1,0,.84h-1.45v2.9a.44.44,0,0,1-.47.44.45.45,0,0,1-.48-.44v-2.9H569.2a5.1,5.1,0,0,1-1.72,3.57.59.59,0,0,1-.42.17.45.45,0,0,1-.46-.42.53.53,0,0,1,.21-.4,4.29,4.29,0,0,0,1.44-2.92h-1.43a.42.42,0,0,1,0-.84h1.49v-2Zm11.11,9.95a.4.4,0,0,1,.4.43.41.41,0,0,1-.4.44h-11.5a.42.42,0,0,1-.41-.44.4.4,0,0,1,.41-.43h5.21v-1.52h-3.61a.43.43,0,0,1,0-.85h3.61v-1a.5.5,0,0,1,1,0v1h3.72a.43.43,0,0,1,0,.85h-3.72v1.52Zm-9.09-8.16v.17H571v-2h-1.72Zm5.4-1.87a.45.45,0,0,1,.5-.45.45.45,0,0,1,.47.45v4c0,.22-.24.33-.47.33s-.5-.11-.5-.33Zm3.59,5.05c0,.9-.39,1.29-1.34,1.29a3.47,3.47,0,0,1-.63-.07.49.49,0,0,1-.44-.49.45.45,0,0,1,.58-.43,2.38,2.38,0,0,0,.49.05c.3,0,.36-.11.36-.47v-5.59a.45.45,0,0,1,.49-.42.44.44,0,0,1,.49.42Z"/><path class="cls-7" d="M538,169.3a10.59,10.59,0,0,0,4.48.66,46.53,46.53,0,0,0,4.76-.24.5.5,0,0,1,.55.51.47.47,0,0,1-.45.48c-1.62.15-3.12.21-4.9.21-3.7,0-5.51-.71-6.52-2.43a16.83,16.83,0,0,1-.65,2.33.46.46,0,0,1-.42.32.42.42,0,0,1-.41-.43.56.56,0,0,1,0-.21,17.64,17.64,0,0,0,.91-5.16.46.46,0,1,1,.91,0,13.39,13.39,0,0,1-.17,1.85,4.27,4.27,0,0,0,.94,1.45v-5H535a.42.42,0,0,1,0-.84h2V161h-1.39a.42.42,0,0,1,0-.84H537v-1.5a.44.44,0,0,1,.46-.45.43.43,0,0,1,.46.45v1.5h1.38a.42.42,0,0,1,0,.84H538v1.76h1.7a.42.42,0,0,1,0,.84H538v1.79h1.41a.42.42,0,0,1,0,.84H538Zm2-9.38a.39.39,0,0,1-.39-.41.37.37,0,0,1,.39-.4h5.55a.39.39,0,0,1,.41.4.4.4,0,0,1-.41.41h-1.82v9.22a.45.45,0,0,1-.9,0V167.4a21.76,21.76,0,0,1-3,.78.45.45,0,1,1-.16-.88l.94-.17v-7.21Zm2.83,1.68v-1.68h-1.34v1.68Zm0,2.48v-1.7h-1.34v1.7Zm-1.34,2.84c.45-.11.89-.22,1.34-.36v-1.7h-1.34Zm4.56-5.77c.86,0,1.18.44,1.1,1.22a15.53,15.53,0,0,1-.75,3.29,17.78,17.78,0,0,1,1,2,.67.67,0,0,1,.08.28.47.47,0,0,1-.47.48.53.53,0,0,1-.47-.38c-.16-.39-.35-.82-.56-1.22a11.48,11.48,0,0,1-1.11,1.93.57.57,0,0,1-.45.24.4.4,0,0,1-.42-.39.66.66,0,0,1,.14-.37,10,10,0,0,0,1.3-2.42,15.69,15.69,0,0,0-1.14-1.75.48.48,0,0,1-.12-.32.42.42,0,0,1,.42-.41.53.53,0,0,1,.41.21c.24.31.52.72.8,1.15a12.9,12.9,0,0,0,.43-2.28c0-.33,0-.4-.35-.4h-1.36a.41.41,0,0,1,0-.81Z"/><path class="cls-7" d="M552.3,167.23c-.91,0-1.33-.33-1.34-1.29v-5.08c0-.91.42-1.29,1.34-1.29h1c.93,0,1.35.38,1.35,1.29v5.08c0,.91-.42,1.29-1.35,1.29Zm.8-.87c.41,0,.52-.15.52-.54V161c0-.4-.13-.54-.52-.54h-.62c-.39,0-.51.14-.51.54v4.84c0,.4.12.54.51.54Zm6.65-1.51a15.55,15.55,0,0,0,3.38,3.85.61.61,0,0,1,.27.49.52.52,0,0,1-.51.52.64.64,0,0,1-.39-.17,14.91,14.91,0,0,1-3.15-3.95l.07,2.17v3.1a.44.44,0,0,1-.49.43.45.45,0,0,1-.49-.43v-3.11l.07-2.07a15,15,0,0,1-4.15,4.13.65.65,0,0,1-.35.11.44.44,0,0,1-.46-.43.51.51,0,0,1,.29-.45,14.67,14.67,0,0,0,4.19-4.19h-2.44a.44.44,0,0,1,0-.87h2.85v-2.14h-2.26a.45.45,0,0,1,0-.9h2.26v-2.09a.45.45,0,0,1,.49-.44.45.45,0,0,1,.49.44v2.09H562a.45.45,0,0,1,0,.9h-2.55V164h3.42a.44.44,0,0,1,0,.87Z"/><circle class="cls-5" cx="221.35" cy="44.95" r="19.31"/><path class="cls-1" d="M223,45.5a14,14,0,0,0,7.49,6.44,1.29,1.29,0,0,1,.93,1.2,1.21,1.21,0,0,1-1.22,1.22,1.46,1.46,0,0,1-.52-.09,15.57,15.57,0,0,1-8.33-7.42,11.27,11.27,0,0,1-1.66,3,15.06,15.06,0,0,1-6.33,4.59,1.44,1.44,0,0,1-.58.11,1.16,1.16,0,0,1-1.2-1.15,1.17,1.17,0,0,1,.8-1.07,12.84,12.84,0,0,0,5.51-3.91,9.44,9.44,0,0,0,1.41-2.9h-6.44a1.1,1.1,0,0,1,0-2.17h6.9c.13-1,.17-2,.2-3h-5.4a1.1,1.1,0,0,1,0-2.17h5.42V35.34c0-.63.61-1,1.22-1s1.21.33,1.21,1v2.79H228a1.1,1.1,0,0,1,0,2.17h-5.7a28,28,0,0,1-.19,3h8a1.1,1.1,0,0,1,0,2.17Z"/><path class="cls-7" d="M534.25,46.5a.44.44,0,0,1-.45-.47.45.45,0,0,1,.45-.48h10.06a.44.44,0,0,1,.44.48.43.43,0,0,1-.44.47h-4.54V54h5.45a.48.48,0,0,1,0,1H533.37a.48.48,0,0,1,0-1h5.3V46.5Z"/><path class="cls-7" d="M550.1,52.85a9.64,9.64,0,0,1-.87,3.39.54.54,0,0,1-.49.34.39.39,0,0,1-.41-.41.76.76,0,0,1,.07-.3c.6-1.23.88-2.73.88-5.51V48.3c0-.83.26-1.21,1.26-1.21h.9c1,0,1.28.38,1.28,1.21v7c0,.86-.47,1.21-1.31,1.21a4,4,0,0,1-.7,0,.46.46,0,1,1,.16-.9,3,3,0,0,0,.49.06c.26,0,.43-.1.43-.46v-2.3Zm6.27-8.69c0-.28.24-.4.48-.4a.41.41,0,0,1,.46.4v.77h3.49a.38.38,0,0,1,.39.4.37.37,0,0,1-.39.4h-3.49v.54a.43.43,0,0,1-.46.42.44.44,0,0,1-.48-.42v-.54h-3v.63a.47.47,0,0,1-.94,0v-.63h-3.39a.37.37,0,0,1-.38-.4.38.38,0,0,1,.38-.4h3.39v-.77a.48.48,0,0,1,.94,0v.77h3Zm-4.58,7.93V50.37h-1.58v0c0,.56,0,1.13,0,1.69Zm0-2.49V48.44c0-.42,0-.56-.47-.56h-.64c-.42,0-.47.14-.47.56V49.6Zm3.81,1.76a9.32,9.32,0,0,1-1.93,2.06.54.54,0,0,1-.34.13.39.39,0,0,1-.4-.38.51.51,0,0,1,.23-.39,7.5,7.5,0,0,0,1.39-1.42h-1a.39.39,0,0,1-.42-.4.38.38,0,0,1,.41-.39h1.62c.18-.28.34-.58.49-.87H554a.39.39,0,0,1-.42-.4.38.38,0,0,1,.42-.37h2a11.29,11.29,0,0,0,.56-1.7.52.52,0,0,1,.51-.39.46.46,0,0,1,.47.45.44.44,0,0,1,0,.15,12.41,12.41,0,0,1-.5,1.49h3.42a.36.36,0,0,1,.4.37.38.38,0,0,1-.4.4h-2a7.16,7.16,0,0,0,.56.87h2a.4.4,0,1,1,0,.79h-1.3a7.06,7.06,0,0,0,1.46,1.08.6.6,0,0,1,.35.51.48.48,0,0,1-.48.47.55.55,0,0,1-.31-.09,8,8,0,0,1-2.17-2Zm.11,2.88a.39.39,0,0,1,.42.39.44.44,0,0,1-.26.38,11.09,11.09,0,0,1-1.92.75l-.21,0a.42.42,0,0,1-.45-.41.45.45,0,0,1,.36-.42,11.68,11.68,0,0,0,1.83-.67A.5.5,0,0,1,555.71,54.24ZM555.57,48a.51.51,0,0,1,.09.27.46.46,0,0,1-.48.42.42.42,0,0,1-.38-.24,4.54,4.54,0,0,0-.53-.81.41.41,0,0,1-.1-.26.41.41,0,0,1,.44-.37.59.59,0,0,1,.42.21A6.56,6.56,0,0,1,555.57,48Zm.33,5.16a.55.55,0,0,1,.21.4.4.4,0,0,1-.41.38.46.46,0,0,1-.32-.13c-.23-.21-.34-.3-.56-.47a.43.43,0,0,1-.2-.34.42.42,0,0,1,.42-.41.43.43,0,0,1,.25.09A4.31,4.31,0,0,1,555.9,53.19Zm1.49,2.25c0,.87-.4,1.19-1.17,1.19a3.77,3.77,0,0,1-.79-.08.46.46,0,0,1-.39-.44.47.47,0,0,1,.59-.45,1.73,1.73,0,0,0,.52.06c.21,0,.33-.1.33-.39V52.09c0-.28.23-.4.47-.4a.4.4,0,0,1,.44.4Zm.56-4.87a7.89,7.89,0,0,1-.44-.87h-.91c-.14.29-.31.59-.48.87Zm1,2a.41.41,0,0,1,.41.4.46.46,0,0,1-.18.35,5.19,5.19,0,0,1-.86.58.5.5,0,0,1-.23,0,.39.39,0,0,1-.4-.39.44.44,0,0,1,.24-.38,4.39,4.39,0,0,0,.66-.46A.55.55,0,0,1,559,52.53Zm1.25,2.81a.57.57,0,0,1,.28.45.48.48,0,0,1-.49.46.6.6,0,0,1-.36-.12,12.48,12.48,0,0,0-1.59-1,.51.51,0,0,1-.32-.45.41.41,0,0,1,.44-.4.66.66,0,0,1,.26,0A12,12,0,0,1,560.25,55.34ZM559.17,47a.42.42,0,0,1,.45.39.47.47,0,0,1,0,.22,8.88,8.88,0,0,1-.55.9.54.54,0,0,1-.41.21.4.4,0,0,1-.43-.36.52.52,0,0,1,.08-.26,4.11,4.11,0,0,0,.49-.84A.46.46,0,0,1,559.17,47Z"/><path class="cls-7" d="M623.47,51.28c0-3,2.48-5.62,6.22-5.62,3.21,0,5.14,2,5.14,4.65a5.11,5.11,0,0,1-3.74,5,1.2,1.2,0,0,1-.24,0,.56.56,0,0,1-.57-.58.62.62,0,0,1,.49-.6,3.72,3.72,0,0,0,2.92-3.84c0-2.06-1.37-3.65-3.92-3.69a13.1,13.1,0,0,1-1.71,6.13c-.77,1.22-1.47,1.56-2.27,1.56C624.6,54.31,623.47,53.25,623.47,51.28Zm3.57-4a4.77,4.77,0,0,0-1.53,1.33,5.23,5.23,0,0,0-.64,1.13,4.69,4.69,0,0,0-.29,1.57c0,1.16.57,1.91,1.21,1.91.45,0,.86-.19,1.32-.93a12.15,12.15,0,0,0,1.54-5.56A5,5,0,0,0,627,47.25Z"/><path class="cls-7" d="M639.16,47.12c-.25,0-.37-.22-.37-.45a.4.4,0,0,1,.37-.45h5.09v-2.1a.45.45,0,0,1,.5-.4c.25,0,.51.14.51.4v2.1h5.28a.41.41,0,0,1,.38.45.4.4,0,0,1-.38.45h-5.65a20.06,20.06,0,0,1-.21,2h2.94c1.17,0,1.67.5,1.64,1.34a19.08,19.08,0,0,1-.57,3.85,2.16,2.16,0,0,1-2.3,1.89,6.7,6.7,0,0,1-1.5-.16.49.49,0,0,1,.09-1l.16,0a4.94,4.94,0,0,0,1.18.16c.72,0,1.09-.21,1.37-1.18a16.92,16.92,0,0,0,.54-3.49c0-.43-.16-.58-.79-.58H644.5a9,9,0,0,1-4.69,6.37.72.72,0,0,1-.27.07.5.5,0,0,1-.49-.49.51.51,0,0,1,.3-.44c.32-.18.64-.37.95-.58A7.73,7.73,0,0,0,642,53.27a10.21,10.21,0,0,0,1.73-4.46c.08-.56.11-1.13.15-1.69Z"/><circle class="cls-2" cx="598.12" cy="44.95" r="19.31"/><path class="cls-1" d="M589,43.5a.86.86,0,0,1,0-1.7h8V40.74h-5.18a.79.79,0,0,1-.76-.85.78.78,0,0,1,.76-.85H597v-1h-7.21a.92.92,0,0,1,0-1.83H597v-1c0-.58.56-.89,1.13-.89s1.13.31,1.13.89v1h7.55a.92.92,0,0,1,0,1.83h-7.55v1H603c1.92,0,2.59.54,2.59,2.07v.69h1.94a.86.86,0,0,1,0,1.7h-1.94v.74c0,1.59-.67,2.07-2.59,2.07h-5.11a.6.6,0,0,1,.07.3.88.88,0,0,1-.16.48c-.08.13-.17.26-.26.39h9.71a.86.86,0,0,1,0,1.72h-3.88c-.32.39-.65.79-1,1.16a14.77,14.77,0,0,1-1.26,1.13c1.33.39,2.68.84,4,1.32a1,1,0,0,1,.74.94,1,1,0,0,1-1,1,1.42,1.42,0,0,1-.5-.11c-1.67-.67-3.37-1.31-5.16-1.85a19.84,19.84,0,0,1-8.66,2.13,1,1,0,0,1-1.11-.93.94.94,0,0,1,1-.92,21.48,21.48,0,0,0,6.07-1c-.76-.2-1.5-.37-2.26-.52a1.54,1.54,0,0,1-1,.39A1,1,0,0,1,592.1,51a.88.88,0,0,1,.35-.68c.39-.37.79-.76,1.13-1.13h-4.41a.87.87,0,0,1,0-1.72H595c.3-.39.57-.78.83-1.17h-4.2a.79.79,0,0,1-.76-.85.78.78,0,0,1,.76-.85H597V43.5Zm7.29,5.7c-.26.33-.54.65-.8,1,1.11.2,2.22.43,3.31.72a10.67,10.67,0,0,0,2-1.68Zm7.05-7.4v-.56c0-.39-.11-.5-.63-.5h-3.5V41.8Zm-4.13,2.81h3.5c.52,0,.63-.09.63-.5V43.5h-4.13Z"/></g></g></svg>